<?xml version="1.0" standalone="no"?>
<!DOCTYPE svg PUBLIC "-//W3C//DTD SVG 20010904//EN"
 "http://www.w3.org/TR/2001/REC-SVG-20010904/DTD/svg10.dtd">
<svg version="1.0" xmlns="http://www.w3.org/2000/svg"
 width="700.000000pt" height="700.000000pt" viewBox="0 0 700.000000 700.000000"
 preserveAspectRatio="xMidYMid meet">
<metadata>
Created by potrace 1.14, written by Peter Selinger 2001-2017
</metadata>
<g transform="translate(0.000000,700.000000) scale(0.100000,-0.100000)"
fill="#000000" stroke="none">
<path d="M4620 6923 c-35 -14 -38 -41 -9 -74 30 -34 102 -145 132 -204 28 -57
67 -181 67 -215 0 -22 -1 -21 -22 6 -47 64 -163 167 -236 209 -89 53 -170 80
-264 89 -79 8 -94 -4 -74 -64 9 -28 25 -42 85 -76 145 -81 238 -207 248 -336
6 -71 -11 -171 -32 -192 -11 -10 -47 -14 -147 -14 -142 0 -246 13 -423 54 -60
14 -117 27 -125 29 -8 2 -62 15 -120 29 -58 14 -121 28 -140 31 -19 3 -42 8
-50 10 -64 17 -314 26 -400 13 -228 -33 -351 -95 -870 -438 -190 -125 -390
-252 -446 -282 -101 -55 -223 -108 -247 -108 -21 0 -37 77 -42 200 -5 124 -13
220 -21 260 -2 14 -6 34 -8 45 -25 132 -127 335 -168 335 -9 0 -29 -11 -44
-24 -25 -21 -28 -29 -26 -82 8 -172 4 -206 -34 -339 -44 -156 -54 -214 -48
-280 l4 -48 -26 24 c-36 33 -92 152 -108 229 -20 92 -13 242 14 316 34 93 42
132 29 155 -12 23 -45 38 -71 31 -35 -9 -159 -183 -226 -317 -87 -175 -111
-305 -85 -465 15 -94 23 -122 62 -202 55 -116 116 -202 360 -504 237 -294 324
-486 324 -716 -1 -240 -98 -438 -330 -675 -85 -86 -91 -90 -173 -116 -166 -52
-239 -62 -445 -61 -88 0 -192 4 -231 8 -61 7 -76 6 -102 -10 -36 -21 -56 -61
-47 -95 7 -28 105 -104 182 -143 90 -45 189 -73 293 -82 30 -3 56 -7 57 -8 1
-1 -18 -42 -42 -91 -178 -360 -185 -757 -13 -720 25 6 62 44 68 70 18 79 120
250 201 339 70 77 221 187 236 172 2 -2 -5 -22 -16 -44 -25 -49 -70 -184 -77
-232 -3 -19 -9 -51 -13 -70 -4 -20 -9 -72 -10 -116 -2 -92 14 -126 62 -126 48
-1 73 28 131 145 101 206 237 320 481 403 l69 24 51 -34 c120 -82 257 -245
322 -386 35 -76 64 -180 83 -300 8 -55 5 -425 -4 -467 -3 -12 -7 -54 -10 -92
-3 -38 -8 -84 -11 -103 -31 -225 -37 -565 -11 -693 2 -12 7 -48 11 -80 4 -33
15 -95 26 -139 32 -134 81 -198 152 -198 59 0 87 22 154 121 172 255 351 429
625 604 112 72 374 207 401 207 7 0 17 4 23 8 5 5 36 19 69 31 33 13 69 27 80
31 72 31 430 130 521 144 21 4 55 11 74 16 19 5 86 16 148 25 62 9 121 18 132
20 10 2 51 7 92 10 40 4 91 9 113 12 104 12 523 11 595 -2 41 -8 87 -16 101
-18 38 -7 179 -47 219 -63 364 -138 555 -182 618 -144 68 41 75 102 32 256
-49 175 -136 353 -309 636 -242 396 -319 541 -375 709 -45 133 -60 230 -53
349 14 260 130 408 507 640 343 212 437 288 520 422 47 77 105 217 114 276 18
113 18 108 -7 137 -30 35 -76 38 -115 7 -166 -132 -360 -222 -532 -247 -56 -8
-201 -9 -238 -1 -15 4 -36 8 -47 10 -210 40 -406 195 -511 404 -35 69 -79 194
-88 247 -3 17 -10 53 -15 80 -12 62 -11 253 1 332 5 32 22 119 39 193 17 74
32 142 34 150 1 8 8 33 13 55 50 188 63 439 28 566 -46 171 -157 331 -320 462
-74 60 -129 92 -218 128 -69 28 -98 33 -128 22z"/>
</g>
</svg>
