<svg width="80" height="102" viewBox="0 0 80 102" fill="none" xmlns="http://www.w3.org/2000/svg">
<path fill-rule="evenodd" clip-rule="evenodd" d="M29.7954 69.8978L34.2046 72.1024C35.1962 72.5982 36 73.9 36 74.9913V99.0089C36 100.109 35.2037 100.602 34.2046 100.102L29.7954 97.8978C28.8038 97.402 28 96.1002 28 95.0089V70.9913C28 69.8916 28.7963 69.3983 29.7954 69.8978ZM30.9544 90.9957C29.7701 91.4268 29.2759 93.0563 29.8506 94.6354C30.4254 96.2144 31.8513 97.1451 33.0356 96.714C34.2199 96.283 34.7141 94.6535 34.1394 93.0744C33.5646 91.4953 32.1387 90.5647 30.9544 90.9957Z" fill="#4A4A4A"/>
<path fill-rule="evenodd" clip-rule="evenodd" d="M35.2998 72.24L33.2998 73.24V101.24L35.2998 100.24V72.24Z" fill="#4A4A4A"/>
<path fill-rule="evenodd" clip-rule="evenodd" d="M29.1638 90.334L28.9358 94.738L31.7788 98.318L28.1028 98.209L26.5498 94.065L26.9308 90.443L29.1638 90.334Z" fill="#4A4A4A"/>
<path fill-rule="evenodd" clip-rule="evenodd" d="M27.7954 70.8978L32.2046 73.1024C33.1962 73.5982 34 74.9 34 75.9913V100.009C34 101.109 33.2037 101.602 32.2046 101.102L27.7954 98.8978C26.8038 98.402 26 97.1002 26 96.0089V71.9913C26 70.8916 26.7963 70.3983 27.7954 70.8978ZM28.9544 91.9957C27.7701 92.4268 27.2759 94.0563 27.8506 95.6354C28.4254 97.2144 29.8513 98.1451 31.0356 97.714C32.2199 97.283 32.7141 95.6535 32.1394 94.0744C31.5646 92.4953 30.1386 91.5647 28.9544 91.9957Z" fill="black"/>
<path fill-rule="evenodd" clip-rule="evenodd" d="M45.7954 61.8978L50.2046 64.1024C51.1962 64.5982 52 65.9 52 66.9913V91.0089C52 92.1086 51.2037 92.6019 50.2046 92.1024L45.7954 89.8978C44.8038 89.402 44 88.1002 44 87.0089V62.9913C44 61.8916 44.7963 61.3983 45.7954 61.8978ZM46.9544 82.9957C45.7701 83.4268 45.2759 85.0563 45.8506 86.6354C46.4254 88.2144 47.8513 89.1451 49.0356 88.714C50.2199 88.283 50.7141 86.6535 50.1394 85.0744C49.5646 83.4953 48.1387 82.5647 46.9544 82.9957Z" fill="#4A4A4A"/>
<path fill-rule="evenodd" clip-rule="evenodd" d="M51.2998 64.24L49.2998 65.24V93.24L51.2998 92.24V64.24Z" fill="#4A4A4A"/>
<path fill-rule="evenodd" clip-rule="evenodd" d="M45.1638 82.334L44.9358 86.738L47.7788 90.318L44.1028 90.209L42.5498 86.065L42.9308 82.443L45.1638 82.334Z" fill="#4A4A4A"/>
<path fill-rule="evenodd" clip-rule="evenodd" d="M43.7954 62.8978L48.2046 65.1024C49.1962 65.5982 50 66.9 50 67.9913V92.0089C50 93.1086 49.2037 93.6019 48.2046 93.1024L43.7954 90.8978C42.8038 90.402 42 89.1002 42 88.0089V63.9913C42 62.8916 42.7963 62.3983 43.7954 62.8978ZM44.9544 83.9957C43.7701 84.4268 43.2759 86.0563 43.8506 87.6354C44.4254 89.2144 45.8513 90.1451 47.0356 89.714C48.2199 89.283 48.7141 87.6535 48.1394 86.0744C47.5646 84.4953 46.1386 83.5647 44.9544 83.9957Z" fill="black"/>
<path fill-rule="evenodd" clip-rule="evenodd" d="M0 20L40 39.998V90L0 70V20Z" fill="#F22B2B"/>
<path fill-rule="evenodd" clip-rule="evenodd" d="M80 20L40 39.998V90L80 70V20Z" fill="#FF5E5E"/>
<path fill-rule="evenodd" clip-rule="evenodd" d="M40.5 2.39502L1.08398 22L40 41.852L78.212 22L40.5 2.39502Z" fill="white"/>
<path fill-rule="evenodd" clip-rule="evenodd" d="M66 61.0001L60 64.0001L60.0024 68.0597C60.026 68.4306 60.2791 70.3605 63 69.0001C65.8462 67.577 65.9921 65.2539 65.9996 65.0193L66 61.0001ZM55.3681 48.2413C53.8111 47.6746 51.9365 48.8981 51.1809 50.974C50.4254 53.0499 51.075 55.1922 52.6319 55.7588C54.1889 56.3255 56.0635 55.102 56.8191 53.0261C57.5746 50.9502 56.925 48.808 55.3681 48.2413ZM71.3681 40.2413C69.8111 39.6746 67.9365 40.8981 67.1809 42.974C66.4254 45.0499 67.075 47.1922 68.6319 47.7588C70.1889 48.3255 72.0635 47.102 72.8191 45.0261C73.5746 42.9502 72.925 40.808 71.3681 40.2413ZM16 62.4794V66.4794L22 69.4794L21.9996 65.4601C21.9921 65.2256 21.8462 62.9024 19 61.4794C16 59.9794 16 62.4794 16 62.4794ZM24 45.5025V55.4976C24 56.0513 24.3982 56.6992 24.8877 56.9439L27.1123 58.0562C27.6026 58.3014 28 58.0443 28 57.4976V47.5025C28 46.9489 27.6018 46.301 27.1123 46.0562L24.8877 44.9439C24.3975 44.6988 24 44.9558 24 45.5025ZM10 38.5025V48.4976C10 49.0513 10.3982 49.6992 10.8877 49.9439L13.1123 51.0562C13.6025 51.3014 14 51.0443 14 50.4976V40.5025C14 39.9489 13.6018 39.301 13.1123 39.0562L10.8877 37.9439C10.3975 37.6988 10 37.9558 10 38.5025Z" fill="black"/>
<path fill-rule="evenodd" clip-rule="evenodd" d="M0 24L40 4.001L80 24V20L39.998 0L0 20V24Z" fill="url(#paint0_linear)"/>
<path fill-rule="evenodd" clip-rule="evenodd" d="M32 23C34.2091 23 36 24.3431 36 26C36 27.6569 34.2091 29 32 29C29.7909 29 28 27.6569 28 26C28 24.3431 29.7909 23 32 23ZM48 15C50.2091 15 52 16.3431 52 18C52 19.6569 50.2091 21 48 21C45.7909 21 44 19.6569 44 18C44 16.3431 45.7909 15 48 15Z" fill="black"/>
<defs>
<linearGradient id="paint0_linear" x1="0" y1="21.545" x2="80" y2="21.545" gradientUnits="userSpaceOnUse">
<stop stop-color="#F22B2B"/>
<stop offset="1" stop-color="#FF5E5E"/>
</linearGradient>
</defs>
</svg>
