<svg width="178" height="66" viewBox="0 0 178 66" fill="none" xmlns="http://www.w3.org/2000/svg">
<path fill-rule="evenodd" clip-rule="evenodd" d="M0 36H38H62H68H94H130V48H124V54H118V60H112V66H80V60H74V54H68V48V42H62V48V54H56V60H50V66H18V60H12V54H6V48H0V36ZM74 42V48H80V54H86V60H92V54H86V48H80V42H74ZM24 54H30V60H24V54ZM18 48H24V54H18V48ZM18 48H12V42H18V48Z" fill="#404040"/>
<path fill-rule="evenodd" clip-rule="evenodd" d="M54 0H36V6H30V12H24V18H18V24H12V30H6V36H12V30H18V24H24V18H30V12H36V6H54V0Z" fill="#404040"/>
<path fill-rule="evenodd" clip-rule="evenodd" d="M178 0H160V6H154V12H148V18H142V24H136V30H130V36H136V30H142V24H148V18H154V12H160V6H178V0Z" fill="#404040"/>
</svg>
