<svg width="387" height="317" viewBox="0 0 387 317" fill="none" xmlns="http://www.w3.org/2000/svg">
<g clip-path="url(#clip0)">
<ellipse cx="162.5" cy="293.5" rx="85.5" ry="12.5" fill="#EAEAEA"/>
<path d="M106.788 90.5775C114.229 108.187 98.5936 120.306 115.122 123.6C116.971 128.332 106.259 136.301 99.5828 125.483C89.2849 108.798 102.718 104.946 102.733 92.5582C102.736 90.2163 105.877 88.4203 106.788 90.5775Z" fill="#BA6598"/>
<path d="M203.17 97.4682C210.519 102.377 214.79 113.969 202.451 121.831C198.315 127.672 199.233 142.872 214.369 132.041C229.909 120.921 217.903 95.7979 203.245 93.4356C201.64 93.1768 201.818 96.5649 203.17 97.4682Z" fill="#BA6598"/>
<path d="M83.5757 248.493C60.9708 227.636 68.1327 204.31 92.0902 191.616L105.95 208.731C78.652 211.321 77.0657 226.614 87.534 244.544C89.2402 247.467 86.0629 250.788 83.5757 248.493Z" fill="#BA6598"/>
<path d="M227.436 176.172L222.758 181.307C259.5 204.5 239.5 149 228.5 149C222.987 149 222.155 155.528 226 158C240 167 243.086 193.838 227.436 176.172Z" fill="#BA6598"/>
<path d="M53.8762 184.623C62.6053 195.809 76.9167 197.386 93.5789 193.062C94.7922 187.406 96.1362 173.983 91.6902 179.546C87.2739 185.073 71.2148 185.767 58.075 180.495C55.2543 179.363 52.0064 182.227 53.8762 184.623Z" fill="#BA6598"/>
<path d="M230.5 201C226.751 196.556 218.557 216.885 234.5 210C242.267 206.646 249.198 223.924 244.448 242.715C244.073 244.197 245.351 245.63 246.85 245.33L247.424 245.215C248.094 245.081 248.659 244.593 248.9 243.953C263.625 204.863 242.539 194.297 230.5 201Z" fill="#BA6598"/>
<path d="M225.675 99.7544C241.668 122.475 214.206 135.85 217.367 158.647C219.842 176.5 242 183 235 220.5C233.09 230.731 223 241.5 219.5 243.962C223.921 254.375 230.455 264.716 229.681 281.005C229.601 282.696 227.534 283.42 226.273 282.29C197.085 256.137 131.077 252.474 100.282 286.571C99.1017 287.878 96.8778 287.264 96.7288 285.51C95.0298 265.51 102.873 253.682 106.356 241.5C80 223 72.5 212 98.334 162.167C103.884 138.866 74.4665 122.817 86.6291 101.046C87.7612 99.0196 91.2257 101.197 91.0617 103.512C90.3629 113.379 96.7968 120.653 106.676 120.734C120.675 120.849 137.286 106.486 160.293 106.675C180.318 106.84 198.621 121.278 209.193 119.078C220.588 116.707 223.677 110.19 222.034 101.929C221.596 99.7268 224.382 97.9183 225.675 99.7544Z" fill="#F5B9DD"/>
<path d="M219.475 153.389C220.032 148.395 228.054 147.071 230.789 150.697C232.801 153.365 231.971 157.597 229.988 159.218C227.509 161.244 218.918 158.383 219.475 153.389Z" fill="#BA6598"/>
<mask id="mask0" mask-type="alpha" maskUnits="userSpaceOnUse" x="81" y="98" width="155" height="190">
<path d="M217.367 158.647C220.609 182.03 233.122 193.914 235.205 195.748C235.402 195.922 235.562 196.115 235.645 196.365C236.261 198.233 237.853 207.456 219.73 228C213.554 235 216.368 236.706 219.73 244.5C224.144 254.733 230.441 264.996 229.681 281.005C229.6 282.697 227.534 283.42 226.273 282.29C197.085 256.137 131.076 252.474 100.281 286.571C99.1015 287.878 96.8973 287.266 96.7849 285.509C95.3637 263.281 106.675 240.334 106.675 240.334C106.675 240.334 96.0268 240.334 84.1664 221.269C84.0578 221.094 83.9718 220.889 83.9226 220.689C76.1026 189.001 91.9196 189.095 98.3337 162.167C103.884 138.866 74.4662 122.817 86.6288 101.046C87.7609 99.0197 91.2254 101.197 91.0614 103.512C90.3626 113.379 96.7965 120.653 106.675 120.734C120.675 120.849 137.286 106.486 160.293 106.675C180.318 106.84 198.621 121.278 209.192 119.078C220.588 116.707 223.677 110.191 222.033 101.929C221.595 99.7269 224.382 97.9184 225.674 99.7545C241.668 122.475 214.206 135.85 217.367 158.647Z" fill="#F7BEED"/>
</mask>
<g mask="url(#mask0)">
<path d="M216.864 94.1449C216.711 102.289 233.24 86.9112 227.239 103.012C228.535 124.76 213.369 134.607 199.171 133.821C185.306 133.054 181.149 124.852 163.059 120.981C136.494 115.297 114.556 132.59 92.7249 115.135C93.7348 105.636 95.846 97.7254 96.0342 87.721C96.4029 68.1183 125.588 104.198 159.271 104.831C192.955 105.465 217.233 74.5423 216.864 94.1449Z" fill="#FFD9F0"/>
<path d="M85 218C78.5 191 125 189.5 99.7175 142.198L52.7311 201.683C52.8948 204.104 89.6811 237.444 85 218Z" fill="#FFD9F0"/>
<path d="M121 231C111.5 228 100.217 219.317 99.7175 206C98.2175 216.817 99.9412 234.702 121 239C142.059 243.298 132.92 234.764 121 231Z" fill="#FFD9F0"/>
<path d="M226.499 204.5C230.499 217.5 218.999 235 201.999 238C197.166 236.333 188.899 230 198.499 230C210.499 230 228.499 219 226.499 204.5Z" fill="#FFD9F0"/>
<path d="M135 240C116.5 232.5 101 224.5 99.5 205C99.8138 205.747 100.973 205.095 101.5 206C102.5 214.428 111.5 227.489 135 232.5C151.633 236.046 144.742 243.949 135 240Z" fill="#E096C3"/>
<path d="M190.944 237C206.5 233.5 229.999 223 226.444 204C226.13 204.747 224.971 204.095 224.444 205C224.444 217.5 214 225.5 190.944 229.5C174.186 232.407 180.688 239.307 190.944 237Z" fill="#E096C3"/>
<path d="M213.5 177C206.212 139.137 242.125 133.808 233.422 109.959L261.708 106.808C261.708 106.808 227.093 140.82 218 169.5C223 178.726 235 187.5 235 204C223 185.5 215.285 186.274 213.5 177Z" fill="#FFD9F0"/>
<path d="M210.073 271.653L231.868 284.498L220.028 243L210.396 246.5C212.247 254.324 214.185 261.669 210.073 271.653Z" fill="#FFD9F0"/>
<path d="M128.49 249.084C134.943 247.601 144.474 256.424 148.433 261.021C129.731 273.552 93.1282 295.819 96.3376 284.643C100.349 270.674 120.423 250.937 128.49 249.084Z" fill="#FFD9F0"/>
<path d="M185.37 226.996C169.028 231.681 152.65 231.755 137.527 225.963L140.217 230.118L150.521 236.924L165.992 238.701L183.137 232.654L185.37 226.996Z" fill="#FFD9F0"/>
<path d="M204.287 191.161C174.794 203.94 135.124 217.103 118.799 189.231C106.814 168.771 143.379 141.081 164.015 142.797C184.693 144.517 218.842 166.153 204.287 191.161Z" fill="#FFD9F0"/>
</g>
<path fill-rule="evenodd" clip-rule="evenodd" d="M168.299 111.962C170.902 115.731 170.494 124.013 160.21 133.675C161.748 118.022 154.264 110.271 143.971 112.682C141.727 113.208 138.651 114.196 135.092 115.339C116.389 121.345 84.335 131.638 89.4376 101.71C84.8779 110.434 88.0596 118.77 92.5514 126.775C93.0515 127.666 93.5588 128.556 94.0665 129.446C97.056 134.686 100.059 139.951 101.693 145.802C105.773 160.418 99.0222 174.409 92.813 187.279C82.5981 208.451 73.8479 226.587 117.193 239.478C120.205 240.374 120.361 248.175 117.193 248C114.003 247.824 110.991 247.335 108.165 246.573C107.498 248.984 106.778 251.407 106.055 253.839C103.681 261.829 101.279 269.91 100.664 277.912C109.323 269.126 123.078 262.32 132.174 259.028C162.057 248.212 200.566 253.223 224.931 274.951C224.898 271.668 224.616 267.79 223.507 263.201C222.074 257.277 219.641 252.405 217.294 247.704C216.346 245.806 215.411 243.935 214.563 242.033L221.559 239.217C222.81 244.591 224.778 250.104 226.753 255.637C230.365 265.757 234.002 275.943 233.317 285.471C233.231 286.661 232.673 287.61 231.884 288.252C230.892 289.149 229.47 289.564 227.942 289.001C222.696 287.067 218.878 284.653 215.034 282.223C208.992 278.404 202.887 274.545 191.077 272.445C160.923 267.083 122.321 268.843 100.274 292.834C99.4523 293.728 98.427 294.118 97.4159 294.123C96.1255 294.216 94.7948 293.699 93.918 292.353C92.0919 289.549 92.6064 283.948 92.9758 279.927C93.0485 279.135 93.1157 278.404 93.1581 277.768C93.6201 270.852 95.9579 263.717 98.3061 256.55C99.6393 252.481 100.976 248.402 101.974 244.347C84.8517 236.518 76.5093 217.618 79.5004 199.868C80.6719 192.916 83.3107 187.646 86.4419 181.393C88.6562 176.971 91.1167 172.057 93.4789 165.708C97.9781 153.617 92.6509 143.357 87.4743 133.387C80.159 119.299 73.1446 105.789 94.5874 88.5085C95.5522 87.7309 97.0166 87.9437 97.6985 88.9882C98.4145 90.0851 97.582 91.7979 96.2035 93.6462C96.2034 93.6464 96.2033 93.6465 96.2031 93.6467C92.3536 99.1152 90.6165 113.604 100.855 117.558C108.2 120.394 120.347 115.471 132.658 110.483C142.506 106.493 152.458 102.46 160.139 102.322C169.401 101.916 177.526 105.856 185.621 109.782C192.182 112.964 198.723 116.136 205.833 116.977C222.877 118.994 221.701 102.392 216.078 92.2112C214.998 90.2555 217.602 89.3039 219.428 90.6615C219.681 90.8499 219.924 91.0444 220.156 91.2448C221.585 91.8978 223.288 93.086 225.124 95.0273C230.691 100.915 234.743 108.487 234.172 116.788C233.707 123.553 230.807 129.559 227.91 135.562C225.177 141.223 222.446 146.881 221.759 153.169C220.646 163.372 223.265 171.489 228.159 177.005L221.907 180.522C220.683 179.041 219.562 177.415 218.557 175.646C207.948 156.971 216.05 136.635 224.157 127.702C230.697 120.495 230.207 107.27 224.27 99.1218C224.494 100.698 224.51 102.397 224.351 104.202C223.819 110.206 221.089 116.069 216.82 118.475C206.366 124.368 194.111 120.192 182.119 116.106C177.431 114.509 172.784 112.925 168.299 111.962Z" fill="#E096C3"/>
<path d="M222 180.5C241 206 240 233.5 203 242.5C185.833 249.5 161.8 267 203 253C254.5 235.5 236.5 188 228 177L222 180.5Z" fill="#E096C3"/>
<path d="M121.044 241.277C129.354 246.427 143.04 253.004 164.364 252.778C183.025 252.58 196.714 246.583 203.049 243.147C204.584 242.314 206.398 243.575 205.674 245.164C202.06 253.086 190.742 262.869 164.283 262.651C138.271 262.436 124.439 251.89 118.753 243.282C117.702 241.691 119.423 240.273 121.044 241.277Z" fill="#E096C3"/>
<path d="M128.316 166.847C142.729 149.705 182.128 151.408 195.691 167.402C207.747 181.619 207.5 202.863 195.282 217.025C186.337 227.393 175.193 226.608 161.308 226.187C146.98 225.753 138.798 227.332 127.908 216.471C114.762 203.359 116.074 181.408 128.316 166.847Z" fill="#E096C3"/>
<path d="M132.268 170.426C144.74 156.965 178.869 158.33 190.627 170.906C201.08 182.086 200.88 198.779 190.306 209.9C180.308 220.414 140.929 217.547 131.946 209.419C120.551 199.108 121.673 181.859 132.268 170.426Z" fill="white"/>
<mask id="mask1" mask-type="alpha" maskUnits="userSpaceOnUse" x="123" y="160" width="76" height="57">
<path d="M132.267 170.426C144.739 156.965 178.868 158.33 190.626 170.906C201.079 182.086 200.879 198.779 190.305 209.9C180.307 220.414 140.928 217.547 131.945 209.419C120.55 199.108 121.672 181.859 132.267 170.426Z" fill="#E8E8E8"/>
</mask>
<g mask="url(#mask1)">
<path d="M161.897 207.657C135.495 202.007 123.235 194.782 126.897 177.67L109.094 203.517L147.024 219.814L175.451 220.783L204.746 208.133C203.73 196.155 201.16 175.664 199.013 189.521C196.329 206.843 181.454 211.841 161.897 207.657Z" fill="#F0F0F0"/>
</g>
<mask id="mask2" mask-type="alpha" maskUnits="userSpaceOnUse" x="152" y="193" width="20" height="20">
<circle cx="162.095" cy="203.378" r="9.5" transform="rotate(0.471941 162.095 203.378)" fill="#BA6598"/>
</mask>
<g mask="url(#mask2)">
<circle cx="162.095" cy="203.377" r="9.5" transform="rotate(0.471941 162.095 203.377)" fill="#BA6598"/>
<circle cx="167.543" cy="197.495" r="4.5" transform="rotate(0.471941 167.543 197.495)" fill="#F5B9DD"/>
</g>
<path d="M155.447 148.451C143.764 149.065 134.181 153.891 127.171 162.581C125.016 165.253 120.638 163.93 122.059 160.805C124.834 154.703 128.838 150.169 133.186 146.802C133.186 146.802 133.186 146.802 133.186 146.802C136.609 144.126 134.164 140.7 131.728 142.243C131.543 142.388 131.358 142.536 131.172 142.686C129.159 144.317 127.08 146.259 124.871 148.602C122.866 150.9 121.815 148.843 122.801 146.626C126.745 137.754 135.592 132.251 142.946 128.949C150.299 125.647 154.471 132.438 146.837 134.657C144.067 135.463 141.471 136.399 138.904 137.673C136.548 138.944 138.123 143.158 141.486 141.778C147.013 139.198 152.219 138.044 155.392 137.539C157.101 137.267 158.53 138.624 158.515 140.355L158.474 145.386C158.46 147.043 157.102 148.364 155.447 148.451Z" fill="#BA6598"/>
<path d="M195.007 163.117C189.162 156.432 181.125 151.092 171.134 149.32C169.617 149.051 168.455 147.763 168.467 146.223L168.512 140.777C168.527 138.926 170.19 137.569 171.967 138.088C178.676 140.045 193.516 145.935 200.673 161.027C202.15 164.142 197.276 165.712 195.007 163.117Z" fill="#BA6598"/>
<path d="M178.457 231.911C168.5 234.448 156.5 234.448 146.466 232.009C146.466 232.009 144.476 231.471 144.438 233.471C146.886 238.05 150.322 238.457 163.161 238.457C176 238.457 177.67 239.212 180.41 234.448C180.448 232.449 178.457 231.911 178.457 231.911Z" fill="#BA6598"/>
<circle cx="121.133" cy="168.766" r="2.5" transform="rotate(12.0775 121.133 168.766)" fill="#BA6598"/>
<circle cx="201.172" cy="167.485" r="2.5" transform="rotate(12.0775 201.172 167.485)" fill="#BA6598"/>
<circle cx="204.037" cy="173.211" r="2.5" transform="rotate(12.0775 204.037 173.211)" fill="#BA6598"/>
<circle cx="197.419" cy="228.04" r="2.5" transform="rotate(12.0775 197.419 228.04)" fill="#E096C3"/>
<circle cx="202.795" cy="222.032" r="2.5" transform="rotate(12.0775 202.795 222.032)" fill="#E096C3"/>
<rect x="116" y="207" width="90" height="60" rx="6" fill="#849294"/>
<rect x="116" y="203" width="90" height="60" rx="6" fill="#D0DEE0"/>
<path d="M118 213C118 210.791 119.791 209 122 209H200C202.209 209 204 210.791 204 213V257C204 259.209 202.209 261 200 261H122C119.791 261 118 259.209 118 257V213Z" stroke="#EBF5F7" stroke-width="4"/>
<rect x="118" y="205" width="86" height="56" rx="4" stroke="#849294" stroke-width="4"/>
<rect x="153" y="226" width="16" height="16" rx="8" fill="#BAC9CB"/>
</g>
<defs>
<clipPath id="clip0">
<rect width="387" height="317" fill="white"/>
</clipPath>
</defs>
</svg>
