<svg width="387" height="317" viewBox="0 0 387 317" fill="none" xmlns="http://www.w3.org/2000/svg">
<ellipse cx="195.5" cy="259.5" rx="85.5" ry="12.5" fill="#EAEAEA"/>
<path d="M143.742 58.8114C150.64 76.6404 134.641 88.2753 151.06 92.0739C152.764 96.8596 141.814 104.497 135.471 93.4798C125.689 76.4872 139.233 73.0483 139.628 60.667C139.703 58.3264 142.897 56.6273 143.742 58.8114Z" fill="#BA6598"/>
<path d="M239.868 68.6495C247.063 73.7813 250.977 85.4983 238.403 92.9794C234.09 98.6905 234.542 113.911 250.003 103.549C265.876 92.9098 254.645 67.431 240.066 64.6211C238.469 64.3133 238.544 67.7052 239.868 68.6495Z" fill="#BA6598"/>
<path d="M99.3919 187.671C103.51 169.714 120.196 160.76 125.959 159.353L139.288 176.884C128.542 178.52 114.313 174.287 104.506 188.866C102.708 191.538 98.6718 190.81 99.3919 187.671Z" fill="#BA6598"/>
<path d="M261.712 148.06L256.879 153.049C287.727 165.793 274.302 145.026 296.033 148.786C301.466 149.726 302.866 139.857 298.305 139.561C274.483 138.017 276.814 166.196 261.712 148.06Z" fill="#BA6598"/>
<path d="M79.9796 150.948C88.3622 162.396 102.619 164.411 119.405 160.599C120.791 154.982 122.546 141.607 117.931 147.032C113.348 152.42 97.2751 152.622 84.3028 146.95C81.5181 145.733 78.1841 148.496 79.9796 150.948Z" fill="#BA6598"/>
<path d="M264.362 177.034C260.751 172.477 251.86 185.355 268.007 178.961C276.329 175.666 283.633 178.144 291.691 183.153L294.063 173.521C285.422 170.553 276.709 170.646 264.362 177.034Z" fill="#BA6598"/>
<path d="M309.5 130.5L283.5 197.5L276.5 126.5C276.5 126.5 280 131.097 293 132.5C306 133.903 309.5 130.5 309.5 130.5Z" fill="#F0E0A7"/>
<mask id="mask0" mask-type="alpha" maskUnits="userSpaceOnUse" x="276" y="126" width="34" height="72">
<path d="M309.5 130.5L283.5 197.5L276.5 126.5C276.5 126.5 280 131.097 293 132.5C306 133.903 309.5 130.5 309.5 130.5Z" fill="#DEC673"/>
</mask>
<g mask="url(#mask0)">
<path d="M278 129.5L300.5 146.5" stroke="#E3C763" stroke-width="4" stroke-linecap="round" stroke-linejoin="round"/>
<path d="M278 139.5L300.5 156.5" stroke="#E3C763" stroke-width="4" stroke-linecap="round" stroke-linejoin="round"/>
<path d="M278 149.5L300.5 166.5" stroke="#E3C763" stroke-width="4" stroke-linecap="round" stroke-linejoin="round"/>
<path d="M278 159.5L300.5 176.5" stroke="#E3C763" stroke-width="4" stroke-linecap="round" stroke-linejoin="round"/>
<path d="M278 169.5L300.5 186.5" stroke="#E3C763" stroke-width="4" stroke-linecap="round" stroke-linejoin="round"/>
<path d="M288.5 158C281.5 156 280.5 124.5 280.5 124.5L273 126.5L278.5 196L284.5 201L311 129.5L303.5 131C303.5 131 298.382 160.823 288.5 158Z" fill="#9A7952"/>
</g>
<path d="M312.5 118.5C314 131 301.637 133.556 292 132.5C282.103 131.415 272.143 126 275 113.5C279 96 301.3 96 300.5 84C304.31 87.6667 311.136 97.8 307.964 109C310.122 110.914 311.951 113.921 312.5 118.5Z" fill="white"/>
<mask id="mask1" mask-type="alpha" maskUnits="userSpaceOnUse" x="274" y="84" width="39" height="49">
<path d="M312.5 118.5C314 131 301.637 133.556 292 132.5C282.103 131.415 272.143 126 275 113.5C279 96 301.3 96 300.5 84C304.31 87.6667 311.136 97.8 307.964 109C310.122 110.914 311.951 113.921 312.5 118.5Z" fill="white"/>
</mask>
<g mask="url(#mask1)">
<path d="M301.5 85.5C302.333 90.3333 303.5 101.2 301.5 106L313 110.5L312.5 89L301.5 85.5Z" fill="#D7F0F9"/>
<path d="M312.5 115.5C312.5 116.073 312.42 116.632 312.267 117.174L310 133.5H292.5L272 124.5C273.167 114.167 275.4 97.5 275 113.5C274.523 132.582 309.094 128.451 312.267 117.174L312.5 115.5Z" fill="#D7F0F9"/>
</g>
<path d="M300.5 106C302.397 106 305.411 106.735 307.964 109M307.964 109C310.122 110.914 311.951 113.921 312.5 118.5C314 131 301.637 133.556 292 132.5C282.103 131.415 272.143 126 275 113.5C279 96 301.3 96 300.5 84C304.31 87.6667 311.136 97.8 307.964 109Z" stroke="#91C0CF" stroke-width="4" stroke-linecap="round" stroke-linejoin="round"/>
<path d="M298 98.5C300 97.7 301.167 96.8333 301.5 96.5" stroke="#EA34D8" stroke-width="2" stroke-linecap="round" stroke-linejoin="round"/>
<path d="M294.052 112.391C295.07 110.493 295.407 109.079 295.448 108.609" stroke="#EA34D8" stroke-width="2" stroke-linecap="round" stroke-linejoin="round"/>
<path d="M290.009 120.484C291.702 121.816 293.036 122.393 293.491 122.515" stroke="#EA34D8" stroke-width="2" stroke-linecap="round" stroke-linejoin="round"/>
<path d="M293.289 104.802C291.853 103.197 290.639 102.397 290.212 102.197" stroke="#19A0DA" stroke-width="2" stroke-linecap="round" stroke-linejoin="round"/>
<path d="M308.3 118.211C306.469 119.346 305.471 120.402 305.201 120.788" stroke="#19A0DA" stroke-width="2" stroke-linecap="round" stroke-linejoin="round"/>
<path d="M289.3 111.211C287.469 112.346 286.471 113.402 286.201 113.788" stroke="#19A0DA" stroke-width="2" stroke-linecap="round" stroke-linejoin="round"/>
<path d="M281.33 124.181C281.262 122.028 280.846 120.635 280.647 120.208" stroke="#19A0DA" stroke-width="2" stroke-linecap="round" stroke-linejoin="round"/>
<path d="M307.647 109.818C305.539 110.259 304.239 110.91 303.853 111.18" stroke="#F29B18" stroke-width="2" stroke-linecap="round" stroke-linejoin="round"/>
<path d="M301.432 126.397C300.991 124.289 300.34 122.989 300.07 122.603" stroke="#F29B18" stroke-width="2" stroke-linecap="round" stroke-linejoin="round"/>
<path d="M283.052 110.391C284.07 108.493 284.407 107.079 284.448 106.609" stroke="#F29B18" stroke-width="2" stroke-linecap="round" stroke-linejoin="round"/>
<path d="M252.184 130.234C254.797 154.524 269.982 167.614 295.421 157.912C297.062 157.286 298.666 158.822 297.696 160.286C287.58 175.544 258.18 162.692 249.854 190.189C242.714 213.767 262.944 224.761 260.747 252.902C260.616 254.59 258.527 255.26 257.301 254.092C228.928 227.058 163.062 221.376 131.238 254.514C130.018 255.784 127.813 255.09 127.718 253.332C126.043 222.308 146.623 211.558 138.86 187.876C133.054 170.167 110.271 155.011 92.4533 175.283C90.9983 176.939 88.2123 175.775 89.0144 173.722C98.4766 149.506 126.621 154.029 133.099 130.108C139.36 106.988 110.448 90.0465 123.271 68.6581C124.465 66.6672 127.861 68.9494 127.626 71.2587C126.625 81.0997 132.834 88.5667 142.705 88.9504C156.695 89.4943 173.737 75.6458 196.728 76.5396C216.739 77.3175 234.591 92.309 245.225 90.4339C256.688 88.4129 259.975 81.9937 258.585 73.6858C258.215 71.4712 261.055 69.7489 262.291 71.6237C277.581 94.8229 249.723 107.351 252.184 130.234Z" fill="#F5B9DD"/>
<path d="M293.947 143.138C294.656 138.163 302.715 137.085 305.337 140.793C307.267 143.522 306.308 147.726 304.276 149.285C301.737 151.235 293.237 148.112 293.947 143.138Z" fill="#BA6598"/>
<path d="M282.205 181.941C282.915 176.967 293.865 170.421 296.487 174.129C298.417 176.858 297.704 182.153 295.672 183.713C293.133 185.662 281.496 186.916 282.205 181.941Z" fill="#BA6598"/>
<mask id="mask2" mask-type="alpha" maskUnits="userSpaceOnUse" x="88" y="67" width="210" height="189">
<path d="M252.184 130.234C254.797 154.524 269.982 167.614 295.421 157.912C297.062 157.286 298.666 158.822 297.696 160.286C287.58 175.544 258.18 162.692 249.854 190.189C242.714 213.767 262.944 224.761 260.747 252.902C260.616 254.59 258.527 255.26 257.301 254.092C228.928 227.058 163.062 221.376 131.238 254.514C130.018 255.784 127.813 255.09 127.718 253.332C126.043 222.308 146.623 211.558 138.86 187.876C133.054 170.167 110.271 155.011 92.4533 175.283C90.9983 176.939 88.2123 175.775 89.0144 173.722C98.4766 149.506 126.621 154.029 133.099 130.108C139.36 106.988 110.448 90.0465 123.271 68.6581C124.465 66.6672 127.861 68.9494 127.626 71.2587C126.625 81.0997 132.834 88.5667 142.705 88.9504C156.695 89.4943 173.737 75.6458 196.728 76.5396C216.739 77.3175 234.591 92.309 245.225 90.434C256.688 88.4129 259.975 81.9937 258.585 73.6858C258.215 71.4712 261.055 69.7489 262.291 71.6237C277.581 94.8229 249.723 107.351 252.184 130.234Z" fill="#F7BEED"/>
</mask>
<g mask="url(#mask2)">
<path d="M253.656 65.7473C253.254 73.8829 270.246 59.0184 263.754 74.9278C264.384 96.7052 248.924 106.083 234.757 104.863C220.921 103.672 217.018 95.3465 199.054 90.9237C172.676 84.429 150.219 101.042 128.932 82.9276C130.232 73.4641 132.585 65.6214 133.079 55.6274C134.048 36.0452 162.114 73.001 195.763 74.6653C229.411 76.3297 254.625 46.1652 253.656 65.7473Z" fill="#FFD9F0"/>
<path d="M109.582 165.702C132.588 155.918 143.554 136.476 135.093 110.191L86.3076 168.21C86.3971 170.635 91.1773 173.529 109.582 165.702Z" fill="#FFD9F0"/>
<path d="M297.863 151.812C303.948 157.772 308.337 159.931 285.919 168.953C271.629 174.704 249.73 165.351 247.288 150.173C241.163 112.105 277.691 106.165 269.722 82.0613L298.091 79.7772L297.863 151.812Z" fill="#FFD9F0"/>
<path d="M241.435 242.964C250.578 222.559 233.444 212.676 245.359 187.288L262.826 256.47L241.435 242.964Z" fill="#FFD9F0"/>
<path d="M160.58 217.908C167.076 216.623 176.333 225.734 180.149 230.45C161.072 242.402 123.805 263.539 127.355 252.467C131.792 238.626 152.461 219.513 160.58 217.908Z" fill="#FFD9F0"/>
<path d="M199.342 112.759C219.958 115.11 253.428 137.782 238.115 162.333C226.085 167.113 233.499 156.56 195.999 154.5C160.499 152.55 161.962 174.725 152.726 157.787C141.373 136.969 178.769 110.412 199.342 112.759Z" fill="#FFD9F0"/>
</g>
<path d="M196.698 80.8944C191.152 80.7304 191.093 72.266 196.665 72.1845C213.468 71.9387 226.098 85.8635 241.931 88.2308C258.905 90.7687 258.238 74.1383 252.929 63.79C251.91 61.8021 254.542 60.9307 256.325 62.3435C260.373 65.551 261.519 70.2721 260.831 76.0289C260.116 82.013 257.208 87.7897 252.867 90.0645C235.579 99.1233 214.345 81.416 196.698 80.8944ZM254.709 65.2831C249.842 62.7184 255.057 59.2026 261.885 66.8816C267.269 72.9372 271.087 80.6299 270.263 88.9087C268.956 102.021 258.552 111.986 256.742 124.893C252.964 151.832 275.842 164.923 298.536 153.771C301.259 152.434 303.735 156.215 301.353 158.133C297.294 161.401 288.749 162.73 283.668 163.332C270.458 164.895 259.083 159.054 252.853 147.261C242.821 128.271 251.542 108.192 259.918 99.5112C268.602 90.5118 265.987 71.2256 254.709 65.2831ZM296.679 156.983C298.307 153.12 302.946 153.943 301.801 157.682C300.864 160.743 296.974 166.873 291.843 170.196C281.013 177.21 261.248 177.188 255.306 189.848C246.021 209.63 266.487 235.645 264.244 257.487C263.85 261.324 258.586 262.493 256.734 259.027C254.405 254.666 257.764 247.539 255.12 234.927C251.859 219.373 241.583 210.764 244.003 194.067C248.407 163.684 279.416 174.176 293.006 161.367C294.756 159.718 295.601 159.541 296.679 156.983ZM263.377 254.639C265.826 257.788 262.531 262.372 258.764 260.85C245.432 255.466 241.632 247.199 222.423 243.174C192.447 236.891 153.809 237.469 131.038 260.774C128.105 263.776 122.92 260.683 124.346 256.668C129.269 242.808 151.202 232.14 163.958 227.96C197.449 216.986 240.947 225.791 263.377 254.639ZM132.079 257.315C132.759 261.553 126.966 263.821 124.7 260.098C122.618 256.677 124.01 249.351 124.387 245.497C126.151 227.422 140.833 208.238 134.791 190.289C126.684 166.205 101.99 165.464 88.8474 185.365C87.2011 187.857 83.1691 186.314 83.702 183.34C84.7626 177.421 91.6427 170.189 96.2863 166.7C107.194 158.505 121.648 159.791 131.774 168.665C161.802 194.98 127.18 226.745 132.079 257.315ZM89.2842 184.103C88.952 187.228 84.3407 187.506 83.7135 184.395C82.4674 178.215 88.5782 168.529 92.3024 163.981C102.256 151.827 121.969 148.644 128.138 133.5C139.883 104.666 94.1064 84.7446 131.609 56.3697C132.597 55.6221 134.055 55.8796 134.704 56.9445C136.478 59.8526 127.656 66.6049 126.124 69.29C121.206 77.9114 124.139 86.3799 128.403 94.556C131.658 100.798 135.257 106.954 136.957 113.854C146.561 152.828 92.8569 150.498 89.2842 184.103ZM131.104 56.9271C131.253 56.694 130.819 58.6358 131.044 58.4741C133.936 56.3966 135.962 57.6993 133.067 61.555C129.052 66.9031 126.872 81.332 136.985 85.5973C150.044 91.1054 179.434 71.9568 196.717 72.184C201.494 72.2468 202.711 79.1218 198.117 80.6672C204.242 76.3309 212.774 88.5436 195.819 103.524C197.835 87.9251 190.591 79.9492 180.23 82.0439C165.925 84.9356 117.731 105.321 126.347 68.0754C127.265 64.1069 128.914 60.3577 131.104 56.9271Z" fill="#E096C3"/>
<path d="M153.377 209.877C161.526 215.279 175.003 222.272 196.325 222.699C214.983 223.072 228.849 217.497 235.287 214.256C236.846 213.471 238.621 214.787 237.848 216.353C233.993 224.161 222.381 233.592 195.941 232.564C169.948 231.554 156.446 220.589 151.026 211.811C150.024 210.189 151.788 208.823 153.377 209.877Z" fill="#E096C3"/>
<path d="M161.316 135.846C175.729 118.705 215.128 120.408 228.691 136.401C240.747 150.619 240.5 171.863 228.282 186.025C219.337 196.393 208.193 195.607 194.308 195.187C179.98 194.753 171.798 196.331 160.908 185.47C147.762 172.359 149.074 150.407 161.316 135.846Z" fill="#E096C3"/>
<path d="M165.267 139.426C177.739 125.965 211.868 127.329 223.626 139.906C234.079 151.086 233.879 167.779 223.305 178.9C213.307 189.414 173.928 186.546 164.945 178.419C153.55 168.108 154.672 150.859 165.267 139.426Z" fill="white"/>
<mask id="mask3" mask-type="alpha" maskUnits="userSpaceOnUse" x="156" y="129" width="76" height="57">
<path d="M165.267 139.426C177.739 125.965 211.868 127.329 223.626 139.906C234.079 151.086 233.879 167.779 223.305 178.9C213.307 189.414 173.928 186.546 164.945 178.419C153.55 168.108 154.672 150.859 165.267 139.426Z" fill="#E8E8E8"/>
</mask>
<g mask="url(#mask3)">
<path d="M194.897 176.656C168.495 171.007 156.235 163.782 159.897 146.669L142.094 172.516L180.024 188.813L208.451 189.783L237.746 177.132C236.73 165.154 234.16 144.663 232.013 158.521C229.329 175.843 214.454 180.841 194.897 176.656Z" fill="#F0F0F0"/>
</g>
<mask id="mask4" mask-type="alpha" maskUnits="userSpaceOnUse" x="163" y="146" width="34" height="29">
<path d="M196.872 158.199C196.764 171.264 180.285 174.515 180.285 174.515C180.285 174.515 163.97 171.264 163.97 157.928C164.045 148.843 173.329 141.824 180.556 150.271C187.183 141.824 196.947 149.114 196.872 158.199Z" fill="#BA6598"/>
</mask>
<g mask="url(#mask4)">
<rect x="159.475" y="141.824" width="43.2934" height="39.8299" fill="#BA6598"/>
<circle cx="189.854" cy="149.609" r="7.7928" transform="rotate(0.471941 189.854 149.609)" fill="#F5B9DD"/>
</g>
<path d="M190.606 118.148C178.91 118.404 169.184 122.934 161.911 131.405C159.675 134.01 155.339 132.554 156.856 129.474C159.816 123.459 163.957 119.05 168.406 115.818C168.406 115.818 168.406 115.818 168.406 115.818C171.909 113.248 169.57 109.748 167.088 111.216C166.899 111.355 166.709 111.498 166.519 111.642C164.457 113.21 162.319 115.088 160.04 117.362C157.966 119.598 156.978 117.51 158.031 115.323C162.245 106.577 171.256 101.347 178.708 98.272C186.159 95.1967 190.121 102.112 182.423 104.097C179.629 104.817 177.005 105.674 174.401 106.868C172.007 108.066 173.452 112.327 176.856 111.05C182.459 108.641 187.698 107.647 190.885 107.239C192.601 107.019 193.988 108.42 193.921 110.149L193.725 115.176C193.661 116.832 192.262 118.111 190.606 118.148Z" fill="#BA6598"/>
<path d="M229.698 134.018C224.061 127.157 216.191 121.573 206.259 119.497C204.751 119.181 203.629 117.858 203.688 116.319L203.9 110.877C203.972 109.028 205.675 107.722 207.435 108.295C214.082 110.457 228.735 116.798 235.426 132.102C236.807 135.26 231.887 136.681 229.698 134.018Z" fill="#BA6598"/>
<circle cx="155.685" cy="137.403" r="2.5" transform="rotate(13.8318 155.685 137.403)" fill="#BA6598"/>
<circle cx="235.726" cy="138.572" r="2.5" transform="rotate(13.8318 235.726 138.572)" fill="#BA6598"/>
<circle cx="238.416" cy="144.384" r="2.5" transform="rotate(13.8318 238.416 144.384)" fill="#BA6598"/>
<circle cx="148.344" cy="174.014" r="5" transform="rotate(13.8318 148.344 174.014)" fill="#E096C3"/>
<circle cx="234.121" cy="179.984" r="2.5" transform="rotate(13.8318 234.121 179.984)" fill="#E096C3"/>
<circle cx="239.678" cy="174.143" r="2.5" transform="rotate(13.8318 239.678 174.143)" fill="#E096C3"/>
<circle cx="241.158" cy="180.686" r="2.5" transform="rotate(13.8318 241.158 180.686)" fill="#E096C3"/>
<path d="M164 200.5L164 200.5C166.5 221.5 176.5 228.5 196 228.5C215.5 228.5 224.5 209 224.5 202C210 200.5 184 200.5 164 200.5Z" fill="#FFD9F0"/>
<path d="M195.5 225C172.5 225 164 211.5 163 194C184.167 192.666 226.4 191.3 226 196.5C225.5 203 218.5 225 195.5 225Z" fill="#BA6598"/>
<path d="M221 198.5C208 195 166 197 166 197C166 197 170 219 193.5 220.5C212.5 220.5 220.241 204.949 221 198.5Z" fill="#6A2950"/>
<mask id="mask5" mask-type="alpha" maskUnits="userSpaceOnUse" x="166" y="196" width="55" height="25">
<path d="M221 198.5C208 195 166 197 166 197C166 197 170 219 193.5 220.5C212.5 220.5 220.241 204.949 221 198.5Z" fill="#6A2950"/>
</mask>
<g mask="url(#mask5)">
<path d="M193.5 216C190 210.5 182 210 179.5 216L178.5 218.5L191 222.5L207.5 219.5C207.667 218.666 206.9 216.1 202.5 212.5C198.1 208.9 193.333 210.666 191.5 212C191.333 211.666 191.5 212 193.5 216Z" fill="#E096C3"/>
</g>
<path d="M82 139.6C82 136.24 82 134.56 82.654 133.276C83.2292 132.147 84.1471 131.229 85.2761 130.654C86.5595 130 88.2397 130 91.6 130H109.4C112.76 130 114.44 130 115.724 130.654C116.853 131.229 117.771 132.147 118.346 133.276C119 134.56 119 136.24 119 139.6V182.4C119 185.76 119 187.44 118.346 188.724C117.771 189.853 116.853 190.771 115.724 191.346C114.44 192 112.76 192 109.4 192H91.6C88.2397 192 86.5595 192 85.2761 191.346C84.1471 190.771 83.2292 189.853 82.654 188.724C82 187.44 82 185.76 82 182.4V139.6Z" fill="#E8F0F4"/>
<path fill-rule="evenodd" clip-rule="evenodd" d="M109.4 134H91.6C89.8538 134 88.7848 134.003 87.9849 134.068C87.6123 134.099 87.3869 134.137 87.25 134.169C87.1849 134.185 87.1448 134.198 87.1232 134.205C87.1024 134.213 87.092 134.218 87.092 134.218C86.7157 134.41 86.4097 134.716 86.218 135.092C86.218 135.092 86.2127 135.102 86.2053 135.123C86.1976 135.145 86.1847 135.185 86.1694 135.25C86.1371 135.387 86.0989 135.612 86.0685 135.985C86.0031 136.785 86 137.854 86 139.6V180.4C86 182.146 86.0031 183.215 86.0685 184.015C86.0989 184.388 86.1371 184.613 86.1694 184.75C86.1847 184.815 86.1976 184.855 86.2053 184.877C86.2127 184.898 86.218 184.908 86.218 184.908C86.4097 185.284 86.7157 185.59 87.092 185.782C87.092 185.782 87.1024 185.787 87.1232 185.795C87.1448 185.802 87.1849 185.815 87.25 185.831C87.3869 185.863 87.6123 185.901 87.9849 185.932C88.7848 185.997 89.8538 186 91.6 186H109.4C111.146 186 112.215 185.997 113.015 185.932C113.388 185.901 113.613 185.863 113.75 185.831C113.815 185.815 113.855 185.802 113.877 185.795C113.889 185.79 113.897 185.787 113.901 185.785C113.905 185.783 113.908 185.782 113.908 185.782C114.284 185.59 114.59 185.284 114.782 184.908C114.782 184.908 114.787 184.898 114.795 184.877C114.802 184.855 114.815 184.815 114.831 184.75C114.863 184.613 114.901 184.388 114.932 184.015C114.997 183.215 115 182.146 115 180.4V139.6C115 137.854 114.997 136.785 114.932 135.985C114.901 135.612 114.863 135.387 114.831 135.25C114.815 135.185 114.802 135.145 114.795 135.123C114.787 135.102 114.782 135.092 114.782 135.092C114.59 134.716 114.284 134.41 113.908 134.218C113.908 134.218 113.898 134.213 113.877 134.205C113.855 134.198 113.815 134.185 113.75 134.169C113.613 134.137 113.388 134.099 113.015 134.068C112.215 134.003 111.146 134 109.4 134ZM82.654 133.276C82 134.56 82 136.24 82 139.6V182.4C82 185.76 82 187.44 82.654 188.724C83.2292 189.853 84.1471 190.771 85.2761 191.346C86.5595 192 88.2397 192 91.6 192H109.4C112.76 192 114.44 192 115.724 191.346C116.853 190.771 117.771 189.853 118.346 188.724C119 187.44 119 185.76 119 182.4V139.6C119 136.24 119 134.56 118.346 133.276C117.771 132.147 116.853 131.229 115.724 130.654C114.44 130 112.76 130 109.4 130H91.6C88.2397 130 86.5595 130 85.2761 130.654C84.1471 131.229 83.2292 132.147 82.654 133.276Z" fill="#234456"/>
<circle cx="100.5" cy="160.5" r="7.5" fill="#51A200"/>
<path d="M96 160L100 164L104 156" stroke="white" stroke-width="2" stroke-linejoin="round"/>
<path d="M76.9465 149.138C77.6564 144.163 85.715 143.085 88.3374 146.793C90.2673 149.522 89.308 153.726 87.2763 155.285C84.7366 157.235 76.2366 154.112 76.9465 149.138Z" fill="#BA6598"/>
<path d="M93.1766 180.716C98.1988 180.551 106.547 190.198 103.35 193.424C100.998 195.799 95.66 196.016 93.7713 194.286C91.4105 192.124 88.1543 180.881 93.1766 180.716Z" fill="#BA6598"/>
</svg>
