<svg width="239" height="216" viewBox="0 0 239 216" fill="none" xmlns="http://www.w3.org/2000/svg">
<g clip-path="url(#clip0)">
<ellipse cx="118.907" cy="203.478" rx="85.5" ry="12.5" fill="#EAEAEA"/>
<path d="M67.149 2.78893C74.0472 20.618 58.0481 32.2529 74.4677 36.0514C76.1715 40.8371 65.2208 48.4743 58.8785 37.4573C49.0961 20.4647 62.6407 17.0258 63.0353 4.64458C63.11 2.30391 66.3039 0.604854 67.149 2.78893Z" fill="#BA6598"/>
<path d="M163.275 12.6271C170.47 17.7588 174.384 29.4758 161.811 36.9569C157.497 42.6681 157.95 57.8888 173.41 47.5264C189.283 36.8874 178.052 11.4085 163.473 8.59861C161.876 8.29082 161.951 11.6827 163.275 12.6271Z" fill="#BA6598"/>
<path d="M22.7991 131.648C26.9176 113.692 43.6034 104.737 49.3658 103.33L62.6949 120.861C51.9489 122.498 37.7201 118.264 27.9132 132.843C26.1156 135.516 22.0791 134.788 22.7991 131.648Z" fill="#BA6598"/>
<path d="M185.119 92.0371L180.286 97.0264C211.134 109.771 197.71 89.0031 219.441 92.7636C224.874 93.7037 226.273 83.8347 221.712 83.539C197.89 81.9949 200.221 110.174 185.119 92.0371Z" fill="#BA6598"/>
<path d="M3.38687 94.9258C11.7694 106.374 26.0258 108.388 42.8126 104.577C44.1985 98.9595 45.9527 85.5843 41.3385 91.0091C36.7552 96.3977 20.6823 96.6 7.71002 90.9278C4.92533 89.7102 1.59129 92.4737 3.38687 94.9258Z" fill="#BA6598"/>
<path d="M187.769 121.011C184.158 116.455 175.267 129.332 191.414 122.939C199.736 119.643 207.04 122.122 215.099 127.13L217.47 117.498C208.829 114.53 200.117 114.624 187.769 121.011Z" fill="#BA6598"/>
<path d="M232.907 74.4775L206.907 141.478L199.907 70.4775C199.907 70.4775 203.407 75.0743 216.407 76.4775C229.407 77.8808 232.907 74.4775 232.907 74.4775Z" fill="#F0E0A7"/>
<mask id="mask0" mask-type="alpha" maskUnits="userSpaceOnUse" x="199" y="70" width="34" height="72">
<path d="M232.907 74.4775L206.907 141.478L199.907 70.4775C199.907 70.4775 203.407 75.0743 216.407 76.4775C229.407 77.8808 232.907 74.4775 232.907 74.4775Z" fill="#DEC673"/>
</mask>
<g mask="url(#mask0)">
<path d="M201.407 73.4775L223.907 90.4775" stroke="#E3C763" stroke-width="4" stroke-linecap="round" stroke-linejoin="round"/>
<path d="M201.407 83.4775L223.907 100.478" stroke="#E3C763" stroke-width="4" stroke-linecap="round" stroke-linejoin="round"/>
<path d="M201.407 93.4775L223.907 110.478" stroke="#E3C763" stroke-width="4" stroke-linecap="round" stroke-linejoin="round"/>
<path d="M201.407 103.478L223.907 120.478" stroke="#E3C763" stroke-width="4" stroke-linecap="round" stroke-linejoin="round"/>
<path d="M201.407 113.478L223.907 130.478" stroke="#E3C763" stroke-width="4" stroke-linecap="round" stroke-linejoin="round"/>
<path d="M211.907 101.978C204.907 99.9775 203.907 68.4775 203.907 68.4775L196.407 70.4775L201.907 139.978L207.907 144.978L234.407 73.4775L226.907 74.9775C226.907 74.9775 221.789 104.801 211.907 101.978Z" fill="#9A7952"/>
</g>
<path d="M235.907 62.4775C237.407 74.9775 225.044 77.5338 215.407 76.4775C205.51 75.3928 195.55 69.9775 198.407 57.4775C202.408 39.9776 224.707 39.9775 223.907 27.9775C227.717 31.6442 234.543 41.7775 231.372 52.9775C233.529 54.8915 235.358 57.8981 235.907 62.4775Z" fill="white"/>
<mask id="mask1" mask-type="alpha" maskUnits="userSpaceOnUse" x="197" y="27" width="40" height="50">
<path d="M235.907 62.4775C237.407 74.9775 225.044 77.5338 215.407 76.4775C205.51 75.3928 195.55 69.9775 198.407 57.4775C202.408 39.9776 224.707 39.9775 223.907 27.9775C227.717 31.6442 234.543 41.7775 231.372 52.9775C233.529 54.8915 235.358 57.8981 235.907 62.4775Z" fill="white"/>
</mask>
<g mask="url(#mask1)">
<path d="M224.907 29.4775C225.741 34.3109 226.907 45.1775 224.907 49.9775L236.407 54.4775L235.907 32.9775L224.907 29.4775Z" fill="#D7F0F9"/>
<path d="M235.907 59.4775C235.907 60.051 235.827 60.6098 235.675 61.152L233.407 77.4775H215.907L195.407 68.4775C196.574 58.1442 198.807 41.4775 198.407 57.4775C197.93 76.56 232.502 72.4285 235.675 61.152L235.907 59.4775Z" fill="#D7F0F9"/>
</g>
<path d="M223.907 49.9775C225.805 49.9775 228.818 50.7121 231.372 52.9775M231.372 52.9775C233.529 54.8915 235.358 57.8981 235.907 62.4775C237.407 74.9775 225.044 77.5338 215.407 76.4775C205.51 75.3928 195.55 69.9775 198.407 57.4775C202.408 39.9776 224.707 39.9775 223.907 27.9775C227.717 31.6442 234.543 41.7775 231.372 52.9775Z" stroke="#91C0CF" stroke-width="4" stroke-linecap="round" stroke-linejoin="round"/>
<path d="M221.407 42.4775C223.407 41.6775 224.574 40.8109 224.907 40.4775" stroke="#EA34D8" stroke-width="2" stroke-linecap="round" stroke-linejoin="round"/>
<path d="M217.459 56.3685C218.477 54.4701 218.814 53.0563 218.855 52.5867" stroke="#EA34D8" stroke-width="2" stroke-linecap="round" stroke-linejoin="round"/>
<path d="M213.416 64.4619C215.109 65.794 216.443 66.371 216.898 66.493" stroke="#EA34D8" stroke-width="2" stroke-linecap="round" stroke-linejoin="round"/>
<path d="M216.696 48.7798C215.26 47.1741 214.047 46.3742 213.619 46.1749" stroke="#19A0DA" stroke-width="2" stroke-linecap="round" stroke-linejoin="round"/>
<path d="M231.707 62.1886C229.877 63.3237 228.878 64.3798 228.608 64.766" stroke="#19A0DA" stroke-width="2" stroke-linecap="round" stroke-linejoin="round"/>
<path d="M212.707 55.1886C210.877 56.3237 209.878 57.3798 209.608 57.766" stroke="#19A0DA" stroke-width="2" stroke-linecap="round" stroke-linejoin="round"/>
<path d="M204.737 68.1582C204.669 66.0052 204.254 64.6124 204.054 64.1852" stroke="#19A0DA" stroke-width="2" stroke-linecap="round" stroke-linejoin="round"/>
<path d="M231.054 53.796C228.946 54.2366 227.646 54.8875 227.26 55.1579" stroke="#F29B18" stroke-width="2" stroke-linecap="round" stroke-linejoin="round"/>
<path d="M224.839 70.3746C224.398 68.2661 223.747 66.9667 223.477 66.5805" stroke="#F29B18" stroke-width="2" stroke-linecap="round" stroke-linejoin="round"/>
<path d="M206.459 54.3685C207.477 52.4701 207.814 51.0563 207.855 50.5867" stroke="#F29B18" stroke-width="2" stroke-linecap="round" stroke-linejoin="round"/>
<path d="M175.591 74.2119C178.204 98.5011 193.389 111.592 218.828 101.889C220.469 101.264 222.073 102.8 221.103 104.263C210.987 119.521 181.587 106.67 173.261 134.167C166.121 157.745 186.351 168.739 184.155 196.88C184.023 198.568 181.934 199.238 180.708 198.07C152.335 171.036 86.4691 165.353 54.6448 198.492C53.4254 199.761 51.2204 199.068 51.1254 197.31C49.4498 166.286 70.0303 155.535 62.2668 131.853C56.4616 114.145 33.6781 98.9889 15.8606 119.261C14.4055 120.916 11.6195 119.752 12.4217 117.699C21.8838 93.4833 50.0287 98.0069 56.5065 74.0859C62.7673 50.966 33.8548 34.024 46.6781 12.6356C47.8718 10.6448 51.268 12.9269 51.0332 15.2362C50.0326 25.0773 56.2409 32.5442 66.1125 32.928C80.1019 33.4718 97.1446 19.6234 120.135 20.5171C140.146 21.295 157.998 36.2865 168.632 34.4115C180.095 32.3904 183.382 25.9712 181.992 17.6633C181.622 15.4488 184.462 13.7264 185.698 15.6012C200.988 38.8004 173.13 51.3283 175.591 74.2119Z" fill="#F5B9DD"/>
<path d="M217.354 87.1153C218.064 82.1407 226.122 81.0625 228.745 84.7705C230.674 87.4994 229.715 91.7035 227.684 93.263C225.144 95.2124 216.644 92.0898 217.354 87.1153Z" fill="#BA6598"/>
<path d="M205.613 125.919C206.323 120.944 217.272 114.399 219.894 118.107C221.824 120.836 221.111 126.131 219.08 127.69C216.54 129.639 204.903 130.894 205.613 125.919Z" fill="#BA6598"/>
<mask id="mask2" mask-type="alpha" maskUnits="userSpaceOnUse" x="12" y="11" width="210" height="189">
<path d="M175.591 74.2119C178.204 98.5011 193.389 111.592 218.828 101.889C220.469 101.264 222.073 102.8 221.103 104.263C210.987 119.521 181.587 106.67 173.261 134.167C166.121 157.745 186.351 168.739 184.155 196.88C184.023 198.568 181.934 199.238 180.708 198.07C152.335 171.036 86.4691 165.353 54.6448 198.492C53.4254 199.761 51.2204 199.068 51.1254 197.31C49.4498 166.286 70.0303 155.535 62.2668 131.853C56.4616 114.145 33.6781 98.9889 15.8606 119.261C14.4055 120.916 11.6195 119.752 12.4217 117.699C21.8838 93.4833 50.0287 98.0069 56.5065 74.0859C62.7673 50.966 33.8548 34.024 46.6781 12.6356C47.8718 10.6448 51.268 12.9269 51.0332 15.2362C50.0326 25.0773 56.2409 32.5442 66.1125 32.928C80.1019 33.4718 97.1446 19.6234 120.135 20.5171C140.146 21.295 157.998 36.2865 168.632 34.4115C180.095 32.3904 183.382 25.9712 181.992 17.6633C181.622 15.4488 184.462 13.7264 185.698 15.6012C200.988 38.8004 173.13 51.3284 175.591 74.2119Z" fill="#F7BEED"/>
</mask>
<g mask="url(#mask2)">
<path d="M177.063 9.72488C176.661 17.8604 193.653 2.99589 187.162 18.9054C187.791 40.6828 172.331 50.0609 158.164 48.8409C144.328 47.6495 140.425 39.3241 122.461 34.9013C96.0828 28.4066 73.6261 45.0195 52.3394 26.9052C53.6397 17.4417 55.9921 9.59891 56.4864 -0.395055C57.455 -19.9772 85.5217 16.9785 119.17 18.6429C152.818 20.3072 178.032 -9.85729 177.063 9.72488Z" fill="#FFD9F0"/>
<path d="M32.9894 109.679C55.9955 99.8958 66.9616 80.4537 58.5002 54.1686L9.71481 112.188C9.80431 114.613 14.5845 117.506 32.9894 109.679Z" fill="#FFD9F0"/>
<path d="M221.27 95.7891C227.355 101.75 231.745 103.908 209.326 112.931C195.037 118.681 173.138 109.329 170.695 94.1506C164.571 56.0824 201.098 50.1428 193.13 26.0388L221.498 23.7547L221.27 95.7891Z" fill="#FFD9F0"/>
<path d="M164.842 186.942C173.985 166.536 156.851 156.653 168.766 131.266L186.233 200.448L164.842 186.942Z" fill="#FFD9F0"/>
<path d="M83.9873 161.885C90.4828 160.601 99.7398 169.712 103.556 174.427C84.479 186.38 47.2118 207.517 50.7618 196.444C55.1993 182.604 75.8681 163.491 83.9873 161.885Z" fill="#FFD9F0"/>
<path d="M122.75 56.7362C143.365 59.0877 176.835 81.7591 161.522 106.31C149.493 111.09 156.906 100.538 119.406 98.4775C83.9065 96.5271 85.3693 118.702 76.1328 101.764C64.7805 80.9464 102.176 54.3893 122.75 56.7362Z" fill="#FFD9F0"/>
</g>
<path d="M120.106 24.8719C114.559 24.708 114.5 16.2435 120.072 16.162C136.875 15.9163 149.506 29.841 165.338 32.2083C182.312 34.7463 181.645 18.1159 176.337 7.76749C175.317 5.77968 177.949 4.90819 179.732 6.32103C183.78 9.52855 184.926 14.2497 184.238 20.0064C183.523 25.9905 180.615 31.7672 176.274 34.042C158.986 43.1009 137.753 25.3935 120.106 24.8719ZM178.117 9.26062C173.25 6.69596 178.465 3.18018 185.292 10.8592C190.676 16.9147 194.494 24.6075 193.67 32.8862C192.363 45.9987 181.959 55.9638 180.149 68.8707C176.372 95.8095 199.249 108.901 221.943 97.7489C224.666 96.4111 227.142 100.192 224.76 102.11C220.702 105.379 212.156 106.708 207.075 107.309C193.865 108.872 182.491 103.031 176.261 91.2386C166.228 72.2485 174.949 52.1699 183.325 43.4888C192.009 34.4893 189.394 15.2032 178.117 9.26062ZM220.086 100.96C221.714 97.0974 226.353 97.9203 225.209 101.66C224.272 104.721 220.381 110.85 215.25 114.174C204.42 121.188 184.656 121.166 178.713 133.826C169.428 153.608 189.895 179.622 187.651 201.465C187.257 205.301 181.993 206.471 180.142 203.004C177.813 198.644 181.171 191.517 178.527 178.905C175.266 163.35 164.991 154.741 167.411 138.045C171.815 107.662 202.823 118.154 216.413 105.344C218.163 103.695 219.008 103.519 220.086 100.96ZM186.784 198.616C189.233 201.766 185.938 206.349 182.171 204.828C168.839 199.443 165.039 191.177 145.83 187.151C115.854 180.869 77.2166 181.446 54.4451 204.751C51.5118 207.754 46.3273 204.661 47.7534 200.646C52.6764 186.785 74.6093 176.118 87.365 171.938C120.857 160.963 164.355 169.768 186.784 198.616ZM55.4865 201.292C56.1658 205.531 50.3731 207.798 48.1069 204.075C46.0248 200.654 47.4177 193.328 47.7939 189.475C49.5584 171.399 64.2403 152.215 58.1982 134.266C50.0908 110.183 25.3974 109.442 12.2546 129.342C10.6083 131.835 6.57637 130.292 7.10928 127.318C8.1698 121.399 15.0499 114.166 19.6935 110.678C30.6012 102.483 45.0552 103.768 55.1811 112.642C85.2091 138.958 50.5871 170.722 55.4865 201.292ZM12.6914 128.081C12.3592 131.206 7.74798 131.483 7.1207 128.372C5.87463 122.193 11.9854 112.506 15.7096 107.959C25.6634 95.8041 45.3758 92.6217 51.5451 77.4771C63.2905 48.6439 17.5136 28.7221 55.0163 0.347279C56.0045 -0.400372 57.4618 -0.142864 58.1114 0.922064C59.8853 3.83017 51.0628 10.5824 49.5312 13.2675C44.6136 21.8889 47.5459 30.3574 51.8098 38.5336C55.0652 44.776 58.6642 50.9318 60.3643 57.8311C69.9678 96.8055 16.2642 94.4754 12.6914 128.081ZM54.5113 0.904679C54.6601 0.671551 54.2261 2.61335 54.4511 2.45167C57.343 0.374128 59.3688 1.67681 56.474 5.53257C52.4589 10.8806 50.279 25.3095 60.3918 29.5748C73.4512 35.0829 102.841 15.9344 120.124 16.1616C124.901 16.2244 126.118 23.0993 121.524 24.6447C127.649 20.3084 136.181 32.5211 119.226 47.5019C121.242 31.9027 113.999 23.9268 103.637 26.0215C89.3327 28.9132 41.1378 49.2985 49.7539 12.0529C50.6719 8.08447 52.3208 4.33526 54.5113 0.904679Z" fill="#E096C3"/>
<path d="M76.7843 153.855C84.9328 159.257 98.4104 166.249 119.732 166.676C138.39 167.05 152.256 161.475 158.694 158.234C160.253 157.449 162.028 158.764 161.255 160.33C157.4 168.139 145.788 177.57 119.349 176.542C93.3551 175.532 79.8532 164.566 74.4331 155.788C73.4313 154.166 75.1952 152.801 76.7843 153.855Z" fill="#E096C3"/>
<path d="M84.7235 79.824C99.136 62.6821 138.535 64.3851 152.098 80.3788C164.154 94.5963 163.907 115.84 151.689 130.003C142.744 140.37 131.601 139.585 117.715 139.164C103.387 138.73 95.2051 140.309 84.3148 129.448C71.1687 116.337 72.4811 94.3849 84.7235 79.824Z" fill="#E096C3"/>
<path d="M88.6738 83.4031C101.147 69.9427 135.275 71.307 147.033 83.8836C157.486 95.0636 157.286 111.757 146.712 122.877C136.714 133.392 97.335 130.524 88.3526 122.396C76.9569 112.085 78.0791 94.8367 88.6738 83.4031Z" fill="white"/>
<mask id="mask3" mask-type="alpha" maskUnits="userSpaceOnUse" x="80" y="73" width="75" height="57">
<path d="M88.6738 83.4031C101.147 69.9427 135.275 71.307 147.033 83.8836C157.486 95.0636 157.286 111.757 146.712 122.877C136.714 133.392 97.335 130.524 88.3526 122.396C76.9569 112.085 78.0791 94.8367 88.6738 83.4031Z" fill="#E8E8E8"/>
</mask>
<g mask="url(#mask3)">
<path d="M118.304 120.634C91.9019 114.984 79.6423 107.759 83.3038 90.6466L65.5017 116.494L103.431 132.791L131.858 133.76L161.153 121.11C160.137 109.132 157.567 88.6407 155.42 102.498C152.737 119.82 137.862 124.818 118.304 120.634Z" fill="#F0F0F0"/>
</g>
<mask id="mask4" mask-type="alpha" maskUnits="userSpaceOnUse" x="87" y="90" width="34" height="29">
<path d="M120.279 102.177C120.171 115.241 103.693 118.492 103.693 118.492C103.693 118.492 87.3773 115.241 87.3773 101.906C87.4521 92.8201 96.7363 85.8017 103.964 94.2489C110.59 85.8019 120.354 93.0911 120.279 102.177Z" fill="#BA6598"/>
</mask>
<g mask="url(#mask4)">
<rect x="82.8818" y="85.8018" width="43.2934" height="39.8299" fill="#BA6598"/>
<circle cx="113.262" cy="93.5867" r="7.7928" transform="rotate(0.471941 113.262 93.5867)" fill="#F5B9DD"/>
</g>
<path d="M114.013 62.1251C102.317 62.3813 92.5911 66.9115 85.3182 75.3825C83.0818 77.9872 78.7464 76.5312 80.2627 73.4511C83.2236 67.4367 87.3644 63.0275 91.8133 59.7956C91.8133 59.7956 91.8133 59.7956 91.8134 59.7956C95.3162 57.2257 92.977 53.7258 90.4952 55.1934C90.3061 55.333 90.1163 55.4751 89.9259 55.6199C87.864 57.1878 85.7263 59.0652 83.4467 61.34C81.373 63.5758 80.3854 61.4875 81.4387 59.301C85.6519 50.5546 94.6635 45.3248 102.115 42.2495C109.566 39.1742 113.528 46.0893 105.83 48.0742C103.036 48.7945 100.413 49.6512 97.8079 50.8453C95.4145 52.0436 96.8596 56.3045 100.264 55.0278C105.866 52.6185 111.105 51.6243 114.292 51.2162C116.009 50.9965 117.395 52.3974 117.328 54.1266L117.133 59.154C117.068 60.8096 115.67 62.0888 114.013 62.1251Z" fill="#BA6598"/>
<path d="M153.105 77.9956C147.468 71.1345 139.599 65.551 129.667 63.4741C128.159 63.1587 127.036 61.8359 127.096 60.2964L127.307 54.8548C127.379 53.0051 129.082 51.6998 130.843 52.2724C137.489 54.4342 152.142 60.7753 158.833 76.0798C160.214 79.238 155.294 80.6588 153.105 77.9956Z" fill="#BA6598"/>
<circle cx="79.0925" cy="81.3807" r="2.5" transform="rotate(13.8318 79.0925 81.3807)" fill="#BA6598"/>
<circle cx="159.134" cy="82.5496" r="2.5" transform="rotate(13.8318 159.134 82.5496)" fill="#BA6598"/>
<circle cx="161.823" cy="88.3611" r="2.5" transform="rotate(13.8318 161.823 88.3611)" fill="#BA6598"/>
<circle cx="71.7514" cy="117.991" r="5" transform="rotate(13.8318 71.7514 117.991)" fill="#E096C3"/>
<circle cx="157.528" cy="123.962" r="2.5" transform="rotate(13.8318 157.528 123.962)" fill="#E096C3"/>
<circle cx="163.086" cy="118.121" r="2.5" transform="rotate(13.8318 163.086 118.121)" fill="#E096C3"/>
<circle cx="164.565" cy="124.664" r="2.5" transform="rotate(13.8318 164.565 124.664)" fill="#E096C3"/>
<path d="M87.407 144.478L87.4069 144.478C89.9067 165.477 99.9067 172.477 119.407 172.477C138.907 172.477 147.907 152.977 147.907 145.977C133.407 144.478 107.407 144.478 87.407 144.478Z" fill="#FFD9F0"/>
<path d="M118.907 168.977C95.9072 168.977 87.4072 155.477 86.4072 137.977C107.574 136.644 149.807 135.277 149.407 140.477C148.907 146.977 141.907 168.977 118.907 168.977Z" fill="#BA6598"/>
<path d="M144.407 142.478C131.407 138.978 89.4072 140.978 89.4072 140.978C89.4072 140.978 93.4072 162.978 116.907 164.478C135.907 164.478 143.649 148.926 144.407 142.478Z" fill="#6A2950"/>
<mask id="mask5" mask-type="alpha" maskUnits="userSpaceOnUse" x="89" y="140" width="56" height="25">
<path d="M144.407 142.478C131.407 138.978 89.4072 140.978 89.4072 140.978C89.4072 140.978 93.4072 162.978 116.907 164.478C135.907 164.478 143.649 148.926 144.407 142.478Z" fill="#6A2950"/>
</mask>
<g mask="url(#mask5)">
<path d="M116.907 159.977C113.407 154.477 105.407 153.977 102.907 159.977L101.907 162.477L114.407 166.477L130.907 163.477C131.074 162.644 130.307 160.077 125.907 156.477C121.507 152.877 116.741 154.644 114.907 155.977C114.741 155.644 114.907 155.977 116.907 159.977Z" fill="#E096C3"/>
</g>
<path d="M5.40723 83.5775C5.40723 80.2172 5.40723 78.5371 6.06119 77.2536C6.63643 76.1246 7.55431 75.2067 8.68328 74.6315C9.96675 73.9775 11.6469 73.9775 15.0072 73.9775H32.8072C36.1675 73.9775 37.8477 73.9775 39.1312 74.6315C40.2601 75.2067 41.178 76.1246 41.7533 77.2536C42.4072 78.5371 42.4072 80.2172 42.4072 83.5775V126.378C42.4072 129.738 42.4072 131.418 41.7533 132.701C41.178 133.83 40.2601 134.748 39.1312 135.324C37.8477 135.978 36.1675 135.978 32.8072 135.978H15.0072C11.6469 135.978 9.96675 135.978 8.68328 135.324C7.55431 134.748 6.63643 133.83 6.06119 132.701C5.40723 131.418 5.40723 129.738 5.40723 126.378V83.5775Z" fill="#E8F0F4"/>
<path fill-rule="evenodd" clip-rule="evenodd" d="M32.8072 77.9775H15.0072C13.2611 77.9775 12.192 77.9806 11.3922 78.046C11.0196 78.0764 10.7941 78.1147 10.6572 78.1469C10.5921 78.1623 10.552 78.1751 10.5304 78.1828C10.5096 78.1903 10.4992 78.1955 10.4992 78.1955C10.1229 78.3873 9.81696 78.6932 9.62521 79.0696C9.62521 79.0696 9.61995 79.0799 9.61253 79.1007C9.6048 79.1224 9.59195 79.1624 9.57661 79.2275C9.54437 79.3644 9.50613 79.5899 9.47569 79.9625C9.41034 80.7623 9.40723 81.8314 9.40723 83.5775V124.378C9.40723 126.124 9.41034 127.193 9.47569 127.993C9.50613 128.365 9.54437 128.591 9.57661 128.728C9.59195 128.793 9.6048 128.833 9.61253 128.854C9.61995 128.875 9.62521 128.886 9.62521 128.886C9.81696 129.262 10.1229 129.568 10.4992 129.76C10.4992 129.76 10.5096 129.765 10.5304 129.772C10.552 129.78 10.5921 129.793 10.6572 129.808C10.7941 129.84 11.0196 129.879 11.3922 129.909C12.192 129.974 13.2611 129.978 15.0072 129.978H32.8072C34.5534 129.978 35.6224 129.974 36.4223 129.909C36.7949 129.879 37.0203 129.84 37.1572 129.808C37.2224 129.793 37.2624 129.78 37.2841 129.772C37.2958 129.768 37.3037 129.765 37.3087 129.763C37.3125 129.761 37.3152 129.76 37.3152 129.76C37.6915 129.568 37.9975 129.262 38.1892 128.886C38.1892 128.886 38.1945 128.875 38.2019 128.854C38.2097 128.833 38.2225 128.793 38.2378 128.728C38.2701 128.591 38.3083 128.365 38.3388 127.993C38.4041 127.193 38.4072 126.124 38.4072 124.378V83.5775C38.4072 81.8314 38.4041 80.7623 38.3388 79.9625C38.3083 79.5899 38.2701 79.3644 38.2378 79.2275C38.2225 79.1624 38.2097 79.1224 38.2019 79.1007C38.1945 79.0799 38.1892 79.0696 38.1892 79.0696C37.9975 78.6932 37.6915 78.3873 37.3152 78.1955C37.3152 78.1955 37.3049 78.1903 37.2841 78.1828C37.2624 78.1751 37.2224 78.1623 37.1572 78.1469C37.0203 78.1147 36.7949 78.0764 36.4223 78.046C35.6224 77.9806 34.5534 77.9775 32.8072 77.9775ZM6.06119 77.2536C5.40723 78.5371 5.40723 80.2172 5.40723 83.5775V126.378C5.40723 129.738 5.40723 131.418 6.06119 132.701C6.63643 133.83 7.55431 134.748 8.68328 135.324C9.96675 135.978 11.6469 135.978 15.0072 135.978H32.8072C36.1675 135.978 37.8477 135.978 39.1312 135.324C40.2601 134.748 41.178 133.83 41.7533 132.701C42.4072 131.418 42.4072 129.738 42.4072 126.378V83.5775C42.4072 80.2172 42.4072 78.5371 41.7533 77.2536C41.178 76.1246 40.2601 75.2067 39.1312 74.6315C37.8477 73.9775 36.1675 73.9775 32.8072 73.9775H15.0072C11.6469 73.9775 9.96675 73.9775 8.68328 74.6315C7.55431 75.2067 6.63643 76.1246 6.06119 77.2536Z" fill="#234456"/>
<circle cx="23.9072" cy="104.478" r="7.5" fill="#51A200"/>
<path d="M19.4072 103.978L23.4072 107.978L27.4072 99.9775" stroke="white" stroke-width="2" stroke-linejoin="round"/>
<path d="M0.353729 93.1153C1.06359 88.1407 9.1222 87.0625 11.7446 90.7705C13.6745 93.4994 12.7153 97.7035 10.6835 99.263C8.14382 101.212 -0.356128 98.0898 0.353729 93.1153Z" fill="#BA6598"/>
<path d="M16.5838 124.694C21.606 124.529 29.9537 134.175 26.7575 137.402C24.4053 139.776 19.0672 139.994 17.1785 138.264C14.8177 136.101 11.5616 124.859 16.5838 124.694Z" fill="#BA6598"/>
</g>
<defs>
<clipPath id="clip0">
<rect width="239" height="216" fill="white"/>
</clipPath>
</defs>
</svg>
