<svg width="220" height="218" viewBox="0 0 220 218" fill="none" xmlns="http://www.w3.org/2000/svg">
<g clip-path="url(#clip0)">
<ellipse cx="109.742" cy="205.781" rx="85.5" ry="12.5" fill="#EAEAEA"/>
<path d="M54.0303 2.85897C61.4712 20.4685 45.8358 32.5877 62.3639 35.8818C64.2135 40.6131 53.5016 48.582 46.825 37.7643C36.5271 21.0791 49.96 17.2272 49.9755 4.83968C49.9784 2.49783 53.1188 0.701785 54.0303 2.85897Z" fill="#BA6598"/>
<path d="M150.412 9.7497C157.762 14.6588 162.032 26.2504 149.694 34.113C145.557 39.9535 146.475 55.1532 161.611 44.3224C177.151 33.2025 165.145 8.07938 150.487 5.71707C148.882 5.4583 149.06 8.84635 150.412 9.7497Z" fill="#BA6598"/>
<path d="M30.8179 160.774C8.21294 139.917 15.3749 116.592 39.3324 103.898L53.1919 121.012C25.8942 123.603 24.3079 138.896 34.7761 156.826C36.4824 159.748 33.3051 163.069 30.8179 160.774Z" fill="#BA6598"/>
<path d="M174.678 88.4538L170 93.5887C206.743 116.781 186.742 61.2814 175.742 61.2815C170.229 61.2815 169.397 67.8096 173.242 70.2815C187.242 79.2817 190.328 106.119 174.678 88.4538Z" fill="#BA6598"/>
<path d="M1.11842 96.9046C9.84749 108.09 24.1589 109.667 40.8211 105.344C42.0344 99.6871 43.3784 86.2644 38.9324 91.8279C34.5161 97.3543 18.457 98.0486 5.31715 92.7761C2.49649 91.6443 -0.751383 94.5086 1.11842 96.9046Z" fill="#BA6598"/>
<path d="M177.742 113.281C173.993 108.838 165.799 129.166 181.743 122.281C189.509 118.928 196.44 136.205 191.69 154.997C191.315 156.479 192.593 157.911 194.093 157.611L194.667 157.497C195.337 157.363 195.902 156.874 196.142 156.235C210.868 117.144 189.781 106.578 177.742 113.281Z" fill="#BA6598"/>
<path d="M172.917 12.0359C188.91 34.7561 161.448 48.131 164.609 70.9285C167.085 88.7815 189.242 95.2815 182.242 132.782C180.332 143.012 170.242 153.782 166.742 156.244C171.163 166.657 177.697 176.997 176.923 193.287C176.843 194.978 174.776 195.702 173.515 194.572C144.328 168.419 78.3187 164.756 47.5239 198.853C46.3439 200.159 44.12 199.545 43.971 197.791C42.2719 177.792 50.1152 165.964 53.5986 153.782C27.2422 135.282 19.7422 124.281 45.5762 74.4481C51.1263 51.1474 21.7087 35.0985 33.8713 13.3275C35.0034 11.3011 38.4679 13.4782 38.3039 15.7936C37.6051 25.6607 44.039 32.9341 53.9178 33.0154C67.9173 33.1308 84.528 18.7671 107.535 18.9566C127.56 19.1215 145.863 33.5595 156.435 31.3598C167.83 28.9888 170.919 22.472 169.276 14.2105C168.838 12.0083 171.624 10.1998 172.917 12.0359Z" fill="#F5B9DD"/>
<path d="M166.717 65.6707C167.274 60.6768 175.296 59.3523 178.031 62.9783C180.043 65.6468 179.213 69.8784 177.23 71.4993C174.751 73.5255 166.16 70.6647 166.717 65.6707Z" fill="#BA6598"/>
<mask id="mask0" mask-type="alpha" maskUnits="userSpaceOnUse" x="29" y="11" width="155" height="189">
<path d="M164.609 70.9285C167.851 94.3111 180.365 106.195 182.447 108.029C182.644 108.203 182.804 108.396 182.887 108.646C183.503 110.515 185.095 119.738 166.972 140.281C160.797 147.281 163.61 148.988 166.972 156.781C171.386 167.015 177.683 177.277 176.923 193.287C176.843 194.978 174.776 195.702 173.515 194.572C144.327 168.419 78.3185 164.756 47.5236 198.853C46.3437 200.159 44.1395 199.547 44.0271 197.791C42.6059 175.562 53.9175 152.616 53.9175 152.616C53.9175 152.616 43.269 152.616 31.4086 133.55C31.3 133.376 31.214 133.17 31.1647 132.971C23.3448 101.282 39.1618 101.376 45.5759 74.4482C51.1261 51.1475 21.7084 35.0985 33.871 13.3276C35.0031 11.3012 38.4676 13.4783 38.3036 15.7937C37.6048 25.6607 44.0387 32.9341 53.9175 33.0155C67.917 33.1308 84.5278 18.7671 107.535 18.9567C127.56 19.1216 145.863 33.5595 156.435 31.3599C167.83 28.9888 170.919 22.472 169.276 14.2106C168.838 12.0084 171.624 10.1999 172.917 12.036C188.91 34.7562 161.448 48.1311 164.609 70.9285Z" fill="#F7BEED"/>
</mask>
<g mask="url(#mask0)">
<path d="M164.107 6.42639C163.953 14.5704 180.483 -0.80731 174.481 15.2934C175.777 37.0413 160.611 46.8884 146.414 46.1027C132.548 45.3354 128.391 37.1333 110.301 33.2625C83.7359 27.5784 61.7983 44.871 39.9671 27.4168C40.977 17.918 43.0882 10.0069 43.2764 0.00244877C43.645 -19.6002 72.8299 16.479 106.513 17.1125C140.197 17.746 164.475 -13.1763 164.107 6.42639Z" fill="#FFD9F0"/>
<path d="M32.2422 130.281C25.7422 103.281 72.2422 101.781 46.9597 54.4791L-0.0267421 113.965C0.136955 116.386 36.9233 149.726 32.2422 130.281Z" fill="#FFD9F0"/>
<path d="M68.2422 143.281C58.7422 140.281 47.4597 131.598 46.9597 118.281C45.4597 129.098 47.1833 146.984 68.2422 151.281C89.301 155.579 80.162 147.046 68.2422 143.281Z" fill="#FFD9F0"/>
<path d="M173.741 116.781C177.741 129.781 166.241 147.282 149.241 150.282C144.408 148.615 136.141 142.281 145.741 142.281C157.741 142.281 175.741 131.281 173.741 116.781Z" fill="#FFD9F0"/>
<path d="M82.2422 152.281C63.7422 144.781 48.2422 136.781 46.7422 117.281C47.056 118.028 48.2148 117.377 48.7422 118.281C49.7422 126.709 58.7422 139.771 82.2422 144.781C98.8757 148.328 91.9839 156.231 82.2422 152.281Z" fill="#E096C3"/>
<path d="M138.186 149.281C153.742 145.781 177.242 135.281 173.686 116.281C173.372 117.028 172.213 116.377 171.686 117.281C171.686 129.781 161.242 137.781 138.186 141.781C121.429 144.688 127.93 151.589 138.186 149.281Z" fill="#E096C3"/>
<path d="M160.742 89.2814C153.454 51.4188 189.367 46.0896 180.664 22.2409L208.95 19.0894C208.95 19.0894 174.335 53.1019 165.242 81.7813C170.242 91.0075 182.242 99.7813 182.242 116.281C170.242 97.7813 162.527 98.5552 160.742 89.2814Z" fill="#FFD9F0"/>
<path d="M157.315 183.935L179.11 196.779L167.27 155.282L157.639 158.782C159.489 166.606 161.427 173.95 157.315 183.935Z" fill="#FFD9F0"/>
<path d="M75.7318 161.365C82.1848 159.882 91.7164 168.705 95.6756 173.302C76.973 185.833 40.3704 208.101 43.5798 196.925C47.5915 182.955 67.6655 163.218 75.7318 161.365Z" fill="#FFD9F0"/>
<path d="M132.612 139.278C116.27 143.962 99.892 144.037 84.7692 138.244L87.4594 142.399L97.7633 149.206L113.234 150.982L130.379 144.936L132.612 139.278Z" fill="#FFD9F0"/>
<path d="M151.529 103.442C122.036 116.221 82.3662 129.385 66.0409 101.513C54.0567 81.0522 90.6217 53.3628 111.257 55.0787C131.935 56.7981 166.084 78.4342 151.529 103.442Z" fill="#FFD9F0"/>
</g>
<path fill-rule="evenodd" clip-rule="evenodd" d="M115.542 24.2436C118.144 28.0126 117.736 36.295 107.453 45.9568C108.99 30.3032 101.506 22.5527 91.2133 24.9637C88.9691 25.4893 85.8932 26.4771 82.3338 27.6201C63.6307 33.6261 31.5772 43.9193 36.6798 13.9911C32.12 22.7158 35.3018 31.0512 39.7936 39.0565C40.2937 39.9479 40.801 40.8372 41.3087 41.7272C44.2982 46.9677 47.3016 52.2327 48.9348 58.0832C53.0148 72.6996 46.2644 86.6908 40.0552 99.5604C29.8403 120.732 21.09 138.869 64.4348 151.759C67.447 152.655 67.6035 160.456 64.4348 160.282C61.245 160.106 58.233 159.617 55.407 158.855C54.7404 161.265 54.0202 163.689 53.2974 166.121C50.9232 174.11 48.5215 182.192 47.9058 190.194C56.5647 181.407 70.3205 174.602 79.4161 171.31C109.299 160.494 147.808 165.504 172.173 187.232C172.14 183.95 171.858 180.072 170.749 175.483C169.316 169.558 166.883 164.687 164.536 159.986C163.588 158.087 162.654 156.216 161.805 154.315L168.801 151.498C170.052 156.873 172.02 162.386 173.995 167.919C177.608 178.038 181.244 188.225 180.559 197.753C180.474 198.942 179.915 199.891 179.126 200.534C178.134 201.431 176.712 201.845 175.184 201.282C169.939 199.348 166.12 196.934 162.276 194.504C156.234 190.685 150.129 186.826 138.32 184.726C108.165 179.365 69.5634 181.124 47.516 205.116C46.6945 206.01 45.6691 206.4 44.6581 206.404C43.3676 206.498 42.037 205.98 41.1602 204.634C39.3341 201.831 39.8486 196.229 40.218 192.209C40.2907 191.417 40.3579 190.686 40.4003 190.05C40.8623 183.134 43.2001 175.998 45.5483 168.831C46.8814 164.762 48.218 160.683 49.2164 156.628C32.0939 148.8 23.7515 129.899 26.7426 112.15C27.9141 105.198 30.5528 99.9279 33.6841 93.6745C35.8984 89.2524 38.3589 84.3385 40.7211 77.99C45.2203 65.8982 39.8931 55.6385 34.7165 45.6689C27.4012 31.5802 20.3867 18.071 41.8296 0.789963C42.7944 0.0124122 44.2588 0.225195 44.9407 1.26974C45.6567 2.36655 44.8242 4.07943 43.4457 5.92768C43.4456 5.92785 43.4455 5.92803 43.4453 5.9282C39.5958 11.3967 37.8586 25.8855 48.0973 29.8392C55.4417 32.6754 67.5897 27.7529 79.9006 22.7644C89.7481 18.774 99.6999 14.7414 107.381 14.6039C116.643 14.1975 124.768 18.1379 132.864 22.0638C139.424 25.2452 145.965 28.4172 153.075 29.2587C170.119 31.2759 168.943 14.6737 163.32 4.49269C162.24 2.53703 164.844 1.58536 166.67 2.94296C166.923 3.13144 167.166 3.32591 167.398 3.52626C168.827 4.17929 170.531 5.36747 172.366 7.30875C177.933 13.1966 181.985 20.7689 181.414 29.069C180.949 35.8346 178.049 41.8408 175.152 47.8433C172.419 53.5043 169.688 59.1621 169.002 65.4506C167.888 75.6538 170.507 83.7703 175.401 89.2862L169.149 92.803C167.925 91.323 166.804 89.6961 165.799 87.927C155.19 69.253 163.292 48.9168 171.399 39.9833C177.94 32.7761 177.45 19.5514 171.512 11.4033C171.736 12.9798 171.753 14.6785 171.593 16.484C171.061 22.4872 168.331 28.3502 164.062 30.7568C153.608 36.6493 141.354 32.4739 129.361 28.3877C124.674 26.7905 120.026 25.2069 115.542 24.2436Z" fill="#E096C3"/>
<path d="M169.242 92.7815C188.242 118.281 187.242 145.781 150.242 154.782C133.075 161.781 109.042 179.281 150.242 165.281C201.742 147.781 183.742 100.281 175.242 89.2815L169.242 92.7815Z" fill="#E096C3"/>
<path d="M68.2863 153.558C76.5964 158.709 90.2817 165.285 111.607 165.059C130.267 164.861 143.956 158.865 150.291 155.428C151.826 154.595 153.64 155.857 152.916 157.445C149.302 165.368 137.984 175.15 111.525 174.932C85.513 174.718 71.6817 164.171 65.9954 155.563C64.9445 153.973 66.6657 152.554 68.2863 153.558Z" fill="#E096C3"/>
<path d="M75.5585 79.1285C89.971 61.9866 129.37 63.6895 142.933 79.6832C154.989 93.9007 154.742 115.145 142.524 129.307C133.579 139.675 122.436 138.889 108.55 138.469C94.2221 138.035 86.04 139.613 75.1497 128.752C62.0037 115.641 63.3161 93.6893 75.5585 79.1285Z" fill="#E096C3"/>
<path d="M79.5098 82.7073C91.9824 69.2469 126.111 70.6112 137.869 83.1878C148.322 94.3678 148.122 111.061 137.548 122.181C127.55 132.696 88.171 129.828 79.1885 121.701C67.7928 111.389 68.9151 94.1409 79.5098 82.7073Z" fill="white"/>
<mask id="mask1" mask-type="alpha" maskUnits="userSpaceOnUse" x="71" y="73" width="75" height="56">
<path d="M79.5088 82.7073C91.9815 69.2469 126.11 70.6112 137.868 83.1878C148.321 94.3678 148.121 111.061 137.547 122.181C127.549 132.696 88.17 129.828 79.1876 121.701C67.7919 111.389 68.9141 94.1409 79.5088 82.7073Z" fill="#E8E8E8"/>
</mask>
<g mask="url(#mask1)">
<path d="M109.139 119.938C82.7368 114.289 70.4772 107.064 74.1388 89.9511L56.3366 115.798L94.2663 132.095L122.693 133.064L151.988 120.414C150.972 108.436 148.402 87.9452 146.255 101.803C143.572 119.125 128.697 124.123 109.139 119.938Z" fill="#F0F0F0"/>
</g>
<mask id="mask2" mask-type="alpha" maskUnits="userSpaceOnUse" x="99" y="106" width="20" height="20">
<circle cx="109.337" cy="115.659" r="9.5" transform="rotate(0.471941 109.337 115.659)" fill="#BA6598"/>
</mask>
<g mask="url(#mask2)">
<circle cx="109.337" cy="115.659" r="9.5" transform="rotate(0.471941 109.337 115.659)" fill="#BA6598"/>
<circle cx="114.785" cy="109.777" r="4.5" transform="rotate(0.471941 114.785 109.777)" fill="#F5B9DD"/>
</g>
<path d="M102.689 60.7326C91.0065 61.3468 81.4237 66.1726 74.4134 74.8622C72.2578 77.5342 67.8799 76.2116 69.3012 73.0865C72.0766 66.9843 76.0805 62.4505 80.4283 59.0839C80.4284 59.0838 80.4284 59.0838 80.4284 59.0838C83.8509 56.4079 81.4057 52.9812 78.97 54.5242C78.7852 54.6695 78.5999 54.8173 78.414 54.9679C76.401 56.5981 74.3218 58.5401 72.113 60.8837C70.1087 63.1819 69.0576 61.1248 70.0435 58.907C73.9869 50.0358 82.8342 44.5326 90.1879 41.2306C97.5415 37.9286 101.713 44.7192 94.0797 46.9388C91.3094 47.7443 88.7132 48.6809 86.1461 49.9542C83.7906 51.2252 85.3654 55.4399 88.7287 54.0596C94.2548 51.4799 99.4608 50.3258 102.634 49.8203C104.343 49.5481 105.772 50.906 105.758 52.6364L105.716 57.6674C105.702 59.3242 104.344 60.6456 102.689 60.7326Z" fill="#BA6598"/>
<path d="M142.249 75.399C136.404 68.7137 128.368 63.3737 118.376 61.6018C116.86 61.3327 115.697 60.0449 115.71 58.5043L115.754 53.0587C115.77 51.2077 117.432 49.8509 119.209 50.3694C125.918 52.3267 140.759 58.2162 147.915 73.3087C149.392 76.4231 144.518 77.9939 142.249 75.399Z" fill="#BA6598"/>
<path d="M125.7 144.193C115.742 146.73 103.742 146.73 93.7082 144.29C93.7082 144.29 91.7179 143.753 91.6803 145.752C94.1279 150.332 97.564 150.739 110.403 150.739C123.242 150.739 124.912 151.493 127.652 146.73C127.69 144.73 125.7 144.193 125.7 144.193Z" fill="#BA6598"/>
<circle cx="68.3747" cy="81.0478" r="2.5" transform="rotate(12.0775 68.3747 81.0478)" fill="#BA6598"/>
<circle cx="148.414" cy="79.7663" r="2.5" transform="rotate(12.0775 148.414 79.7663)" fill="#BA6598"/>
<circle cx="151.279" cy="85.4927" r="2.5" transform="rotate(12.0775 151.279 85.4927)" fill="#BA6598"/>
<circle cx="144.661" cy="140.322" r="2.5" transform="rotate(12.0775 144.661 140.322)" fill="#E096C3"/>
<circle cx="150.037" cy="134.313" r="2.5" transform="rotate(12.0775 150.037 134.313)" fill="#E096C3"/>
<rect x="63.2422" y="119.281" width="90" height="60" rx="6" fill="#849294"/>
<rect x="63.2422" y="115.281" width="90" height="60" rx="6" fill="#D0DEE0"/>
<path d="M65.2422 125.281C65.2422 123.072 67.033 121.281 69.2422 121.281H147.242C149.451 121.281 151.242 123.072 151.242 125.281V169.281C151.242 171.491 149.451 173.281 147.242 173.281H69.2422C67.033 173.281 65.2422 171.491 65.2422 169.281V125.281Z" stroke="#EBF5F7" stroke-width="4"/>
<rect x="65.2422" y="117.281" width="86" height="56" rx="4" stroke="#849294" stroke-width="4"/>
<rect x="100.242" y="138.281" width="16" height="16" rx="8" fill="#BAC9CB"/>
</g>
<defs>
<clipPath id="clip0">
<rect width="220" height="218" fill="white"/>
</clipPath>
</defs>
</svg>
