<svg width="236" height="102" viewBox="0 0 236 102" fill="none" xmlns="http://www.w3.org/2000/svg">
<path fill-rule="evenodd" clip-rule="evenodd" d="M171.522 23.9057C174.173 23.9057 176.227 24.9054 177.684 26.9048C179.17 28.9042 179.913 31.7149 179.913 35.3369C179.913 38.901 179.184 41.6538 177.728 43.5952C176.3 45.5367 174.246 46.5073 171.565 46.5073C169.817 46.5073 168.316 46.0149 167.064 45.0295C165.84 44.0442 164.951 42.6969 164.398 40.9873L164.136 46.0727H155.308V15.6475H165.359V27.9914C165.942 26.7165 166.743 25.7168 167.763 24.9923C168.783 24.2679 170.036 23.9057 171.522 23.9057ZM167.501 39.5095C168.258 39.5095 168.826 39.2053 169.205 38.5968C169.584 37.9593 169.774 36.8292 169.774 35.2065C169.774 33.5839 169.584 32.4683 169.205 31.8597C168.826 31.2512 168.258 30.947 167.501 30.947C166.772 30.947 166.234 31.2802 165.884 31.9467C165.534 32.6131 165.359 33.6418 165.359 35.0327V35.3804C165.359 36.8292 165.534 37.8868 165.884 38.5533C166.262 39.1908 166.802 39.5095 167.501 39.5095Z" fill="url(#paint0_linear)"/>
<path d="M114.285 46.5071C121.685 46.5071 126.129 43.4356 127.615 37.2926L118.612 34.989C118.437 36.3798 118.044 37.3795 117.432 37.988C116.82 38.5965 115.829 38.9008 114.46 38.9008C112.945 38.9008 111.823 38.3213 111.095 37.1622C110.366 36.0031 110.002 34.1921 110.002 31.7291C110.002 29.2661 110.381 27.4551 111.138 26.2961C111.896 25.137 113.032 24.5575 114.547 24.5575C115.829 24.5575 116.776 24.8617 117.388 25.4702C118 26.0787 118.422 27.2668 118.655 29.0343L127.396 25.6441C126.814 22.7175 125.328 20.5443 122.938 19.1244C120.549 17.6756 117.665 16.9512 114.285 16.9512C111.255 16.9512 108.633 17.5307 106.418 18.6898C104.233 19.8488 102.543 21.5439 101.349 23.7751C100.183 25.9773 99.6006 28.6287 99.6006 31.7291C99.6006 34.8296 100.183 37.4954 101.349 39.7266C102.543 41.9288 104.233 43.6093 106.418 44.7685C108.633 45.9277 111.255 46.5071 114.285 46.5071Z" fill="url(#paint1_linear)"/>
<path fill-rule="evenodd" clip-rule="evenodd" d="M154.001 40.5522C153.768 40.6681 153.404 40.7261 152.909 40.7261C151.918 40.7261 151.423 40.132 151.423 38.944V32.859C151.423 29.8454 150.49 27.5998 148.626 26.122C146.79 24.6442 143.935 23.9053 140.06 23.9053C136.563 23.9053 133.883 24.6007 132.018 25.9916C130.153 27.3534 129.105 29.2804 128.872 31.7724L137.175 33.0328C137.204 32.0476 137.423 31.3667 137.831 30.99C138.239 30.5843 138.792 30.3815 139.492 30.3815C140.132 30.3815 140.613 30.5698 140.934 30.9465C141.283 31.3232 141.458 31.8448 141.458 32.5113V33.3806L137.132 34.3368C134.072 35.0032 131.887 35.887 130.576 36.9881C129.265 38.0603 128.609 39.5091 128.609 41.3346C128.609 43.0152 129.163 44.3045 130.27 45.2029C131.377 46.0722 133.067 46.5069 135.34 46.5069C137.263 46.5069 138.865 46.1883 140.147 45.5506C141.458 44.8843 142.449 43.9859 143.119 42.8558C143.527 44.0437 144.328 44.9565 145.523 45.5941C146.717 46.2026 148.203 46.5069 149.98 46.5069C151.146 46.5069 152.224 46.2169 153.215 45.6376L154.001 40.5522ZM140.934 40.5522C140.584 40.8999 140.132 41.0738 139.579 41.0738C139.142 41.0738 138.777 40.9434 138.486 40.6826C138.195 40.4218 138.049 40.0451 138.049 39.5525C138.049 39.002 138.224 38.5384 138.574 38.1617C138.923 37.756 139.404 37.4662 140.016 37.2924L141.458 36.8577V38.944C141.458 39.6395 141.283 40.1755 140.934 40.5522Z" fill="url(#paint2_linear)"/>
<path d="M193.153 39.3791C192.891 38.9735 192.76 38.3215 192.76 37.4232V15.6475H182.708V38.9445C182.708 41.6683 183.291 43.6095 184.456 44.7687C185.622 45.9279 187.559 46.5073 190.269 46.5073C191.26 46.5073 192.279 46.3769 193.328 46.1161C194.377 45.8553 195.164 45.522 195.688 45.1164L196.125 39.7268C195.601 39.8717 195.076 39.9442 194.552 39.9442C193.882 39.9442 193.415 39.7558 193.153 39.3791Z" fill="url(#paint3_linear)"/>
<path fill-rule="evenodd" clip-rule="evenodd" d="M220.504 34.5106C220.504 35.6117 220.431 36.481 220.285 37.1185H206.387C206.533 38.1906 206.839 38.915 207.305 39.2917C207.771 39.6684 208.471 39.8568 209.403 39.8568C210.831 39.8568 211.705 39.2338 212.025 37.9878L220.11 40.161C219.615 42.2473 218.391 43.8264 216.439 44.8987C214.516 45.9709 212.171 46.5069 209.403 46.5069C205.265 46.5069 202.119 45.5363 199.963 43.5947C197.836 41.6533 196.772 38.8571 196.772 35.2061C196.772 31.613 197.821 28.8312 199.919 26.8609C202.046 24.8905 205.032 23.9053 208.878 23.9053C212.637 23.9053 215.507 24.8615 217.488 26.7739C219.498 28.6864 220.504 31.2653 220.504 34.5106ZM208.922 30.5119C208.165 30.5119 207.582 30.7292 207.174 31.1639C206.766 31.5985 206.504 32.3519 206.387 33.424H211.107C211.02 32.4388 210.801 31.7144 210.452 31.2508C210.131 30.7582 209.621 30.5119 208.922 30.5119Z" fill="url(#paint4_linear)"/>
<path d="M110.57 62.8499H114.11C115.392 62.8499 116.295 63.0529 116.819 63.4584C117.373 63.8639 117.65 64.545 117.65 65.5012C117.65 66.4866 117.373 67.182 116.819 67.5875C116.295 67.9644 115.392 68.1526 114.11 68.1526H100.518V84.3214H110.482V74.8026H113.279L118.393 84.3214H129.45L122.632 73.716C126.099 72.2674 127.833 69.4422 127.833 65.2404C127.833 62.0532 126.842 59.6626 124.861 58.0688C122.909 56.4463 120.01 55.6348 116.164 55.6348H110.57C97.5125 55.6348 90.8914 60.3633 84.5534 64.8897C78.5879 69.1501 72.8728 73.2314 62.2772 73.0206C54.9206 74.1798 44.6209 76.4978 62.2772 76.4978C72.9304 76.4978 78.6451 73.3179 84.5578 70.0281C90.894 66.5022 97.4574 62.8499 110.57 62.8499Z" fill="url(#paint5_linear)"/>
<path fill-rule="evenodd" clip-rule="evenodd" d="M205.762 84.3212V53.896H195.711V66.2399C195.128 64.9651 194.326 63.9654 193.307 63.2409C192.287 62.5163 191.034 62.1543 189.548 62.1543C186.897 62.1543 184.828 63.154 183.342 65.1533C181.885 67.1527 181.157 69.9636 181.157 73.5855C181.157 77.1496 181.871 79.9022 183.299 81.8437C184.755 83.7853 186.824 84.7559 189.505 84.7559C191.136 84.7559 192.535 84.3356 193.7 83.4954C194.865 82.6552 195.769 81.496 196.41 80.0182L196.716 84.3212H205.762ZM195.142 76.8018C194.793 77.4395 194.268 77.7581 193.569 77.7581C192.811 77.7581 192.243 77.4538 191.865 76.8453C191.486 76.2077 191.296 75.0776 191.296 73.4551C191.296 71.8325 191.486 70.7168 191.865 70.1083C192.243 69.4998 192.811 69.1955 193.569 69.1955C194.297 69.1955 194.836 69.5289 195.186 70.1952C195.536 70.8615 195.711 71.8903 195.711 73.2812V73.6289C195.711 75.0776 195.521 76.1355 195.142 76.8018Z" fill="url(#paint6_linear)"/>
<path fill-rule="evenodd" clip-rule="evenodd" d="M153.535 75.3675C153.681 74.7299 153.754 73.8606 153.754 72.7597C153.754 69.5142 152.748 66.9354 150.738 65.023C148.756 63.1105 145.887 62.1543 142.128 62.1543C138.282 62.1543 135.296 63.1396 133.169 65.1099C131.071 67.0801 130.022 69.8619 130.022 73.4551C130.022 77.1061 131.086 79.9022 133.213 81.8438C135.369 83.7853 138.515 84.7559 142.653 84.7559C145.421 84.7559 147.766 84.22 149.689 83.1477C151.641 82.0754 152.865 80.4963 153.36 78.41L145.275 76.2368C144.954 77.483 144.08 78.1058 142.653 78.1058C141.72 78.1058 141.021 77.9176 140.555 77.5408C140.089 77.1639 139.783 76.4398 139.637 75.3675H153.535ZM140.424 69.4129C140.832 68.9782 141.414 68.7609 142.172 68.7609C142.871 68.7609 143.381 69.0074 143.702 69.4998C144.051 69.9636 144.27 70.6877 144.357 71.673H139.637C139.754 70.6008 140.016 69.8475 140.424 69.4129Z" fill="url(#paint7_linear)"/>
<path fill-rule="evenodd" clip-rule="evenodd" d="M179.626 78.9751C180.122 78.9751 180.486 78.9173 180.719 78.8012L179.932 83.8866C178.942 84.466 177.863 84.7559 176.698 84.7559C174.921 84.7559 173.435 84.4516 172.241 83.8431C171.046 83.2055 170.245 82.2927 169.837 81.1049C169.166 82.2349 168.176 83.1334 166.865 83.7997C165.583 84.4373 163.98 84.7559 162.058 84.7559C159.785 84.7559 158.095 84.3212 156.988 83.4519C155.88 82.5535 155.327 81.2644 155.327 79.5836C155.327 77.7581 155.983 76.3094 157.294 75.2371C158.605 74.1362 160.79 73.2521 163.849 72.5858L168.176 71.6296V70.7603C168.176 70.094 168.001 69.5724 167.652 69.1956C167.331 68.8187 166.85 68.6305 166.209 68.6305C165.51 68.6305 164.956 68.8335 164.549 69.239C164.14 69.6159 163.922 70.2965 163.893 71.2819L155.589 70.0214C155.822 67.5296 156.871 65.6023 158.736 64.2406C160.6 62.8497 163.281 62.1543 166.778 62.1543C170.652 62.1543 173.508 62.8932 175.343 64.371C177.208 65.8488 178.141 68.0946 178.141 71.108V77.193C178.141 78.3809 178.636 78.9751 179.626 78.9751ZM166.297 79.3228C166.85 79.3228 167.302 79.149 167.652 78.8012C168.001 78.4244 168.176 77.8885 168.176 77.193V75.1067L166.734 75.5414C166.122 75.7152 165.641 76.0052 165.292 76.4107C164.942 76.7875 164.767 77.2509 164.767 77.8015C164.767 78.294 164.913 78.6708 165.204 78.9316C165.495 79.1924 165.86 79.3228 166.297 79.3228Z" fill="url(#paint8_linear)"/>
<path d="M227.437 81.8871C226.447 84.8136 225.369 87.1172 224.203 88.798C223.038 90.5075 221.639 91.7393 220.008 92.4925C218.376 93.2749 216.366 93.666 213.977 93.666C211.267 93.666 209.024 93.1879 207.246 92.2317L209.082 85.9293C209.548 86.1901 210.058 86.3783 210.612 86.4944C211.165 86.6104 211.952 86.6682 212.972 86.6682C213.904 86.6682 214.589 86.5813 215.026 86.4075C215.492 86.2336 215.812 85.9293 215.987 85.4947L216.118 85.147L213.365 78.7577L207.115 62.5889H218.085L220.052 73.8027L220.882 78.8881L221.843 73.7593L224.029 62.5889H233.862L227.437 81.8871Z" fill="url(#paint9_linear)"/>
<path d="M31.4668 21.2978C60.598 15.9121 81.0705 31.7293 88.2816 13.0396L90.9038 14.5608C82.8187 34.1199 62.715 21.5389 43.0483 24.5577C66.8668 26.5453 73.331 38.6837 75.8261 52.8096C78.6668 68.8915 75.6076 93.9232 50.6964 98.4474C25.7853 102.972 10.0232 86.4947 4.15197 67.153C-1.32347 49.1152 2.33587 26.6836 31.4668 21.2978Z" fill="#99DFF5"/>
<path d="M72.8853 42.4425C71.6397 40.1018 70.1586 37.9623 68.4397 36.1005C55.8496 22.4638 28.321 21.6167 15.6861 35.8247C-8.41767 62.9296 26.1526 111.473 58.3315 91.2107C75.233 80.5684 76.7627 50.038 62.2972 36.6262C54.2207 29.1383 43.278 27.6659 34.0188 30.6583C29.671 32.0635 25.1656 33.5904 21.7253 36.6328C2.20506 53.8955 18.0351 89.2935 43.8079 87.009C57.412 85.8029 65.3254 75.0232 65.6086 61.893C65.7192 56.7759 64.9517 51.1759 62.6735 46.5148C60.5661 42.2037 56.2713 41.1274 57.6489 42.4516C77.1547 61.1971 50.6982 100.86 24.9775 78.7125C10.2793 66.056 11.9863 47.2363 23.1631 38.1637C32.05 30.95 45.327 27.9975 57.4819 35.3014C85.926 52.3938 63.6149 111.538 25.5926 87.6914C8.34576 76.8744 2.89119 48.6137 19.1471 34.4427C27.2018 27.421 39.2694 26.1266 49.4719 28.0206C54.7509 29.0006 59.8694 31.0913 64.0051 34.5471C79.3185 47.3432 79.3097 79.0632 64.5492 92.343C64.1258 92.7237 63.6913 93.0893 63.2469 93.4396C76.6027 84.1773 78.093 65.6435 75.8261 52.8093C75.1841 49.1761 74.2799 45.6742 72.8853 42.4425Z" fill="#D9F6FF"/>
<path d="M5.59715 71.3396C5.06278 69.9639 4.58099 68.5661 4.15197 67.1526C1.90637 59.7549 1.19724 51.6179 3.15154 44.2211C10.942 22.3222 36.2831 19.5687 56.2573 21.6489C57.8923 21.8193 59.6518 22.0776 61.4764 22.3455C71.4041 23.8031 83.2701 25.5454 87.6335 14.9515C88.255 13.443 89.7667 14.6882 87.6781 18.0905C86.0147 20.7995 83.7535 22.6941 80.7401 23.7574C74.8768 25.8263 67.789 24.731 61.2911 23.7269C59.1789 23.4006 57.1292 23.0838 55.2045 22.8885C30.8109 20.4137 1.84153 27.4976 3.01634 57.6365C3.19741 62.2815 4.13563 66.9175 5.59715 71.3396Z" fill="#D9F6FF"/>
<path d="M57.6487 40.7133C56.2711 39.3891 60.5659 40.4654 62.6733 44.7765C64.9515 49.4376 65.719 55.0376 65.6084 60.1547C65.3252 73.2849 57.4118 84.0645 43.8077 85.2707C18.0349 87.5552 2.20483 52.1572 21.725 34.8945C25.1654 31.8521 29.6708 30.3252 34.0186 28.92C43.2778 25.9276 54.2205 27.3999 62.297 34.8878C76.7625 48.2997 75.2328 78.8301 58.3313 89.4724C26.1524 109.735 -8.4179 61.1913 15.6859 34.0864C21.0925 28.0067 29.2261 24.6837 37.7494 23.9398C37.7673 23.9285 37.7854 23.9171 37.8036 23.9057C47.2048 22.1833 55.8594 23.3396 63.4145 24.349C75.8783 26.0141 85.3503 27.2796 90.2481 14.5608C90.7503 13.2568 91.8538 13.9088 91.3407 15.2128C87.2557 31.0126 70.5972 28.1345 56.82 25.7542C54.623 25.3746 52.4995 25.0077 50.5118 24.7312C57.4913 26.228 63.9254 29.4731 68.4395 34.3622C80.424 47.3431 80.8457 73.8221 70.5155 87.8877C58.4742 104.283 32.8048 104.402 17.7734 92.0238C4.09469 80.7591 -2.83593 59.4762 3.11545 42.5845C10.8637 20.5925 36.2521 17.8272 56.2571 19.9107C57.8921 20.081 59.6516 20.3393 61.4762 20.6072C71.404 22.0648 83.27 23.8071 87.6333 13.2132C88.2548 11.7047 89.7665 12.9499 87.6779 16.3522C86.0145 19.0612 83.7533 20.9558 80.7399 22.0191C74.8767 24.088 67.7888 22.9927 61.2909 21.9886C59.1787 21.6623 57.129 21.3455 55.2043 21.1503C30.8107 18.6754 1.84135 25.7593 3.01615 55.8982C3.22202 61.1796 4.40661 66.4488 6.22625 71.4055C8.43128 77.4123 11.7855 83.0305 16.391 87.5247C20.371 91.4087 25.2159 94.3639 30.5041 96.1234C41.6361 99.8274 55.578 98.6756 64.549 90.6047C79.3095 77.3249 79.3183 45.6049 64.0049 32.8088C59.8692 29.353 54.7507 27.2623 49.4717 26.2823C39.2692 24.3882 27.2015 25.6827 19.1469 32.7044C2.89097 46.8754 8.34553 75.136 25.5924 85.9531C63.6146 109.799 85.9258 50.6555 57.4817 33.5631C45.3268 26.2592 32.0498 29.2117 23.1629 36.4254C11.9861 45.498 10.279 64.3177 24.9773 76.9742C50.698 99.122 77.1545 59.4588 57.6487 40.7133Z" fill="#478EA5"/>
<path d="M23.2178 48.7324C27.8097 40.136 44.8029 37.2767 52.0616 42.841C58.5145 47.7875 60.3514 56.839 56.425 63.9694C53.6629 68.9852 49.0915 69.8088 43.4395 70.8276L43.43 70.8289C43.2029 70.8702 42.974 70.9115 42.7435 70.9533C41.9105 71.1045 41.1289 71.261 40.3861 71.4096C35.6324 72.3619 32.4649 72.9965 27.5808 69.861C20.7638 65.4837 19.3173 56.0345 23.2178 48.7324Z" fill="#478EA5"/>
<path d="M25.2333 49.8945C29.3328 43.0391 44.0429 40.5152 50.2178 44.7913C55.7074 48.5923 57.1483 55.7057 53.6464 61.3939C50.3354 66.7718 33.2436 69.1345 28.6616 66.4966C22.8487 63.1507 21.751 55.7174 25.2333 49.8945Z" fill="white"/>
<path d="M55.4928 53.6387C55.7446 56.2361 55.1528 58.9466 53.6464 61.3936C50.3354 66.7715 33.2436 69.1342 28.6616 66.4964C24.1203 63.8824 22.4569 58.774 23.6068 53.8873C23.826 61.1411 29.724 63.0235 41.3005 63.0235C49.3621 63.0235 55.0073 60.0658 55.4928 53.6387Z" fill="#F0F0F0"/>
<path d="M54.0859 38.6271C49.9791 36.6323 45.2587 35.7959 39.8054 36.1942C39.1577 36.2415 38.5592 35.8299 38.3983 35.2041L38.0316 33.7773C37.8501 33.0712 38.282 32.3653 39.0081 32.2669C42.08 31.8504 49.9354 31.4539 55.6977 36.9804C56.7256 37.9663 55.3695 39.2504 54.0859 38.6271Z" fill="#1D4F5F"/>
<path d="M33.13 38.4468C28.1935 39.7703 24.5393 42.6928 22.3381 47.0237C21.6612 48.3554 19.6693 48.1916 19.9909 46.7338C21.7926 38.5702 29.094 34.9723 32.1086 33.8138C32.814 33.5427 33.5489 33.9899 33.701 34.7266L34.1433 36.8687C34.289 37.5741 33.8292 38.2593 33.13 38.4468Z" fill="#1D4F5F"/>
<path d="M43.963 55.2559C44.4241 57.4896 42.9772 59.6723 40.7311 60.1313C38.4849 60.5899 36.2901 59.1512 35.8289 56.9171C35.3676 54.6835 36.8145 52.5007 39.0606 52.0417C41.3067 51.5832 43.5015 53.0218 43.963 55.2559Z" fill="#1D4F5F"/>
<path d="M55.6251 74.4864C54.9761 73.046 53.7856 71.36 51.874 70.9428C51.4221 70.8437 51.2263 70.2225 51.6656 70.0769C52.9915 69.6375 54.4718 69.6649 55.57 70.4125C56.9716 71.8251 57.0756 72.9017 56.469 74.5025C56.3287 74.8737 55.7886 74.8485 55.6251 74.4864Z" fill="#1D4F5F"/>
<path d="M53.129 72.1074C50.6559 77.6778 39.1979 80.5569 32.5367 76.0883C32.5367 76.0883 31.637 76.041 31.8038 76.8942C33.2686 78.618 38.2787 81.9039 44.1672 80.9246C49.9221 79.9676 53.4603 75.2821 54.1954 73.0084C54.0289 72.1552 53.129 72.1074 53.129 72.1074Z" fill="#1D4F5F"/>
<path d="M34.9614 73.9366C32.5597 74.7059 30.1483 76.0937 30.3015 79.1701C30.3223 79.5883 29.853 79.8443 29.6178 79.497C28.6548 78.0761 28.4682 76.1163 29.7187 74.5416C31.0402 72.8778 33.4008 72.6292 35.0323 73.2485C35.3775 73.3794 35.3131 73.824 34.9614 73.9366Z" fill="#1D4F5F"/>
<path d="M40.0819 51.9604C41.4735 52.0213 42.7406 52.7798 43.4524 53.9529C43.1933 54.4766 42.7021 54.8804 42.0824 55.0069C41.0185 55.2242 39.9788 54.5427 39.7603 53.4843C39.6463 52.9323 39.7784 52.3868 40.0819 51.9604Z" fill="#99DFF5"/>
<path d="M86.7813 12.6375L92.3675 15.1628C93.4833 15.6671 94.7974 15.1606 95.2804 14.0404L98.1382 7.40835C98.6097 6.31387 98.108 5.0457 97.0128 4.56446L91.5647 2.17029C90.4717 1.68989 89.1929 2.17209 88.6951 3.25263L85.6992 9.75361C85.1953 10.8471 85.6804 12.1397 86.7813 12.6375Z" fill="#D3E0E3"/>
<path d="M83.6158 64.6429L86.6427 69.9512C87.2471 71.0113 88.6098 71.3699 89.6626 70.7462L95.8943 67.0512C96.9227 66.4414 97.2662 65.1223 96.6648 64.0926L93.672 58.9707C93.0715 57.9432 91.7525 57.5859 90.7106 58.1688L84.4448 61.6768C83.3907 62.2671 83.0192 63.5962 83.6158 64.6429Z" fill="#D3E0E3"/>
<path d="M86.5335 11.9529C87.2328 10.5621 89.4473 6.01277 90.4669 3.912L98.115 7.17184V5.65058L90.4669 1.73877L88.5002 3.04271L85.0039 11.0837L86.5335 11.9529Z" fill="#EFFCFF"/>
<path d="M83.8204 63.9442C85.2084 63.2275 89.6885 60.8417 91.7553 59.7381L96.0159 66.8464L96.9149 65.6154L93.0397 57.98L90.678 57.8853L83.0967 62.3465L83.8204 63.9442Z" fill="#EFFCFF"/>
<path d="M92.7135 2.23576C93.0409 2.38991 93.1803 2.77866 93.0251 3.10407L91.0585 7.23319C90.9038 7.55861 90.5126 7.69748 90.1857 7.54331C89.8584 7.38919 89.719 7.00044 89.8737 6.67502L91.8403 2.54588C91.9955 2.22046 92.3862 2.08162 92.7135 2.23576Z" fill="#2A373A"/>
<path d="M94.4616 3.10539C94.7889 3.25954 94.9283 3.64829 94.7732 3.9737L92.8065 8.10282C92.6518 8.42824 92.2607 8.56711 91.9338 8.41294C91.6064 8.25881 91.467 7.87007 91.6217 7.54465L93.5884 3.4155C93.7435 3.09009 94.1342 2.95125 94.4616 3.10539Z" fill="#2A373A"/>
<path d="M96.5212 4.84283C96.6764 4.51745 96.537 4.12868 96.2096 3.97453C95.8823 3.82039 95.4916 3.95923 95.3364 4.28465L93.3698 8.41379C93.215 8.73921 93.3545 9.12796 93.6818 9.28208C94.0087 9.43625 94.3999 9.29738 94.5546 8.97196L96.5212 4.84283Z" fill="#2A373A"/>
<path fill-rule="evenodd" clip-rule="evenodd" d="M87.8995 2.8903C88.5966 1.37754 90.3863 0.702469 91.9168 1.37503L97.8023 4.20384C99.3355 4.87761 100.038 6.65301 99.3774 8.18531L96.0826 15.6867C95.407 17.2549 93.5666 17.964 92.0046 17.258L85.9814 14.298C84.44 13.6012 83.7608 11.7915 84.4666 10.2606L87.8995 2.8903ZM91.2105 2.96529C90.5545 2.67705 89.7875 2.96636 89.4886 3.61469L86.4927 10.1157C86.1903 10.7718 86.4814 11.5473 87.1422 11.846L92.7284 14.3713C93.3975 14.6739 94.1863 14.37 94.4761 13.6979L97.3338 7.06579C97.6166 6.40909 97.3159 5.64819 96.6586 5.35946L91.2105 2.96529Z" fill="#67777B"/>
<path fill-rule="evenodd" clip-rule="evenodd" d="M90.2821 57.4113C91.7405 56.595 93.5874 57.0949 94.4278 58.534L97.5172 64.2626C98.3594 65.7039 97.8787 67.5511 96.4386 68.4048L89.3394 72.5474C87.8661 73.421 85.958 72.919 85.1119 71.4347L81.9884 65.5192C81.1533 64.054 81.6733 62.1933 83.1488 61.367L90.2821 57.4113ZM92.9165 59.4072C92.556 58.7908 91.7645 58.5766 91.1396 58.926L86.9165 61.2905L91.2143 68.8138L95.447 66.3041C96.0641 65.9386 96.2699 65.1467 95.9094 64.529L92.9165 59.4072ZM89.7126 69.7039L85.3929 62.1433L84.8737 62.434C84.2414 62.7883 84.0185 63.5859 84.3764 64.2135L87.4033 69.5223C87.7661 70.1581 88.5838 70.3733 89.2153 69.9991L89.7126 69.7039Z" fill="#67777B"/>
<defs>
<linearGradient id="paint0_linear" x1="77.3555" y1="60.8506" x2="100.956" y2="60.8506" gradientUnits="userSpaceOnUse">
<stop stop-color="#1D4F5F"/>
<stop offset="1" stop-color="#404040"/>
</linearGradient>
<linearGradient id="paint1_linear" x1="77.3554" y1="60.8504" x2="100.955" y2="60.8504" gradientUnits="userSpaceOnUse">
<stop stop-color="#1D4F5F"/>
<stop offset="1" stop-color="#404040"/>
</linearGradient>
<linearGradient id="paint2_linear" x1="77.3554" y1="60.8502" x2="100.955" y2="60.8502" gradientUnits="userSpaceOnUse">
<stop stop-color="#1D4F5F"/>
<stop offset="1" stop-color="#404040"/>
</linearGradient>
<linearGradient id="paint3_linear" x1="77.3556" y1="60.8506" x2="100.956" y2="60.8506" gradientUnits="userSpaceOnUse">
<stop stop-color="#1D4F5F"/>
<stop offset="1" stop-color="#404040"/>
</linearGradient>
<linearGradient id="paint4_linear" x1="77.3557" y1="60.8502" x2="100.956" y2="60.8502" gradientUnits="userSpaceOnUse">
<stop stop-color="#1D4F5F"/>
<stop offset="1" stop-color="#404040"/>
</linearGradient>
<linearGradient id="paint5_linear" x1="77.355" y1="60.8505" x2="100.955" y2="60.8505" gradientUnits="userSpaceOnUse">
<stop stop-color="#1D4F5F"/>
<stop offset="1" stop-color="#404040"/>
</linearGradient>
<linearGradient id="paint6_linear" x1="77.3557" y1="60.8503" x2="100.956" y2="60.8503" gradientUnits="userSpaceOnUse">
<stop stop-color="#1D4F5F"/>
<stop offset="1" stop-color="#404040"/>
</linearGradient>
<linearGradient id="paint7_linear" x1="77.356" y1="60.8504" x2="100.956" y2="60.8504" gradientUnits="userSpaceOnUse">
<stop stop-color="#1D4F5F"/>
<stop offset="1" stop-color="#404040"/>
</linearGradient>
<linearGradient id="paint8_linear" x1="77.3557" y1="60.8504" x2="100.956" y2="60.8504" gradientUnits="userSpaceOnUse">
<stop stop-color="#1D4F5F"/>
<stop offset="1" stop-color="#404040"/>
</linearGradient>
<linearGradient id="paint9_linear" x1="77.3559" y1="60.8503" x2="100.956" y2="60.8503" gradientUnits="userSpaceOnUse">
<stop stop-color="#1D4F5F"/>
<stop offset="1" stop-color="#404040"/>
</linearGradient>
</defs>
</svg>
