<svg width="384" height="384" viewBox="0 0 384 384" fill="none" xmlns="http://www.w3.org/2000/svg">
<g clip-path="url(#clip0)">
<path d="M135.672 58.6562C134.318 57.3229 132.818 56.6562 131.172 56.6562C129.609 56.6562 128.109 57.25 126.672 58.4375C124.859 59.9375 123.609 61.875 122.922 64.25C122.672 65.1042 122.547 65.8125 122.547 66.375C122.547 66.9375 122.568 67.375 122.609 67.6875C122.609 69.75 123.307 71.3333 124.703 72.4375C126.016 73.4583 127.693 73.9688 129.734 73.9688C132.526 73.7396 135.203 72.6667 137.766 70.75C138.474 70.2083 139.224 69.6875 140.016 69.1875C140.307 69.1875 140.599 69.2292 140.891 69.3125C141.203 69.3958 141.359 69.6354 141.359 70.0312C139.297 71.8229 137.557 73.1146 136.141 73.9062C133.516 75.3229 131.141 76.0312 129.016 76.0312C128.87 76.0312 128.734 76.0312 128.609 76.0312C126.297 76.0312 124.318 75.3125 122.672 73.875C120.922 72.3542 120.047 70.4583 120.047 68.1875C120.047 66.4792 120.349 64.8438 120.953 63.2812C121.578 61.7188 122.422 60.3438 123.484 59.1562C124.568 57.9479 125.839 56.9896 127.297 56.2812C128.776 55.5729 130.359 55.2188 132.047 55.2188C133.484 55.2188 134.422 55.4167 134.859 55.8125C135.401 56.2917 135.672 57.2396 135.672 58.6562Z" fill="#404040"/>
<path d="M143.641 70.0625C143.641 67.6042 144.703 65.625 146.828 64.125C148.516 62.9375 150.547 62.2188 152.922 61.9688C153.047 61.9688 153.339 61.9688 153.797 61.9688C154.255 61.9688 154.87 62.1042 155.641 62.375C157.349 62.9583 158.516 63.9896 159.141 65.4688C159.391 66.0521 159.516 66.5521 159.516 66.9688C159.516 67.3646 159.505 67.6458 159.484 67.8125C159.484 70.4167 158.495 72.4688 156.516 73.9688C154.682 75.3438 152.391 76.0312 149.641 76.0312C147.661 76.0312 146.161 75.5729 145.141 74.6562C144.141 73.7396 143.641 72.2083 143.641 70.0625ZM145.797 70.8125C145.797 72.1042 146.141 72.9792 146.828 73.4375C147.349 73.7708 148.224 73.9375 149.453 73.9375C150.682 73.9375 151.766 73.8438 152.703 73.6562C153.641 73.4688 154.474 73.1458 155.203 72.6875C156.766 71.6875 157.547 70.1354 157.547 68.0312C157.547 66.7812 157.214 65.7604 156.547 64.9688C155.818 64.1146 154.859 63.6875 153.672 63.6875C152.859 63.8333 152.036 63.9896 151.203 64.1562C150.391 64.3229 149.62 64.6458 148.891 65.125C147.307 66.1458 146.276 68.0417 145.797 70.8125Z" fill="#404040"/>
<path d="M173.047 69.1562C173.047 66.6771 172.911 64.8542 172.641 63.6875C172.807 63.375 172.557 63.2188 171.891 63.2188C171.182 63.2188 170.266 63.3958 169.141 63.75C168.016 64.1042 167.099 64.4583 166.391 64.8125C164.703 65.625 163.766 66.4167 163.578 67.1875V75.6875H161.484C161.214 74.9792 161.078 72.9896 161.078 69.7188C161.078 66.8021 161.13 64.6562 161.234 63.2812C161.359 61.9062 161.453 61.125 161.516 60.9375C162.057 60.5833 162.495 60.4062 162.828 60.4062C163.349 60.4062 163.609 61.0208 163.609 62.25C163.609 62.7292 163.578 63.1979 163.516 63.6562C163.474 64.0938 163.453 64.3958 163.453 64.5625C166.828 62.0833 169.443 60.8438 171.297 60.8438C173.401 60.8438 174.599 62.5417 174.891 65.9375C175.016 67.125 175.078 68.7708 175.078 70.875L175.047 73.3438C175.047 74.2604 175.068 75.1458 175.109 76C174.901 76.125 174.734 76.1875 174.609 76.1875C174.547 76.1667 174.411 76.1354 174.203 76.0938C173.995 76.0521 173.724 76.0208 173.391 76C173.182 75.1667 173.068 74.3229 173.047 73.4688C173.026 72.5938 173.016 71.7917 173.016 71.0625L173.047 69.1562Z" fill="#404040"/>
<path d="M181.578 73L181.641 68C181.641 67.2083 181.568 66.5312 181.422 65.9688H176.578L176.516 63.8125H181.203V55.75C181.266 55.5625 181.391 55.375 181.578 55.1875C181.87 54.8958 182.109 54.75 182.297 54.75C182.505 54.75 182.682 54.7708 182.828 54.8125C182.974 54.8542 183.13 55 183.297 55.25C183.63 56.625 183.797 58.6979 183.797 61.4688C183.797 62.1562 183.828 62.8333 183.891 63.5C184.557 63.4167 185.224 63.375 185.891 63.375C185.891 63.375 186.432 63.375 187.516 63.375C187.911 63.375 188.276 63.3542 188.609 63.3125L188.516 65.5625L183.953 65.4375L184.109 76.2188C183.734 76.3854 183.411 76.4688 183.141 76.4688C182.099 76.4688 181.578 75.3125 181.578 73Z" fill="#404040"/>
<path d="M205.141 64.5938C204.266 63.9688 203.141 63.6562 201.766 63.6562C200.474 63.6562 199.276 63.8958 198.172 64.375C196.089 65.25 194.661 66.375 193.891 67.75C193.557 68.375 193.391 69.0417 193.391 69.75C193.391 69.875 193.391 70.2292 193.391 70.8125C193.391 71.375 193.495 72.1458 193.703 73.125C193.911 74.0833 194.016 75.0625 194.016 76.0625C193.578 76.0833 193.224 76.1354 192.953 76.2188C192.682 76.3021 192.453 76.3438 192.266 76.3438C192.078 76.3438 191.911 76.2604 191.766 76.0938C191.641 75.9271 191.495 75.6042 191.328 75.125C191.307 75 191.266 74.6458 191.203 74.0625C191.141 73.4792 191.057 72.7708 190.953 71.9375C190.87 71.1042 190.766 70.1979 190.641 69.2188C190.536 68.2188 190.432 67.2396 190.328 66.2812C190.099 64.1979 189.922 62.6667 189.797 61.6875C189.797 61.1875 190.161 60.9375 190.891 60.9375C191.328 60.9375 191.672 61.125 191.922 61.5C192.172 61.8542 192.37 62.2708 192.516 62.75C192.661 63.2083 192.755 63.6667 192.797 64.125C192.859 64.5833 192.911 64.9062 192.953 65.0938C195.703 62.6354 199.12 61.4062 203.203 61.4062C203.661 61.4062 204.141 61.4167 204.641 61.4375C204.766 61.4167 204.922 61.4062 205.109 61.4062C205.297 61.4062 205.484 61.5312 205.672 61.7812C205.901 62.0729 206.016 62.4271 206.016 62.8438C206.016 63.8854 205.724 64.4688 205.141 64.5938Z" fill="#404040"/>
<path d="M208.234 70.0625C208.234 67.6042 209.297 65.625 211.422 64.125C213.109 62.9375 215.141 62.2188 217.516 61.9688C217.641 61.9688 217.932 61.9688 218.391 61.9688C218.849 61.9688 219.464 62.1042 220.234 62.375C221.943 62.9583 223.109 63.9896 223.734 65.4688C223.984 66.0521 224.109 66.5521 224.109 66.9688C224.109 67.3646 224.099 67.6458 224.078 67.8125C224.078 70.4167 223.089 72.4688 221.109 73.9688C219.276 75.3438 216.984 76.0312 214.234 76.0312C212.255 76.0312 210.755 75.5729 209.734 74.6562C208.734 73.7396 208.234 72.2083 208.234 70.0625ZM210.391 70.8125C210.391 72.1042 210.734 72.9792 211.422 73.4375C211.943 73.7708 212.818 73.9375 214.047 73.9375C215.276 73.9375 216.359 73.8438 217.297 73.6562C218.234 73.4688 219.068 73.1458 219.797 72.6875C221.359 71.6875 222.141 70.1354 222.141 68.0312C222.141 66.7812 221.807 65.7604 221.141 64.9688C220.411 64.1146 219.453 63.6875 218.266 63.6875C217.453 63.8333 216.63 63.9896 215.797 64.1562C214.984 64.3229 214.214 64.6458 213.484 65.125C211.901 66.1458 210.87 68.0417 210.391 70.8125Z" fill="#404040"/>
<path d="M226.016 63.875C225.974 62.75 225.932 61.75 225.891 60.875C225.849 59.9792 225.818 59.3229 225.797 58.9062C225.797 58.4688 225.63 57.4167 225.297 55.75C225.484 55.5 225.661 55.2604 225.828 55.0312C226.016 54.8021 226.276 54.6875 226.609 54.6875C227.339 54.6875 227.901 57.7604 228.297 63.9062C228.505 67.4688 228.609 71.0312 228.609 74.5938C228.609 75.5521 227.943 76.0312 226.609 76.0312L226.359 76C226.359 74.9167 226.328 73.5312 226.266 71.8438C226.203 70.1562 226.151 68.6875 226.109 67.4375C226.089 66.1875 226.057 65 226.016 63.875Z" fill="#404040"/>
<path d="M231.047 63.875C231.005 62.75 230.964 61.75 230.922 60.875C230.88 59.9792 230.849 59.3229 230.828 58.9062C230.828 58.4688 230.661 57.4167 230.328 55.75C230.516 55.5 230.693 55.2604 230.859 55.0312C231.047 54.8021 231.307 54.6875 231.641 54.6875C232.37 54.6875 232.932 57.7604 233.328 63.9062C233.536 67.4688 233.641 71.0312 233.641 74.5938C233.641 75.5521 232.974 76.0312 231.641 76.0312L231.391 76C231.391 74.9167 231.359 73.5312 231.297 71.8438C231.234 70.1562 231.182 68.6875 231.141 67.4375C231.12 66.1875 231.089 65 231.047 63.875Z" fill="#404040"/>
<path d="M241.891 73.8125C243.724 73.8125 246.484 72.9792 250.172 71.3125C250.401 71.3125 250.589 71.3958 250.734 71.5625C250.88 71.7083 250.953 71.8854 250.953 72.0938C250.12 73.5104 248.526 74.6146 246.172 75.4062C243.818 76.1979 241.62 76.3333 239.578 75.8125C237.266 75.2083 235.859 73.9062 235.359 71.9062C235.318 71.5104 235.297 70.9792 235.297 70.3125C235.297 69.6458 235.464 68.7708 235.797 67.6875C236.151 66.5833 236.745 65.5417 237.578 64.5625C238.411 63.5833 239.391 62.8125 240.516 62.25C241.641 61.6875 242.839 61.4062 244.109 61.4062C245.318 61.4062 246.672 61.8229 248.172 62.6562C248.88 63.0521 249.443 63.5 249.859 64C250.276 64.5 250.484 65.0104 250.484 65.5312C250.484 65.6771 250.474 65.8229 250.453 65.9688C250.411 67.2396 249.797 68.0417 248.609 68.375C248.089 68.5208 247.484 68.5938 246.797 68.5938L242.297 68.4062C240.797 68.4062 239.651 68.7292 238.859 69.375C238.401 69.7292 238.078 70.2604 237.891 70.9688C238.411 72.8646 239.745 73.8125 241.891 73.8125ZM247.453 64.1562C246.995 63.8229 246.516 63.5833 246.016 63.4375C245.516 63.2917 245.099 63.2188 244.766 63.2188C244.432 63.2188 243.891 63.3333 243.141 63.5625C242.391 63.7708 241.724 64.0104 241.141 64.2812C239.703 64.9479 238.984 65.6458 238.984 66.375C240.651 66.5208 241.901 66.5938 242.734 66.5938C245.047 66.5938 246.609 66.3958 247.422 66C247.922 65.7917 248.172 65.5312 248.172 65.2188C248.172 64.8438 247.932 64.4896 247.453 64.1562Z" fill="#404040"/>
<path d="M268.172 64.5938C267.297 63.9688 266.172 63.6562 264.797 63.6562C263.505 63.6562 262.307 63.8958 261.203 64.375C259.12 65.25 257.693 66.375 256.922 67.75C256.589 68.375 256.422 69.0417 256.422 69.75C256.422 69.875 256.422 70.2292 256.422 70.8125C256.422 71.375 256.526 72.1458 256.734 73.125C256.943 74.0833 257.047 75.0625 257.047 76.0625C256.609 76.0833 256.255 76.1354 255.984 76.2188C255.714 76.3021 255.484 76.3438 255.297 76.3438C255.109 76.3438 254.943 76.2604 254.797 76.0938C254.672 75.9271 254.526 75.6042 254.359 75.125C254.339 75 254.297 74.6458 254.234 74.0625C254.172 73.4792 254.089 72.7708 253.984 71.9375C253.901 71.1042 253.797 70.1979 253.672 69.2188C253.568 68.2188 253.464 67.2396 253.359 66.2812C253.13 64.1979 252.953 62.6667 252.828 61.6875C252.828 61.1875 253.193 60.9375 253.922 60.9375C254.359 60.9375 254.703 61.125 254.953 61.5C255.203 61.8542 255.401 62.2708 255.547 62.75C255.693 63.2083 255.786 63.6667 255.828 64.125C255.891 64.5833 255.943 64.9062 255.984 65.0938C258.734 62.6354 262.151 61.4062 266.234 61.4062C266.693 61.4062 267.172 61.4167 267.672 61.4375C267.797 61.4167 267.953 61.4062 268.141 61.4062C268.328 61.4062 268.516 61.5312 268.703 61.7812C268.932 62.0729 269.047 62.4271 269.047 62.8438C269.047 63.8854 268.755 64.4688 268.172 64.5938Z" fill="#404040"/>
<path d="M308.883 24.0859L308.977 25.7969C308.977 25.8906 308.969 26.0625 308.953 26.3125C308.953 26.5625 308.859 26.7891 308.672 26.9922C308.5 27.1797 308.281 27.2734 308.016 27.2734C307.766 27.2734 307.57 27.2656 307.43 27.25C306.914 27.25 306.656 27.0234 306.656 26.5703C306.656 26.1953 306.828 24.6875 307.172 22.0469C307.516 19.3906 307.734 17.6797 307.828 16.9141C307.922 16.1484 308 15.5078 308.062 14.9922C308.141 14.4609 308.195 14.0703 308.227 13.8203C308.258 13.5703 308.305 13.3203 308.367 13.0703C308.43 12.8203 308.523 12.6172 308.648 12.4609C308.883 12.1641 309.336 12.0156 310.008 12.0156C311.133 12.5781 312.289 14.1719 313.477 16.7969C314.32 18.6719 314.883 19.8594 315.164 20.3594C315.445 20.8594 315.719 21.2031 315.984 21.3906L320.672 13.2344C321 13 321.25 12.8828 321.422 12.8828C321.922 12.8828 322.305 13.1094 322.57 13.5625C322.836 14.0156 323.055 14.5703 323.227 15.2266C323.414 15.8672 323.57 16.5781 323.695 17.3594C323.836 18.1406 323.953 18.9609 324.047 19.8203C324.156 20.6641 324.258 21.4922 324.352 22.3047C324.57 24.2578 324.734 25.4844 324.844 25.9844C324.969 26.4844 325.031 26.8438 325.031 27.0625C325.031 27.2656 324.961 27.4688 324.82 27.6719C324.68 27.8594 324.484 27.9531 324.234 27.9531C323.984 27.9531 323.734 27.8594 323.484 27.6719C323.234 27.4688 323.078 27.2266 323.016 26.9453C322.969 26.6484 322.914 26.2656 322.852 25.7969C322.805 25.3281 322.742 24.8047 322.664 24.2266C322.586 23.6328 322.508 23.0156 322.43 22.375C322.352 21.7188 322.273 21.0938 322.195 20.5C322.117 19.9062 322.047 19.3828 321.984 18.9297C321.922 18.4609 321.875 18.1094 321.844 17.875C321.844 17.5625 321.836 17.2734 321.82 17.0078C321.805 16.7422 321.742 16.5781 321.633 16.5156C321.523 16.4531 321.352 16.5312 321.117 16.75C320.898 16.9531 320.586 17.375 320.18 18.0156C319.305 19.375 318.039 21.6641 316.383 24.8828C316.164 25.2734 315.875 25.3594 315.516 25.1406C315.094 24.9062 314.734 24.3047 314.438 23.3359L310.125 14.1719C309.75 14.9219 309.406 17.4062 309.094 21.625C309.047 22.1406 309.016 22.5781 309 22.9375C308.922 23.3281 308.883 23.7109 308.883 24.0859Z" fill="black"/>
<path d="M327.07 23.5469C327.07 21.7031 327.867 20.2188 329.461 19.0938C330.727 18.2031 332.25 17.6641 334.031 17.4766C334.125 17.4766 334.344 17.4766 334.688 17.4766C335.031 17.4766 335.492 17.5781 336.07 17.7812C337.352 18.2188 338.227 18.9922 338.695 20.1016C338.883 20.5391 338.977 20.9141 338.977 21.2266C338.977 21.5234 338.969 21.7344 338.953 21.8594C338.953 23.8125 338.211 25.3516 336.727 26.4766C335.352 27.5078 333.633 28.0234 331.57 28.0234C330.086 28.0234 328.961 27.6797 328.195 26.9922C327.445 26.3047 327.07 25.1562 327.07 23.5469ZM328.688 24.1094C328.688 25.0781 328.945 25.7344 329.461 26.0781C329.852 26.3281 330.508 26.4531 331.43 26.4531C332.352 26.4531 333.164 26.3828 333.867 26.2422C334.57 26.1016 335.195 25.8594 335.742 25.5156C336.914 24.7656 337.5 23.6016 337.5 22.0234C337.5 21.0859 337.25 20.3203 336.75 19.7266C336.203 19.0859 335.484 18.7656 334.594 18.7656C333.984 18.875 333.367 18.9922 332.742 19.1172C332.133 19.2422 331.555 19.4844 331.008 19.8438C329.82 20.6094 329.047 22.0312 328.688 24.1094Z" fill="black"/>
<path d="M351.07 9.17969C351.07 10.6797 351.023 12.1484 350.93 13.5859C350.852 15.0078 350.773 16.4062 350.695 17.7812C350.633 19.1406 350.602 20.5938 350.602 22.1406C350.602 23.6719 350.711 25.2969 350.93 27.0156C350.93 27.375 350.859 27.6328 350.719 27.7891C350.594 27.9453 350.375 28.0234 350.062 28.0234C349.328 28.0234 348.961 27.4141 348.961 26.1953V25.4219C346.742 27.0781 344.867 27.9062 343.336 27.9062C342.727 27.9062 342.102 27.7578 341.461 27.4609C340.836 27.1641 340.242 26.5625 339.68 25.6562C339.602 25.2812 339.562 24.8984 339.562 24.5078C339.562 24.1172 339.633 23.6484 339.773 23.1016C339.93 22.5391 340.234 21.9609 340.688 21.3672C341.156 20.7734 341.719 20.25 342.375 19.7969C343.812 18.8281 345.367 18.3438 347.039 18.3438C347.758 18.3438 348.445 18.4531 349.102 18.6719C349.102 18.3906 349.117 17.8984 349.148 17.1953C349.195 16.4922 349.242 15.75 349.289 14.9688C349.383 12.9375 349.445 11.7422 349.477 11.3828C349.508 11.0078 349.547 10.6953 349.594 10.4453C349.656 10.1797 349.742 9.95312 349.852 9.76562C350.086 9.375 350.492 9.17969 351.07 9.17969ZM341.273 24.3203C341.273 25.5547 341.719 26.1719 342.609 26.1719C342.75 26.1719 342.906 26.1562 343.078 26.125C343.719 26.125 344.508 25.9375 345.445 25.5625C347.227 24.8594 348.312 24.25 348.703 23.7344V20.6172C348.703 20.0703 348.258 19.7969 347.367 19.7969C347.258 19.7812 347.109 19.7734 346.922 19.7734C346.75 19.7734 346.477 19.8125 346.102 19.8906C345.727 19.9688 345.305 20.1094 344.836 20.3125C344.367 20.5156 343.906 20.7656 343.453 21.0625C342.5 21.7031 341.844 22.4531 341.484 23.3125C341.344 23.6406 341.273 23.9766 341.273 24.3203Z" fill="black"/>
<path d="M357.07 26.3594C358.445 26.3594 360.516 25.7344 363.281 24.4844C363.453 24.4844 363.594 24.5469 363.703 24.6719C363.812 24.7812 363.867 24.9141 363.867 25.0703C363.242 26.1328 362.047 26.9609 360.281 27.5547C358.516 28.1484 356.867 28.25 355.336 27.8594C353.602 27.4062 352.547 26.4297 352.172 24.9297C352.141 24.6328 352.125 24.2344 352.125 23.7344C352.125 23.2344 352.25 22.5781 352.5 21.7656C352.766 20.9375 353.211 20.1562 353.836 19.4219C354.461 18.6875 355.195 18.1094 356.039 17.6875C356.883 17.2656 357.781 17.0547 358.734 17.0547C359.641 17.0547 360.656 17.3672 361.781 17.9922C362.312 18.2891 362.734 18.625 363.047 19C363.359 19.375 363.516 19.7578 363.516 20.1484C363.516 20.2578 363.508 20.3672 363.492 20.4766C363.461 21.4297 363 22.0312 362.109 22.2812C361.719 22.3906 361.266 22.4453 360.75 22.4453L357.375 22.3047C356.25 22.3047 355.391 22.5469 354.797 23.0312C354.453 23.2969 354.211 23.6953 354.07 24.2266C354.461 25.6484 355.461 26.3594 357.07 26.3594ZM361.242 19.1172C360.898 18.8672 360.539 18.6875 360.164 18.5781C359.789 18.4688 359.477 18.4141 359.227 18.4141C358.977 18.4141 358.57 18.5 358.008 18.6719C357.445 18.8281 356.945 19.0078 356.508 19.2109C355.43 19.7109 354.891 20.2344 354.891 20.7812C356.141 20.8906 357.078 20.9453 357.703 20.9453C359.438 20.9453 360.609 20.7969 361.219 20.5C361.594 20.3438 361.781 20.1484 361.781 19.9141C361.781 19.6328 361.602 19.3672 361.242 19.1172Z" fill="black"/>
<path d="M365.695 18.9062C365.664 18.0625 365.633 17.3125 365.602 16.6562C365.57 15.9844 365.547 15.4922 365.531 15.1797C365.531 14.8516 365.406 14.0625 365.156 12.8125C365.297 12.625 365.43 12.4453 365.555 12.2734C365.695 12.1016 365.891 12.0156 366.141 12.0156C366.688 12.0156 367.109 14.3203 367.406 18.9297C367.562 21.6016 367.641 24.2734 367.641 26.9453C367.641 27.6641 367.141 28.0234 366.141 28.0234L365.953 28C365.953 27.1875 365.93 26.1484 365.883 24.8828C365.836 23.6172 365.797 22.5156 365.766 21.5781C365.75 20.6406 365.727 19.75 365.695 18.9062Z" fill="black"/>
<path d="M22.7031 179.438C23.849 178.333 25.9219 177.781 28.9219 177.781C30.7969 177.781 32.3698 177.969 33.6406 178.344C34.9115 178.719 35.8594 179.115 36.4844 179.531C37.1302 179.948 37.4531 180.406 37.4531 180.906C37.4531 182.052 36.1198 183.188 33.4531 184.312C33.0573 184.5 32.0156 184.885 30.3281 185.469C28.6615 186.031 27.5365 186.417 26.9531 186.625C25.6823 187.104 24.8385 187.479 24.4219 187.75C24.4219 187.854 24.4635 187.948 24.5469 188.031C24.6302 188.094 24.8281 188.219 25.1406 188.406C25.4531 188.573 25.9219 188.823 26.5469 189.156C27.1719 189.469 28.0365 189.927 29.1406 190.531C32.4323 192.323 35.8177 194.24 39.2969 196.281C39.4635 196.406 39.6823 196.583 39.9531 196.812C40.224 197.021 40.3594 197.26 40.3594 197.531C40.3594 197.781 40.276 197.958 40.1094 198.062C39.9427 198.167 39.7448 198.24 39.5156 198.281C39.2865 198.344 39.0469 198.375 38.7969 198.375H38.1719C37.7552 198.375 36.8802 197.927 35.5469 197.031C34.2344 196.135 33.0885 195.354 32.1094 194.688C31.151 194.021 30.1719 193.375 29.1719 192.75C26.8177 191.229 24.9531 190.24 23.5781 189.781V196.938C23.5781 197.354 23.224 197.562 22.5156 197.562H22.1719C21.7344 197.562 21.4115 197.344 21.2031 196.906C20.9115 196.24 20.7656 195.01 20.7656 193.219L20.8594 186.938C20.8594 183.854 20.724 181.146 20.4531 178.812C20.9531 177.958 21.5677 177.99 22.2969 178.906C22.4635 179.115 22.599 179.292 22.7031 179.438ZM33.2656 179.812L31.2344 179.781C26.526 179.781 23.8177 180.323 23.1094 181.406C22.901 181.698 22.7969 182.073 22.7969 182.531C22.7969 182.969 22.8177 183.354 22.8594 183.688C22.9635 184.542 23.2031 185.156 23.5781 185.531C23.6406 185.552 23.7448 185.562 23.8906 185.562C24.0573 185.562 24.349 185.521 24.7656 185.438C25.2031 185.354 25.776 185.208 26.4844 185C27.2135 184.771 27.9844 184.5 28.7969 184.188C29.6094 183.875 30.3906 183.552 31.1406 183.219C33.4948 182.156 34.6719 181.292 34.6719 180.625C34.6719 180.25 34.2031 179.979 33.2656 179.812Z" fill="#404040"/>
<path d="M43.4531 192.062C43.4531 189.604 44.5156 187.625 46.6406 186.125C48.3281 184.938 50.3594 184.219 52.7344 183.969C52.8594 183.969 53.151 183.969 53.6094 183.969C54.0677 183.969 54.6823 184.104 55.4531 184.375C57.1615 184.958 58.3281 185.99 58.9531 187.469C59.2031 188.052 59.3281 188.552 59.3281 188.969C59.3281 189.365 59.3177 189.646 59.2969 189.812C59.2969 192.417 58.3073 194.469 56.3281 195.969C54.4948 197.344 52.2031 198.031 49.4531 198.031C47.474 198.031 45.974 197.573 44.9531 196.656C43.9531 195.74 43.4531 194.208 43.4531 192.062ZM45.6094 192.812C45.6094 194.104 45.9531 194.979 46.6406 195.438C47.1615 195.771 48.0365 195.938 49.2656 195.938C50.4948 195.938 51.5781 195.844 52.5156 195.656C53.4531 195.469 54.2865 195.146 55.0156 194.688C56.5781 193.688 57.3594 192.135 57.3594 190.031C57.3594 188.781 57.026 187.76 56.3594 186.969C55.6302 186.115 54.6719 185.688 53.4844 185.688C52.6719 185.833 51.849 185.99 51.0156 186.156C50.2031 186.323 49.4323 186.646 48.7031 187.125C47.1198 188.146 46.0885 190.042 45.6094 192.812Z" fill="#404040"/>
<path d="M60.5156 193.844C60.5156 193.51 60.4844 193.052 60.4219 192.469C60.3802 191.865 60.3385 191.208 60.2969 190.5C60.2552 189.792 60.2344 189.073 60.2344 188.344C60.2344 187.615 60.2969 186.948 60.4219 186.344C60.6927 184.99 61.2552 184.312 62.1094 184.312C62.6927 184.479 63.0781 184.688 63.2656 184.938C63.474 185.188 63.5781 185.5 63.5781 185.875C63.5781 186.229 63.4844 186.677 63.2969 187.219C62.6094 189.031 62.2656 190.667 62.2656 192.125C62.2656 192.604 62.2969 193.115 62.3594 193.656C62.6927 195.052 63.8385 195.75 65.7969 195.75C66.8177 195.75 67.7865 195.573 68.7031 195.219C70.4531 194.573 71.6406 193.812 72.2656 192.938C72.4531 191.979 72.5469 191.146 72.5469 190.438C72.5469 189.708 72.5156 189.062 72.4531 188.5C72.4115 187.938 72.349 187.323 72.2656 186.656C72.2031 185.969 72.1615 185.219 72.1406 184.406C72.4115 184.281 72.6719 184.219 72.9219 184.219C73.1927 184.219 73.4635 184.354 73.7344 184.625C74.026 184.896 74.2656 185.406 74.4531 186.156C74.6615 186.906 74.7969 187.792 74.8594 188.812C74.9219 189.812 74.9531 190.854 74.9531 191.938C74.974 193.021 74.9844 194.073 74.9844 195.094C74.9844 196.094 75.026 196.958 75.1094 197.688C74.8594 197.917 74.6198 198.031 74.3906 198.031C73.5573 198.031 72.9427 197.198 72.5469 195.531C72.276 195.76 71.8177 196.042 71.1719 196.375C69.7969 197.125 68.1719 197.625 66.2969 197.875C65.9427 197.917 65.5469 197.938 65.1094 197.938C64.6719 197.938 64.1198 197.854 63.4531 197.688C62.8073 197.521 62.1927 197.135 61.6094 196.531C61.026 195.927 60.6615 195.031 60.5156 193.844Z" fill="#404040"/>
<path d="M81.6406 195L81.7031 190C81.7031 189.208 81.6302 188.531 81.4844 187.969H76.6406L76.5781 185.812H81.2656V177.75C81.3281 177.562 81.4531 177.375 81.6406 177.188C81.9323 176.896 82.1719 176.75 82.3594 176.75C82.5677 176.75 82.7448 176.771 82.8906 176.812C83.0365 176.854 83.1927 177 83.3594 177.25C83.6927 178.625 83.8594 180.698 83.8594 183.469C83.8594 184.156 83.8906 184.833 83.9531 185.5C84.6198 185.417 85.2865 185.375 85.9531 185.375C85.9531 185.375 86.4948 185.375 87.5781 185.375C87.974 185.375 88.3385 185.354 88.6719 185.312L88.5781 187.562L84.0156 187.438L84.1719 198.219C83.7969 198.385 83.474 198.469 83.2031 198.469C82.1615 198.469 81.6406 197.312 81.6406 195Z" fill="#404040"/>
<path d="M96.2344 195.812C98.0677 195.812 100.828 194.979 104.516 193.312C104.745 193.312 104.932 193.396 105.078 193.562C105.224 193.708 105.297 193.885 105.297 194.094C104.464 195.51 102.87 196.615 100.516 197.406C98.1615 198.198 95.9635 198.333 93.9219 197.812C91.6094 197.208 90.2031 195.906 89.7031 193.906C89.6615 193.51 89.6406 192.979 89.6406 192.312C89.6406 191.646 89.8073 190.771 90.1406 189.688C90.4948 188.583 91.0885 187.542 91.9219 186.562C92.7552 185.583 93.7344 184.812 94.8594 184.25C95.9844 183.688 97.1823 183.406 98.4531 183.406C99.6615 183.406 101.016 183.823 102.516 184.656C103.224 185.052 103.786 185.5 104.203 186C104.62 186.5 104.828 187.01 104.828 187.531C104.828 187.677 104.818 187.823 104.797 187.969C104.755 189.24 104.141 190.042 102.953 190.375C102.432 190.521 101.828 190.594 101.141 190.594L96.6406 190.406C95.1406 190.406 93.9948 190.729 93.2031 191.375C92.7448 191.729 92.4219 192.26 92.2344 192.969C92.7552 194.865 94.0885 195.812 96.2344 195.812ZM101.797 186.156C101.339 185.823 100.859 185.583 100.359 185.438C99.8594 185.292 99.4427 185.219 99.1094 185.219C98.776 185.219 98.2344 185.333 97.4844 185.562C96.7344 185.771 96.0677 186.01 95.4844 186.281C94.0469 186.948 93.3281 187.646 93.3281 188.375C94.9948 188.521 96.2448 188.594 97.0781 188.594C99.3906 188.594 100.953 188.396 101.766 188C102.266 187.792 102.516 187.531 102.516 187.219C102.516 186.844 102.276 186.49 101.797 186.156Z" fill="#404040"/>
<path d="M122.516 186.594C121.641 185.969 120.516 185.656 119.141 185.656C117.849 185.656 116.651 185.896 115.547 186.375C113.464 187.25 112.036 188.375 111.266 189.75C110.932 190.375 110.766 191.042 110.766 191.75C110.766 191.875 110.766 192.229 110.766 192.812C110.766 193.375 110.87 194.146 111.078 195.125C111.286 196.083 111.391 197.062 111.391 198.062C110.953 198.083 110.599 198.135 110.328 198.219C110.057 198.302 109.828 198.344 109.641 198.344C109.453 198.344 109.286 198.26 109.141 198.094C109.016 197.927 108.87 197.604 108.703 197.125C108.682 197 108.641 196.646 108.578 196.062C108.516 195.479 108.432 194.771 108.328 193.938C108.245 193.104 108.141 192.198 108.016 191.219C107.911 190.219 107.807 189.24 107.703 188.281C107.474 186.198 107.297 184.667 107.172 183.688C107.172 183.188 107.536 182.938 108.266 182.938C108.703 182.938 109.047 183.125 109.297 183.5C109.547 183.854 109.745 184.271 109.891 184.75C110.036 185.208 110.13 185.667 110.172 186.125C110.234 186.583 110.286 186.906 110.328 187.094C113.078 184.635 116.495 183.406 120.578 183.406C121.036 183.406 121.516 183.417 122.016 183.438C122.141 183.417 122.297 183.406 122.484 183.406C122.672 183.406 122.859 183.531 123.047 183.781C123.276 184.073 123.391 184.427 123.391 184.844C123.391 185.885 123.099 186.469 122.516 186.594Z" fill="#404040"/>
<path d="M131.375 295.25C132.917 294.917 134.375 294.75 135.75 294.75C137.125 294.75 138.344 294.802 139.406 294.906C140.49 295.01 141.573 295.208 142.656 295.5C144.948 296.146 146.365 297.021 146.906 298.125C147.052 298.354 147.125 298.625 147.125 298.938C147.125 299.854 146.323 300.844 144.719 301.906C143.656 302.615 142.135 303.333 140.156 304.062C145.01 304.333 148.302 305.042 150.031 306.188C150.99 306.792 151.469 307.5 151.469 308.312C151.469 309.438 150.677 310.604 149.094 311.812C147.365 313.104 145.156 314.177 142.469 315.031C139.99 315.823 137.688 316.219 135.562 316.219C133.938 316.219 132.542 315.979 131.375 315.5C131.333 314.167 131.281 312.792 131.219 311.375C131.052 308.229 130.969 305.583 130.969 303.438C130.969 301.271 131.042 299.021 131.188 296.688C130.958 296.688 130.75 296.667 130.562 296.625C130.375 296.562 130.281 296.354 130.281 296C130.281 295.5 130.646 295.25 131.375 295.25ZM134.188 313.938C137.542 313.75 140.292 313.354 142.438 312.75C144.583 312.125 146.125 311.458 147.062 310.75C148.021 310.021 148.5 309.323 148.5 308.656C148.5 307.781 147.875 307.083 146.625 306.562C145.271 306.021 143.469 305.75 141.219 305.75C138.99 305.75 136.396 306.052 133.438 306.656L134.188 313.938ZM137.094 296.781H136.312C134.604 296.781 133.646 296.958 133.438 297.312L133.125 303.594C135 303.594 137.281 303.146 139.969 302.25C141.719 301.646 143 300.979 143.812 300.25C144.229 299.875 144.438 299.49 144.438 299.094C144.438 298.698 144.281 298.375 143.969 298.125C143.677 297.854 143.292 297.635 142.812 297.469C142.354 297.302 141.833 297.177 141.25 297.094C140.688 296.99 140.135 296.917 139.594 296.875C138.76 296.812 137.927 296.781 137.094 296.781Z" fill="#404040"/>
<path d="M168.281 304.594C167.406 303.969 166.281 303.656 164.906 303.656C163.615 303.656 162.417 303.896 161.312 304.375C159.229 305.25 157.802 306.375 157.031 307.75C156.698 308.375 156.531 309.042 156.531 309.75C156.531 309.875 156.531 310.229 156.531 310.812C156.531 311.375 156.635 312.146 156.844 313.125C157.052 314.083 157.156 315.062 157.156 316.062C156.719 316.083 156.365 316.135 156.094 316.219C155.823 316.302 155.594 316.344 155.406 316.344C155.219 316.344 155.052 316.26 154.906 316.094C154.781 315.927 154.635 315.604 154.469 315.125C154.448 315 154.406 314.646 154.344 314.062C154.281 313.479 154.198 312.771 154.094 311.938C154.01 311.104 153.906 310.198 153.781 309.219C153.677 308.219 153.573 307.24 153.469 306.281C153.24 304.198 153.062 302.667 152.938 301.688C152.938 301.188 153.302 300.938 154.031 300.938C154.469 300.938 154.812 301.125 155.062 301.5C155.312 301.854 155.51 302.271 155.656 302.75C155.802 303.208 155.896 303.667 155.938 304.125C156 304.583 156.052 304.906 156.094 305.094C158.844 302.635 162.26 301.406 166.344 301.406C166.802 301.406 167.281 301.417 167.781 301.438C167.906 301.417 168.062 301.406 168.25 301.406C168.438 301.406 168.625 301.531 168.812 301.781C169.042 302.073 169.156 302.427 169.156 302.844C169.156 303.885 168.865 304.469 168.281 304.594Z" fill="#404040"/>
<path d="M171.375 310.062C171.375 307.604 172.438 305.625 174.562 304.125C176.25 302.938 178.281 302.219 180.656 301.969C180.781 301.969 181.073 301.969 181.531 301.969C181.99 301.969 182.604 302.104 183.375 302.375C185.083 302.958 186.25 303.99 186.875 305.469C187.125 306.052 187.25 306.552 187.25 306.969C187.25 307.365 187.24 307.646 187.219 307.812C187.219 310.417 186.229 312.469 184.25 313.969C182.417 315.344 180.125 316.031 177.375 316.031C175.396 316.031 173.896 315.573 172.875 314.656C171.875 313.74 171.375 312.208 171.375 310.062ZM173.531 310.812C173.531 312.104 173.875 312.979 174.562 313.438C175.083 313.771 175.958 313.938 177.188 313.938C178.417 313.938 179.5 313.844 180.438 313.656C181.375 313.469 182.208 313.146 182.938 312.688C184.5 311.688 185.281 310.135 185.281 308.031C185.281 306.781 184.948 305.76 184.281 304.969C183.552 304.115 182.594 303.688 181.406 303.688C180.594 303.833 179.771 303.99 178.938 304.156C178.125 304.323 177.354 304.646 176.625 305.125C175.042 306.146 174.01 308.042 173.531 310.812Z" fill="#404040"/>
<path d="M200.469 307.375C200.01 308.896 199.625 310.302 199.312 311.594C199.021 312.885 198.729 313.958 198.438 314.812C197.979 316.042 197.458 316.656 196.875 316.656C196.562 316.656 196.208 316.51 195.812 316.219C194.854 315.198 193.5 312.938 191.75 309.438C190.042 306.021 189.188 303.885 189.188 303.031C189.188 302.656 189.302 302.427 189.531 302.344C189.76 302.24 190.021 302.229 190.312 302.312C191.021 302.521 191.521 302.844 191.812 303.281C191.958 303.49 192.135 303.854 192.344 304.375L193.125 306.312C194 308.5 194.865 310.5 195.719 312.312C196.177 311.604 196.615 310.688 197.031 309.562L198 306.875C198.833 304.521 199.583 303.323 200.25 303.281C200.771 302.948 202.333 304.792 204.938 308.812C206.042 310.521 206.729 311.542 207 311.875C207.188 311.875 207.406 311.25 207.656 310C207.927 308.75 208.156 307.698 208.344 306.844C208.552 305.969 208.802 305.156 209.094 304.406C209.781 302.656 210.573 301.781 211.469 301.781C211.76 301.781 211.958 301.885 212.062 302.094C212.188 302.281 212.25 302.438 212.25 302.562C212.25 302.688 212.25 302.781 212.25 302.844C212 303.552 211.74 304.365 211.469 305.281C211.198 306.177 210.906 307.104 210.594 308.062C210.302 309 210 309.938 209.688 310.875C209.396 311.792 209.104 312.625 208.812 313.375C208.125 315 207.552 315.875 207.094 316C206.74 316.167 206.167 315.76 205.375 314.781C205.021 314.323 204.646 313.781 204.25 313.156C203.854 312.531 203.438 311.885 203 311.219C201.938 309.552 201.094 308.271 200.469 307.375Z" fill="#404040"/>
<path d="M225.156 307.938C227.448 307.938 228.594 308.521 228.594 309.688C228.594 310.562 227.958 311.583 226.688 312.75C224.792 314.479 222.24 315.865 219.031 316.906C218.885 316.906 218.719 316.76 218.531 316.469C218.365 316.177 218.229 315.958 218.125 315.812C218.042 315.646 217.979 315.542 217.938 315.5C220.333 314.708 222.302 313.75 223.844 312.625C224.885 311.875 225.406 311.26 225.406 310.781C225.406 310.302 224.792 310.062 223.562 310.062C222.333 310.062 220.531 310.354 218.156 310.938C217.073 310.896 216.135 310.51 215.344 309.781C214.656 309.135 214.312 308.49 214.312 307.844C214.312 307.177 214.5 306.573 214.875 306.031C215.25 305.469 215.75 304.948 216.375 304.469C217 303.99 217.729 303.552 218.562 303.156C220.604 302.177 222.719 301.688 224.906 301.688C225.552 301.688 226.177 301.75 226.781 301.875C227.281 301.875 227.573 302.094 227.656 302.531C227.74 302.969 227.781 303.688 227.781 304.688C226.552 304.125 225.167 303.844 223.625 303.844C221.708 303.844 220.125 304.229 218.875 305C217.583 305.75 216.917 306.729 216.875 307.938C216.875 308.521 217.302 308.812 218.156 308.812L220.438 308.562C222.396 308.146 223.969 307.938 225.156 307.938Z" fill="#404040"/>
<path d="M236.906 313.812C238.74 313.812 241.5 312.979 245.188 311.312C245.417 311.312 245.604 311.396 245.75 311.562C245.896 311.708 245.969 311.885 245.969 312.094C245.135 313.51 243.542 314.615 241.188 315.406C238.833 316.198 236.635 316.333 234.594 315.812C232.281 315.208 230.875 313.906 230.375 311.906C230.333 311.51 230.312 310.979 230.312 310.312C230.312 309.646 230.479 308.771 230.812 307.688C231.167 306.583 231.76 305.542 232.594 304.562C233.427 303.583 234.406 302.812 235.531 302.25C236.656 301.688 237.854 301.406 239.125 301.406C240.333 301.406 241.688 301.823 243.188 302.656C243.896 303.052 244.458 303.5 244.875 304C245.292 304.5 245.5 305.01 245.5 305.531C245.5 305.677 245.49 305.823 245.469 305.969C245.427 307.24 244.812 308.042 243.625 308.375C243.104 308.521 242.5 308.594 241.812 308.594L237.312 308.406C235.812 308.406 234.667 308.729 233.875 309.375C233.417 309.729 233.094 310.26 232.906 310.969C233.427 312.865 234.76 313.812 236.906 313.812ZM242.469 304.156C242.01 303.823 241.531 303.583 241.031 303.438C240.531 303.292 240.115 303.219 239.781 303.219C239.448 303.219 238.906 303.333 238.156 303.562C237.406 303.771 236.74 304.01 236.156 304.281C234.719 304.948 234 305.646 234 306.375C235.667 306.521 236.917 306.594 237.75 306.594C240.062 306.594 241.625 306.396 242.438 306C242.938 305.792 243.188 305.531 243.188 305.219C243.188 304.844 242.948 304.49 242.469 304.156Z" fill="#404040"/>
<path d="M263.188 304.594C262.312 303.969 261.188 303.656 259.812 303.656C258.521 303.656 257.323 303.896 256.219 304.375C254.135 305.25 252.708 306.375 251.938 307.75C251.604 308.375 251.438 309.042 251.438 309.75C251.438 309.875 251.438 310.229 251.438 310.812C251.438 311.375 251.542 312.146 251.75 313.125C251.958 314.083 252.062 315.062 252.062 316.062C251.625 316.083 251.271 316.135 251 316.219C250.729 316.302 250.5 316.344 250.312 316.344C250.125 316.344 249.958 316.26 249.812 316.094C249.688 315.927 249.542 315.604 249.375 315.125C249.354 315 249.312 314.646 249.25 314.062C249.188 313.479 249.104 312.771 249 311.938C248.917 311.104 248.812 310.198 248.688 309.219C248.583 308.219 248.479 307.24 248.375 306.281C248.146 304.198 247.969 302.667 247.844 301.688C247.844 301.188 248.208 300.938 248.938 300.938C249.375 300.938 249.719 301.125 249.969 301.5C250.219 301.854 250.417 302.271 250.562 302.75C250.708 303.208 250.802 303.667 250.844 304.125C250.906 304.583 250.958 304.906 251 305.094C253.75 302.635 257.167 301.406 261.25 301.406C261.708 301.406 262.188 301.417 262.688 301.438C262.812 301.417 262.969 301.406 263.156 301.406C263.344 301.406 263.531 301.531 263.719 301.781C263.948 302.073 264.062 302.427 264.062 302.844C264.062 303.885 263.771 304.469 263.188 304.594Z" fill="#404040"/>
<path d="M52.4609 357.609C53.6172 357.203 55.1484 357 57.0547 357C60.5391 357 62.9219 357.859 64.2031 359.578C64.7031 360.234 64.9531 361.07 64.9531 362.086C64.9688 362.227 64.9766 362.367 64.9766 362.508C64.9766 364.07 64.0625 365.656 62.2344 367.266C60.5625 368.781 58.5 370 56.0469 370.922C54.4219 371.547 53.0781 371.859 52.0156 371.859C51.5781 371.859 51.2031 371.797 50.8906 371.672V357.047H51.2188C51.5781 357.047 51.8672 357.109 52.0859 357.234C52.3047 357.344 52.4297 357.469 52.4609 357.609ZM63.3828 362.273C63.2422 360.883 62.4688 359.852 61.0625 359.18C60.0156 358.68 58.7031 358.43 57.125 358.43L56.7031 358.453C55.2188 358.484 53.9375 358.719 52.8594 359.156V370.336C53.9531 370.336 55.3203 369.938 56.9609 369.141C59.8047 367.734 61.7578 366.102 62.8203 364.242C63.1953 363.586 63.3828 362.93 63.3828 362.273Z" fill="#404040"/>
<path d="M66.6406 368.062C66.2656 367.219 66.0781 366.227 66.0781 365.086C66.0781 363.945 66.2578 362.938 66.6172 362.062C66.9922 361.172 67.5 360.406 68.1406 359.766C69.5 358.438 71.2031 357.773 73.25 357.773C75.3906 357.773 77.1562 358.266 78.5469 359.25C80.1094 360.375 80.8906 361.984 80.8906 364.078C80.8906 366.672 80.2891 368.586 79.0859 369.82C77.8984 371.055 76.0391 371.672 73.5078 371.672C69.9922 371.672 67.7031 370.469 66.6406 368.062ZM68 364.617C68 368.305 69.8594 370.148 73.5781 370.148C75.4062 370.148 76.8906 369.602 78.0312 368.508C79.1719 367.43 79.7422 366.016 79.7422 364.266C79.7422 362.625 79.0625 361.375 77.7031 360.516C76.5469 359.766 75.0859 359.391 73.3203 359.391C71.9141 359.391 70.6719 359.898 69.5938 360.914C68.5312 361.93 68 363.164 68 364.617Z" fill="#404040"/>
<path d="M84.5234 368.086L84.6172 369.797C84.6172 369.891 84.6094 370.062 84.5938 370.312C84.5938 370.562 84.5 370.789 84.3125 370.992C84.1406 371.18 83.9219 371.273 83.6562 371.273C83.4062 371.273 83.2109 371.266 83.0703 371.25C82.5547 371.25 82.2969 371.023 82.2969 370.57C82.2969 370.195 82.4688 368.688 82.8125 366.047C83.1562 363.391 83.375 361.68 83.4688 360.914C83.5625 360.148 83.6406 359.508 83.7031 358.992C83.7812 358.461 83.8359 358.07 83.8672 357.82C83.8984 357.57 83.9453 357.32 84.0078 357.07C84.0703 356.82 84.1641 356.617 84.2891 356.461C84.5234 356.164 84.9766 356.016 85.6484 356.016C86.7734 356.578 87.9297 358.172 89.1172 360.797C89.9609 362.672 90.5234 363.859 90.8047 364.359C91.0859 364.859 91.3594 365.203 91.625 365.391L96.3125 357.234C96.6406 357 96.8906 356.883 97.0625 356.883C97.5625 356.883 97.9453 357.109 98.2109 357.562C98.4766 358.016 98.6953 358.57 98.8672 359.227C99.0547 359.867 99.2109 360.578 99.3359 361.359C99.4766 362.141 99.5938 362.961 99.6875 363.82C99.7969 364.664 99.8984 365.492 99.9922 366.305C100.211 368.258 100.375 369.484 100.484 369.984C100.609 370.484 100.672 370.844 100.672 371.062C100.672 371.266 100.602 371.469 100.461 371.672C100.32 371.859 100.125 371.953 99.875 371.953C99.625 371.953 99.375 371.859 99.125 371.672C98.875 371.469 98.7188 371.227 98.6562 370.945C98.6094 370.648 98.5547 370.266 98.4922 369.797C98.4453 369.328 98.3828 368.805 98.3047 368.227C98.2266 367.633 98.1484 367.016 98.0703 366.375C97.9922 365.719 97.9141 365.094 97.8359 364.5C97.7578 363.906 97.6875 363.383 97.625 362.93C97.5625 362.461 97.5156 362.109 97.4844 361.875C97.4844 361.562 97.4766 361.273 97.4609 361.008C97.4453 360.742 97.3828 360.578 97.2734 360.516C97.1641 360.453 96.9922 360.531 96.7578 360.75C96.5391 360.953 96.2266 361.375 95.8203 362.016C94.9453 363.375 93.6797 365.664 92.0234 368.883C91.8047 369.273 91.5156 369.359 91.1562 369.141C90.7344 368.906 90.375 368.305 90.0781 367.336L85.7656 358.172C85.3906 358.922 85.0469 361.406 84.7344 365.625C84.6875 366.141 84.6562 366.578 84.6406 366.938C84.5625 367.328 84.5234 367.711 84.5234 368.086Z" fill="#404040"/>
<path d="M307.055 364.336L306.984 359.906C306.984 359.203 307 358.586 307.031 358.055C307.078 357.508 307.195 357.234 307.383 357.234H308.953C308.953 357.484 308.977 357.969 309.023 358.688C309.07 359.406 309.102 360.133 309.117 360.867C309.133 361.586 309.141 362.203 309.141 362.719C309.141 363.234 309.133 363.906 309.117 364.734C309.102 365.547 309.023 366.445 308.883 367.43C308.555 369.695 307.93 371.094 307.008 371.625C306.305 372.016 305.188 372.109 303.656 371.906C302.109 371.688 300.75 371.234 299.578 370.547C298.203 369.75 297.414 368.812 297.211 367.734C297.211 367.375 297.328 367.062 297.562 366.797C297.984 366.297 298.367 366.047 298.711 366.047C298.727 366.938 298.969 367.672 299.438 368.25C300.531 369.562 302.289 370.219 304.711 370.219C305.117 370.219 305.516 370.195 305.906 370.148C306.672 369.742 307.055 367.805 307.055 364.336Z" fill="#404040"/>
<path d="M310.055 369.961C310.055 369.664 310.172 369.406 310.406 369.188C310.656 368.953 310.844 368.797 310.969 368.719C311.109 368.625 311.203 368.555 311.25 368.508C311.328 369.93 312.289 370.641 314.133 370.641C315.586 370.641 317.281 370.188 319.219 369.281C320.594 368.656 321.516 368.016 321.984 367.359C322.141 367.156 322.219 366.992 322.219 366.867C322.219 366.727 322.195 366.617 322.148 366.539L312.422 364.359C312.141 364.297 311.867 364.164 311.602 363.961C311.117 363.617 310.875 363.305 310.875 363.023C310.875 361.945 311.641 360.969 313.172 360.094C314.859 359.141 317.117 358.422 319.945 357.938C320.586 357.828 321.062 357.766 321.375 357.75C321.469 357.781 321.609 357.812 321.797 357.844C322 357.859 322.203 357.891 322.406 357.938C322.891 358.047 323.094 358.25 323.016 358.547C323.016 359.078 322 359.5 319.969 359.812C317.344 360.203 315.703 360.531 315.047 360.797C314.406 361.062 313.938 361.336 313.641 361.617C313.359 361.898 313.211 362.234 313.195 362.625C313.195 362.703 313.375 362.789 313.734 362.883C314.094 362.977 314.523 363.094 315.023 363.234C315.523 363.359 316.172 363.531 316.969 363.75C318.906 364.281 321.281 364.953 324.094 365.766C324.25 366.109 324.328 366.43 324.328 366.727C324.328 367.555 323.844 368.352 322.875 369.117C321.781 369.977 320.266 370.703 318.328 371.297C316.719 371.781 315.438 372.023 314.484 372.023C313.688 372.023 312.93 371.883 312.211 371.602C311.492 371.32 310.953 371.047 310.594 370.781C310.234 370.516 310.055 370.242 310.055 369.961Z" fill="#404040"/>
<path d="M287.609 197.5C287.047 196 286.005 193.771 284.484 190.812C282.964 187.833 281.953 185.854 281.453 184.875C280.349 182.604 279.797 181.271 279.797 180.875C279.797 180.604 280.328 180.26 281.391 179.844C282.12 181.198 282.797 182.552 283.422 183.906C284.068 185.24 284.703 186.5 285.328 187.688C286.807 190.583 288.016 192.583 288.953 193.688C289.286 193.354 290.036 191.938 291.203 189.438L293.766 184.031C295.141 181.115 296.026 179.208 296.422 178.312C297.151 177.438 297.766 177 298.266 177C298.766 177 299.016 177.438 299.016 178.312L290.141 197.781C289.786 198.01 289.328 198.125 288.766 198.125C288.224 198.125 287.839 197.917 287.609 197.5Z" fill="#404040"/>
<path d="M303.172 183.312C303.443 187.208 303.672 191.719 303.859 196.844C303.734 197.49 303.234 197.812 302.359 197.812C302.13 197.812 301.891 197.771 301.641 197.688C301.411 197.583 301.266 197.448 301.203 197.281V183.312H303.172ZM300.266 179.062C300.266 178.333 300.693 177.969 301.547 177.969C302.109 177.969 302.568 178.094 302.922 178.344C302.984 178.573 303.016 178.802 303.016 179.031C303.016 179.24 302.932 179.448 302.766 179.656C302.599 179.865 302.349 179.969 302.016 179.969C301.682 179.969 301.349 179.896 301.016 179.75C300.682 179.583 300.432 179.354 300.266 179.062Z" fill="#404040"/>
<path d="M311.578 195.812C313.411 195.812 316.172 194.979 319.859 193.312C320.089 193.312 320.276 193.396 320.422 193.562C320.568 193.708 320.641 193.885 320.641 194.094C319.807 195.51 318.214 196.615 315.859 197.406C313.505 198.198 311.307 198.333 309.266 197.812C306.953 197.208 305.547 195.906 305.047 193.906C305.005 193.51 304.984 192.979 304.984 192.312C304.984 191.646 305.151 190.771 305.484 189.688C305.839 188.583 306.432 187.542 307.266 186.562C308.099 185.583 309.078 184.812 310.203 184.25C311.328 183.688 312.526 183.406 313.797 183.406C315.005 183.406 316.359 183.823 317.859 184.656C318.568 185.052 319.13 185.5 319.547 186C319.964 186.5 320.172 187.01 320.172 187.531C320.172 187.677 320.161 187.823 320.141 187.969C320.099 189.24 319.484 190.042 318.297 190.375C317.776 190.521 317.172 190.594 316.484 190.594L311.984 190.406C310.484 190.406 309.339 190.729 308.547 191.375C308.089 191.729 307.766 192.26 307.578 192.969C308.099 194.865 309.432 195.812 311.578 195.812ZM317.141 186.156C316.682 185.823 316.203 185.583 315.703 185.438C315.203 185.292 314.786 185.219 314.453 185.219C314.12 185.219 313.578 185.333 312.828 185.562C312.078 185.771 311.411 186.01 310.828 186.281C309.391 186.948 308.672 187.646 308.672 188.375C310.339 188.521 311.589 188.594 312.422 188.594C314.734 188.594 316.297 188.396 317.109 188C317.609 187.792 317.859 187.531 317.859 187.219C317.859 186.844 317.62 186.49 317.141 186.156Z" fill="#404040"/>
<path d="M334.391 189.375C333.932 190.896 333.547 192.302 333.234 193.594C332.943 194.885 332.651 195.958 332.359 196.812C331.901 198.042 331.38 198.656 330.797 198.656C330.484 198.656 330.13 198.51 329.734 198.219C328.776 197.198 327.422 194.938 325.672 191.438C323.964 188.021 323.109 185.885 323.109 185.031C323.109 184.656 323.224 184.427 323.453 184.344C323.682 184.24 323.943 184.229 324.234 184.312C324.943 184.521 325.443 184.844 325.734 185.281C325.88 185.49 326.057 185.854 326.266 186.375L327.047 188.312C327.922 190.5 328.786 192.5 329.641 194.312C330.099 193.604 330.536 192.688 330.953 191.562L331.922 188.875C332.755 186.521 333.505 185.323 334.172 185.281C334.693 184.948 336.255 186.792 338.859 190.812C339.964 192.521 340.651 193.542 340.922 193.875C341.109 193.875 341.328 193.25 341.578 192C341.849 190.75 342.078 189.698 342.266 188.844C342.474 187.969 342.724 187.156 343.016 186.406C343.703 184.656 344.495 183.781 345.391 183.781C345.682 183.781 345.88 183.885 345.984 184.094C346.109 184.281 346.172 184.438 346.172 184.562C346.172 184.688 346.172 184.781 346.172 184.844C345.922 185.552 345.661 186.365 345.391 187.281C345.12 188.177 344.828 189.104 344.516 190.062C344.224 191 343.922 191.938 343.609 192.875C343.318 193.792 343.026 194.625 342.734 195.375C342.047 197 341.474 197.875 341.016 198C340.661 198.167 340.089 197.76 339.297 196.781C338.943 196.323 338.568 195.781 338.172 195.156C337.776 194.531 337.359 193.885 336.922 193.219C335.859 191.552 335.016 190.271 334.391 189.375Z" fill="#404040"/>
<path fill-rule="evenodd" clip-rule="evenodd" d="M117.129 94.4563L108.295 92.1845C108.031 92.1167 107.759 92.2645 107.673 92.5231C107.585 92.786 107.719 93.0714 107.978 93.1714L113.633 95.3605C95.4503 105.033 83.037 124.346 79.0985 146.806C79.0654 146.995 79.2106 147.168 79.4019 147.168C79.5491 147.168 79.676 147.063 79.7053 146.918C84.2735 124.393 96.4391 106.848 115.35 97.1237L114.163 102.266C114.082 102.618 114.297 102.969 114.647 103.057C114.988 103.142 115.336 102.945 115.44 102.609L117.368 96.3418C117.443 96.2905 117.512 96.2283 117.573 96.156L117.648 96.065C118.119 95.5008 117.841 94.6392 117.129 94.4563Z" fill="black" fill-opacity="0.3"/>
<path fill-rule="evenodd" clip-rule="evenodd" d="M295.237 19.155L288.722 12.7703C288.527 12.5795 288.218 12.5718 288.014 12.7527C287.807 12.9365 287.78 13.2508 287.954 13.4666L291.757 18.19C271.174 17.4751 250.768 27.9939 236.126 45.4759C236.004 45.6226 236.043 45.845 236.209 45.9406C236.336 46.0142 236.498 45.9868 236.596 45.8765C251.815 28.6534 271.123 19.5417 292.362 20.5754L288.763 24.4355C288.517 24.6993 288.528 25.1114 288.787 25.362C289.04 25.6064 289.44 25.6103 289.697 25.3711L294.501 20.9074C294.592 20.9005 294.683 20.8812 294.771 20.8487L294.882 20.8078C295.572 20.5543 295.762 19.6691 295.237 19.155Z" fill="black" fill-opacity="0.3"/>
<path fill-rule="evenodd" clip-rule="evenodd" d="M278.627 363.983L271.102 369.139C270.877 369.293 270.572 369.247 270.402 369.034C270.23 368.817 270.258 368.503 270.467 368.32L275.032 364.329C254.638 361.459 236.368 347.556 224.985 327.798C224.89 327.632 224.967 327.42 225.147 327.354C225.285 327.304 225.44 327.359 225.517 327.485C237.514 347.089 254.946 359.415 276.043 362.085L273.169 357.659C272.972 357.356 273.054 356.952 273.353 356.75C273.644 356.554 274.039 356.619 274.251 356.899L278.207 362.129C278.295 362.152 278.381 362.187 278.462 362.234L278.565 362.294C279.199 362.663 279.233 363.568 278.627 363.983Z" fill="black" fill-opacity="0.3"/>
<path fill-rule="evenodd" clip-rule="evenodd" d="M119.693 363.995L127.218 369.152C127.443 369.306 127.749 369.26 127.918 369.046C128.091 368.829 128.062 368.515 127.853 368.333L123.288 364.341C143.682 361.471 161.952 347.569 173.335 327.81C173.431 327.644 173.353 327.432 173.174 327.366C173.035 327.316 172.88 327.371 172.803 327.497C160.807 347.101 143.374 359.427 122.278 362.097L125.152 357.671C125.348 357.368 125.266 356.964 124.967 356.763C124.676 356.566 124.282 356.631 124.069 356.912L120.114 362.142C120.025 362.164 119.939 362.199 119.858 362.246L119.756 362.306C119.121 362.675 119.087 363.58 119.693 363.995Z" fill="black" fill-opacity="0.3"/>
<path fill-rule="evenodd" clip-rule="evenodd" d="M311.732 158.525L318.132 149.186C318.317 148.915 318.262 148.547 318.004 148.342C317.743 148.135 317.364 148.169 317.144 148.421L312.333 153.924C308.873 129.34 292.114 107.316 268.296 93.5941C268.096 93.479 267.84 93.5721 267.761 93.7889C267.7 93.9556 267.767 94.1426 267.918 94.2352C291.55 108.697 306.409 129.711 309.628 155.142L304.292 151.678C303.927 151.441 303.44 151.54 303.197 151.9C302.96 152.251 303.039 152.727 303.377 152.982L309.641 157.721C309.663 157.793 309.694 157.864 309.733 157.931L310.043 158.463C310.412 159.098 311.317 159.131 311.732 158.525Z" fill="black" fill-opacity="0.3"/>
<path fill-rule="evenodd" clip-rule="evenodd" d="M283.711 286.141L292.8 286.844C293.072 286.865 293.314 286.672 293.354 286.403C293.394 286.129 293.213 285.871 292.941 285.818L286.995 284.644C303.213 271.966 312.079 250.798 312.056 228.002C312.056 227.811 311.883 227.666 311.695 227.699C311.55 227.724 311.443 227.85 311.44 227.997C310.853 250.966 301.924 270.351 284.998 283.207L285.273 277.937C285.292 277.577 285.019 277.269 284.66 277.243C284.309 277.219 284.001 277.472 283.957 277.821L283.147 284.327C283.082 284.39 283.025 284.463 282.978 284.545L282.92 284.647C282.555 285.284 282.979 286.084 283.711 286.141Z" fill="black" fill-opacity="0.3"/>
<path fill-rule="evenodd" clip-rule="evenodd" d="M82.7382 234.717L77.5818 242.242C77.4277 242.467 77.4738 242.773 77.6873 242.942C77.9044 243.115 78.2184 243.086 78.4008 242.877L82.3919 238.312C85.2622 258.706 99.1647 276.976 118.923 288.359C119.089 288.455 119.301 288.377 119.367 288.197C119.417 288.059 119.362 287.904 119.236 287.827C99.6322 275.83 87.3061 258.398 84.636 237.302L89.0622 240.175C89.3647 240.372 89.7687 240.29 89.9705 239.991C90.1673 239.7 90.1018 239.305 89.8214 239.093L84.5916 235.137C84.5691 235.049 84.5343 234.963 84.487 234.882L84.4274 234.78C84.058 234.145 83.1533 234.112 82.7382 234.717Z" fill="black" fill-opacity="0.3"/>
</g>
<defs>
<clipPath id="clip0">
<rect width="384" height="384" fill="white"/>
</clipPath>
</defs>
</svg>
