<svg width="304" height="148" viewBox="0 0 304 148" fill="none" xmlns="http://www.w3.org/2000/svg">
<rect width="304" height="148" fill="white"/>
<path d="M98.9219 28.2812C98.9219 27.8854 99.0781 27.5417 99.3906 27.25C99.724 26.9375 99.974 26.7292 100.141 26.625C100.328 26.5 100.453 26.4062 100.516 26.3438C100.62 28.2396 101.901 29.1875 104.359 29.1875C106.297 29.1875 108.557 28.5833 111.141 27.375C112.974 26.5417 114.203 25.6875 114.828 24.8125C115.036 24.5417 115.141 24.3229 115.141 24.1562C115.141 23.9688 115.109 23.8229 115.047 23.7188L102.078 20.8125C101.703 20.7292 101.339 20.5521 100.984 20.2812C100.339 19.8229 100.016 19.4062 100.016 19.0312C100.016 17.5938 101.036 16.2917 103.078 15.125C105.328 13.8542 108.339 12.8958 112.109 12.25C112.964 12.1042 113.599 12.0208 114.016 12C114.141 12.0417 114.328 12.0833 114.578 12.125C114.849 12.1458 115.12 12.1875 115.391 12.25C116.036 12.3958 116.307 12.6667 116.203 13.0625C116.203 13.7708 114.849 14.3333 112.141 14.75C108.641 15.2708 106.453 15.7083 105.578 16.0625C104.724 16.4167 104.099 16.7812 103.703 17.1562C103.328 17.5312 103.13 17.9792 103.109 18.5C103.109 18.6042 103.349 18.7188 103.828 18.8438C104.307 18.9688 104.88 19.125 105.547 19.3125C106.214 19.4792 107.078 19.7083 108.141 20C110.724 20.7083 113.891 21.6042 117.641 22.6875C117.849 23.1458 117.953 23.5729 117.953 23.9688C117.953 25.0729 117.307 26.1354 116.016 27.1562C114.557 28.3021 112.536 29.2708 109.953 30.0625C107.807 30.7083 106.099 31.0312 104.828 31.0312C103.766 31.0312 102.755 30.8438 101.797 30.4688C100.839 30.0938 100.12 29.7292 99.6406 29.375C99.1615 29.0208 98.9219 28.6562 98.9219 28.2812Z" fill="#404040"/>
<path d="M126.234 28.8125C128.068 28.8125 130.828 27.9792 134.516 26.3125C134.745 26.3125 134.932 26.3958 135.078 26.5625C135.224 26.7083 135.297 26.8854 135.297 27.0938C134.464 28.5104 132.87 29.6146 130.516 30.4062C128.161 31.1979 125.964 31.3333 123.922 30.8125C121.609 30.2083 120.203 28.9062 119.703 26.9062C119.661 26.5104 119.641 25.9792 119.641 25.3125C119.641 24.6458 119.807 23.7708 120.141 22.6875C120.495 21.5833 121.089 20.5417 121.922 19.5625C122.755 18.5833 123.734 17.8125 124.859 17.25C125.984 16.6875 127.182 16.4062 128.453 16.4062C129.661 16.4062 131.016 16.8229 132.516 17.6562C133.224 18.0521 133.786 18.5 134.203 19C134.62 19.5 134.828 20.0104 134.828 20.5312C134.828 20.6771 134.818 20.8229 134.797 20.9688C134.755 22.2396 134.141 23.0417 132.953 23.375C132.432 23.5208 131.828 23.5938 131.141 23.5938L126.641 23.4062C125.141 23.4062 123.995 23.7292 123.203 24.375C122.745 24.7292 122.422 25.2604 122.234 25.9688C122.755 27.8646 124.089 28.8125 126.234 28.8125ZM131.797 19.1562C131.339 18.8229 130.859 18.5833 130.359 18.4375C129.859 18.2917 129.443 18.2188 129.109 18.2188C128.776 18.2188 128.234 18.3333 127.484 18.5625C126.734 18.7708 126.068 19.0104 125.484 19.2812C124.047 19.9479 123.328 20.6458 123.328 21.375C124.995 21.5208 126.245 21.5938 127.078 21.5938C129.391 21.5938 130.953 21.3958 131.766 21C132.266 20.7917 132.516 20.5312 132.516 20.2188C132.516 19.8438 132.276 19.4896 131.797 19.1562Z" fill="#404040"/>
<path d="M152.516 19.5938C151.641 18.9688 150.516 18.6562 149.141 18.6562C147.849 18.6562 146.651 18.8958 145.547 19.375C143.464 20.25 142.036 21.375 141.266 22.75C140.932 23.375 140.766 24.0417 140.766 24.75C140.766 24.875 140.766 25.2292 140.766 25.8125C140.766 26.375 140.87 27.1458 141.078 28.125C141.286 29.0833 141.391 30.0625 141.391 31.0625C140.953 31.0833 140.599 31.1354 140.328 31.2188C140.057 31.3021 139.828 31.3438 139.641 31.3438C139.453 31.3438 139.286 31.2604 139.141 31.0938C139.016 30.9271 138.87 30.6042 138.703 30.125C138.682 30 138.641 29.6458 138.578 29.0625C138.516 28.4792 138.432 27.7708 138.328 26.9375C138.245 26.1042 138.141 25.1979 138.016 24.2188C137.911 23.2188 137.807 22.2396 137.703 21.2812C137.474 19.1979 137.297 17.6667 137.172 16.6875C137.172 16.1875 137.536 15.9375 138.266 15.9375C138.703 15.9375 139.047 16.125 139.297 16.5C139.547 16.8542 139.745 17.2708 139.891 17.75C140.036 18.2083 140.13 18.6667 140.172 19.125C140.234 19.5833 140.286 19.9062 140.328 20.0938C143.078 17.6354 146.495 16.4062 150.578 16.4062C151.036 16.4062 151.516 16.4167 152.016 16.4375C152.141 16.4167 152.297 16.4062 152.484 16.4062C152.672 16.4062 152.859 16.5312 153.047 16.7812C153.276 17.0729 153.391 17.4271 153.391 17.8438C153.391 18.8854 153.099 19.4688 152.516 19.5938Z" fill="#404040"/>
<path d="M155.109 18.9062C155.068 18.8021 155.047 18.6875 155.047 18.5625C155.047 18.4167 155.099 18.2292 155.203 18C155.307 17.7708 155.453 17.5729 155.641 17.4062C155.849 17.2396 156.068 17.1667 156.297 17.1875C156.547 17.1875 156.745 17.3333 156.891 17.625L162.141 27.375C162.307 27.125 162.568 26.6667 162.922 26C163.297 25.3125 163.714 24.5417 164.172 23.6875C164.651 22.8333 165.141 21.9479 165.641 21.0312C166.161 20.0938 166.641 19.2396 167.078 18.4688C168.078 16.6979 168.672 15.8125 168.859 15.8125C169.297 15.8125 169.609 15.9792 169.797 16.3125C170.005 16.625 170.109 16.8646 170.109 17.0312C170.109 17.1979 170.109 17.3125 170.109 17.375C168.943 19.9167 167.859 22.2604 166.859 24.4062C165.88 26.5521 165.224 27.9479 164.891 28.5938C164.578 29.2188 164.297 29.7188 164.047 30.0938C163.609 30.7396 163.182 31.0625 162.766 31.0625C162.349 31.0625 161.87 30.7396 161.328 30.0938C160.786 29.4271 160.172 28.5417 159.484 27.4375C158.276 25.4375 156.818 22.5938 155.109 18.9062Z" fill="#404040"/>
<path d="M177.797 28.8125C179.63 28.8125 182.391 27.9792 186.078 26.3125C186.307 26.3125 186.495 26.3958 186.641 26.5625C186.786 26.7083 186.859 26.8854 186.859 27.0938C186.026 28.5104 184.432 29.6146 182.078 30.4062C179.724 31.1979 177.526 31.3333 175.484 30.8125C173.172 30.2083 171.766 28.9062 171.266 26.9062C171.224 26.5104 171.203 25.9792 171.203 25.3125C171.203 24.6458 171.37 23.7708 171.703 22.6875C172.057 21.5833 172.651 20.5417 173.484 19.5625C174.318 18.5833 175.297 17.8125 176.422 17.25C177.547 16.6875 178.745 16.4062 180.016 16.4062C181.224 16.4062 182.578 16.8229 184.078 17.6562C184.786 18.0521 185.349 18.5 185.766 19C186.182 19.5 186.391 20.0104 186.391 20.5312C186.391 20.6771 186.38 20.8229 186.359 20.9688C186.318 22.2396 185.703 23.0417 184.516 23.375C183.995 23.5208 183.391 23.5938 182.703 23.5938L178.203 23.4062C176.703 23.4062 175.557 23.7292 174.766 24.375C174.307 24.7292 173.984 25.2604 173.797 25.9688C174.318 27.8646 175.651 28.8125 177.797 28.8125ZM183.359 19.1562C182.901 18.8229 182.422 18.5833 181.922 18.4375C181.422 18.2917 181.005 18.2188 180.672 18.2188C180.339 18.2188 179.797 18.3333 179.047 18.5625C178.297 18.7708 177.63 19.0104 177.047 19.2812C175.609 19.9479 174.891 20.6458 174.891 21.375C176.557 21.5208 177.807 21.5938 178.641 21.5938C180.953 21.5938 182.516 21.3958 183.328 21C183.828 20.7917 184.078 20.5312 184.078 20.2188C184.078 19.8438 183.839 19.4896 183.359 19.1562Z" fill="#404040"/>
<path d="M204.078 19.5938C203.203 18.9688 202.078 18.6562 200.703 18.6562C199.411 18.6562 198.214 18.8958 197.109 19.375C195.026 20.25 193.599 21.375 192.828 22.75C192.495 23.375 192.328 24.0417 192.328 24.75C192.328 24.875 192.328 25.2292 192.328 25.8125C192.328 26.375 192.432 27.1458 192.641 28.125C192.849 29.0833 192.953 30.0625 192.953 31.0625C192.516 31.0833 192.161 31.1354 191.891 31.2188C191.62 31.3021 191.391 31.3438 191.203 31.3438C191.016 31.3438 190.849 31.2604 190.703 31.0938C190.578 30.9271 190.432 30.6042 190.266 30.125C190.245 30 190.203 29.6458 190.141 29.0625C190.078 28.4792 189.995 27.7708 189.891 26.9375C189.807 26.1042 189.703 25.1979 189.578 24.2188C189.474 23.2188 189.37 22.2396 189.266 21.2812C189.036 19.1979 188.859 17.6667 188.734 16.6875C188.734 16.1875 189.099 15.9375 189.828 15.9375C190.266 15.9375 190.609 16.125 190.859 16.5C191.109 16.8542 191.307 17.2708 191.453 17.75C191.599 18.2083 191.693 18.6667 191.734 19.125C191.797 19.5833 191.849 19.9062 191.891 20.0938C194.641 17.6354 198.057 16.4062 202.141 16.4062C202.599 16.4062 203.078 16.4167 203.578 16.4375C203.703 16.4167 203.859 16.4062 204.047 16.4062C204.234 16.4062 204.422 16.5312 204.609 16.7812C204.839 17.0729 204.953 17.4271 204.953 17.8438C204.953 18.8854 204.661 19.4688 204.078 19.5938Z" fill="#404040"/>
<path d="M129.422 117.656C128.068 116.323 126.568 115.656 124.922 115.656C123.359 115.656 121.859 116.25 120.422 117.438C118.609 118.938 117.359 120.875 116.672 123.25C116.422 124.104 116.297 124.812 116.297 125.375C116.297 125.938 116.318 126.375 116.359 126.688C116.359 128.75 117.057 130.333 118.453 131.438C119.766 132.458 121.443 132.969 123.484 132.969C126.276 132.74 128.953 131.667 131.516 129.75C132.224 129.208 132.974 128.688 133.766 128.188C134.057 128.188 134.349 128.229 134.641 128.312C134.953 128.396 135.109 128.635 135.109 129.031C133.047 130.823 131.307 132.115 129.891 132.906C127.266 134.323 124.891 135.031 122.766 135.031C122.62 135.031 122.484 135.031 122.359 135.031C120.047 135.031 118.068 134.312 116.422 132.875C114.672 131.354 113.797 129.458 113.797 127.188C113.797 125.479 114.099 123.844 114.703 122.281C115.328 120.719 116.172 119.344 117.234 118.156C118.318 116.948 119.589 115.99 121.047 115.281C122.526 114.573 124.109 114.219 125.797 114.219C127.234 114.219 128.172 114.417 128.609 114.812C129.151 115.292 129.422 116.24 129.422 117.656Z" fill="#404040"/>
<path d="M137.172 122.875C137.13 121.75 137.089 120.75 137.047 119.875C137.005 118.979 136.974 118.323 136.953 117.906C136.953 117.469 136.786 116.417 136.453 114.75C136.641 114.5 136.818 114.26 136.984 114.031C137.172 113.802 137.432 113.688 137.766 113.688C138.495 113.688 139.057 116.76 139.453 122.906C139.661 126.469 139.766 130.031 139.766 133.594C139.766 134.552 139.099 135.031 137.766 135.031L137.516 135C137.516 133.917 137.484 132.531 137.422 130.844C137.359 129.156 137.307 127.688 137.266 126.438C137.245 125.188 137.214 124 137.172 122.875Z" fill="#404040"/>
<path d="M144.453 120.312C144.724 124.208 144.953 128.719 145.141 133.844C145.016 134.49 144.516 134.812 143.641 134.812C143.411 134.812 143.172 134.771 142.922 134.688C142.693 134.583 142.547 134.448 142.484 134.281V120.312H144.453ZM141.547 116.062C141.547 115.333 141.974 114.969 142.828 114.969C143.391 114.969 143.849 115.094 144.203 115.344C144.266 115.573 144.297 115.802 144.297 116.031C144.297 116.24 144.214 116.448 144.047 116.656C143.88 116.865 143.63 116.969 143.297 116.969C142.964 116.969 142.63 116.896 142.297 116.75C141.964 116.583 141.714 116.354 141.547 116.062Z" fill="#404040"/>
<path d="M152.859 132.812C154.693 132.812 157.453 131.979 161.141 130.312C161.37 130.312 161.557 130.396 161.703 130.562C161.849 130.708 161.922 130.885 161.922 131.094C161.089 132.51 159.495 133.615 157.141 134.406C154.786 135.198 152.589 135.333 150.547 134.812C148.234 134.208 146.828 132.906 146.328 130.906C146.286 130.51 146.266 129.979 146.266 129.312C146.266 128.646 146.432 127.771 146.766 126.688C147.12 125.583 147.714 124.542 148.547 123.562C149.38 122.583 150.359 121.812 151.484 121.25C152.609 120.688 153.807 120.406 155.078 120.406C156.286 120.406 157.641 120.823 159.141 121.656C159.849 122.052 160.411 122.5 160.828 123C161.245 123.5 161.453 124.01 161.453 124.531C161.453 124.677 161.443 124.823 161.422 124.969C161.38 126.24 160.766 127.042 159.578 127.375C159.057 127.521 158.453 127.594 157.766 127.594L153.266 127.406C151.766 127.406 150.62 127.729 149.828 128.375C149.37 128.729 149.047 129.26 148.859 129.969C149.38 131.865 150.714 132.812 152.859 132.812ZM158.422 123.156C157.964 122.823 157.484 122.583 156.984 122.438C156.484 122.292 156.068 122.219 155.734 122.219C155.401 122.219 154.859 122.333 154.109 122.562C153.359 122.771 152.693 123.01 152.109 123.281C150.672 123.948 149.953 124.646 149.953 125.375C151.62 125.521 152.87 125.594 153.703 125.594C156.016 125.594 157.578 125.396 158.391 125C158.891 124.792 159.141 124.531 159.141 124.219C159.141 123.844 158.901 123.49 158.422 123.156Z" fill="#404040"/>
<path d="M175.984 128.156C175.984 125.677 175.849 123.854 175.578 122.688C175.745 122.375 175.495 122.219 174.828 122.219C174.12 122.219 173.203 122.396 172.078 122.75C170.953 123.104 170.036 123.458 169.328 123.812C167.641 124.625 166.703 125.417 166.516 126.188V134.688H164.422C164.151 133.979 164.016 131.99 164.016 128.719C164.016 125.802 164.068 123.656 164.172 122.281C164.297 120.906 164.391 120.125 164.453 119.938C164.995 119.583 165.432 119.406 165.766 119.406C166.286 119.406 166.547 120.021 166.547 121.25C166.547 121.729 166.516 122.198 166.453 122.656C166.411 123.094 166.391 123.396 166.391 123.562C169.766 121.083 172.38 119.844 174.234 119.844C176.339 119.844 177.536 121.542 177.828 124.938C177.953 126.125 178.016 127.771 178.016 129.875L177.984 132.344C177.984 133.26 178.005 134.146 178.047 135C177.839 135.125 177.672 135.188 177.547 135.188C177.484 135.167 177.349 135.135 177.141 135.094C176.932 135.052 176.661 135.021 176.328 135C176.12 134.167 176.005 133.323 175.984 132.469C175.964 131.594 175.953 130.792 175.953 130.062L175.984 128.156Z" fill="#404040"/>
<path d="M184.516 132L184.578 127C184.578 126.208 184.505 125.531 184.359 124.969H179.516L179.453 122.812H184.141V114.75C184.203 114.562 184.328 114.375 184.516 114.188C184.807 113.896 185.047 113.75 185.234 113.75C185.443 113.75 185.62 113.771 185.766 113.812C185.911 113.854 186.068 114 186.234 114.25C186.568 115.625 186.734 117.698 186.734 120.469C186.734 121.156 186.766 121.833 186.828 122.5C187.495 122.417 188.161 122.375 188.828 122.375C188.828 122.375 189.37 122.375 190.453 122.375C190.849 122.375 191.214 122.354 191.547 122.312L191.453 124.562L186.891 124.438L187.047 135.219C186.672 135.385 186.349 135.469 186.078 135.469C185.036 135.469 184.516 134.312 184.516 132Z" fill="#404040"/>
<path fill-rule="evenodd" clip-rule="evenodd" d="M89.2746 49.4642L97.5035 45.5253C98.1659 45.2082 98.9328 45.6894 98.9352 46.4238L98.9356 46.5425C98.936 46.6367 98.9231 46.7287 98.8985 46.8163L101.45 52.8567C101.587 53.1806 101.446 53.5549 101.13 53.7088C100.806 53.8667 100.415 53.7358 100.251 53.4145L97.8548 48.7127C96.2966 52.422 95.1033 56.1906 94.2669 60.0001H92.0914C92.8035 56.0487 93.9032 52.1873 95.406 48.4656L89.6664 50.4238C89.4041 50.5133 89.1178 50.381 89.0159 50.1233C88.9157 49.8698 89.0287 49.5819 89.2746 49.4642ZM94.1929 92.0001C96.0259 98.1756 98.6529 104.259 102.02 110.079C102.116 110.245 102.339 110.284 102.485 110.161C102.598 110.066 102.628 109.904 102.557 109.775C99.3724 103.918 96.9465 97.9706 95.3083 92.0001H94.1929Z" fill="black" fill-opacity="0.3"/>
<path fill-rule="evenodd" clip-rule="evenodd" d="M225.583 105.184L217.354 109.123C216.692 109.44 215.925 108.958 215.923 108.224L215.922 108.105C215.922 108.011 215.935 107.919 215.959 107.832L213.408 101.791C213.271 101.467 213.412 101.093 213.728 100.939C214.052 100.781 214.443 100.912 214.607 101.233L217.003 105.935C218.921 101.368 220.287 96.7119 221.114 91.9999H223.184C222.523 96.8755 221.289 101.633 219.452 106.182L225.191 104.224C225.454 104.135 225.74 104.267 225.842 104.525C225.942 104.778 225.829 105.066 225.583 105.184ZM218.771 59.9999H219.828C218.064 54.7346 215.723 49.5549 212.838 44.5689C212.742 44.4033 212.519 44.3641 212.373 44.4871C212.26 44.5817 212.23 44.7437 212.301 44.873C215.014 49.8637 217.177 54.9197 218.771 59.9999Z" fill="black" fill-opacity="0.3"/>
<path d="M46.3516 80.9609C46.3516 80.6641 46.4688 80.4062 46.7031 80.1875C46.9531 79.9531 47.1406 79.7969 47.2656 79.7188C47.4062 79.625 47.5 79.5547 47.5469 79.5078C47.625 80.9297 48.5859 81.6406 50.4297 81.6406C51.8828 81.6406 53.5781 81.1875 55.5156 80.2812C56.8906 79.6562 57.8125 79.0156 58.2812 78.3594C58.4375 78.1562 58.5156 77.9922 58.5156 77.8672C58.5156 77.7266 58.4922 77.6172 58.4453 77.5391L48.7188 75.3594C48.4375 75.2969 48.1641 75.1641 47.8984 74.9609C47.4141 74.6172 47.1719 74.3047 47.1719 74.0234C47.1719 72.9453 47.9375 71.9688 49.4688 71.0938C51.1562 70.1406 53.4141 69.4219 56.2422 68.9375C56.8828 68.8281 57.3594 68.7656 57.6719 68.75C57.7656 68.7812 57.9062 68.8125 58.0938 68.8438C58.2969 68.8594 58.5 68.8906 58.7031 68.9375C59.1875 69.0469 59.3906 69.25 59.3125 69.5469C59.3125 70.0781 58.2969 70.5 56.2656 70.8125C53.6406 71.2031 52 71.5312 51.3438 71.7969C50.7031 72.0625 50.2344 72.3359 49.9375 72.6172C49.6562 72.8984 49.5078 73.2344 49.4922 73.625C49.4922 73.7031 49.6719 73.7891 50.0312 73.8828C50.3906 73.9766 50.8203 74.0938 51.3203 74.2344C51.8203 74.3594 52.4688 74.5312 53.2656 74.75C55.2031 75.2812 57.5781 75.9531 60.3906 76.7656C60.5469 77.1094 60.625 77.4297 60.625 77.7266C60.625 78.5547 60.1406 79.3516 59.1719 80.1172C58.0781 80.9766 56.5625 81.7031 54.625 82.2969C53.0156 82.7812 51.7344 83.0234 50.7812 83.0234C49.9844 83.0234 49.2266 82.8828 48.5078 82.6016C47.7891 82.3203 47.25 82.0469 46.8906 81.7812C46.5312 81.5156 46.3516 81.2422 46.3516 80.9609Z" fill="#404040"/>
<path d="M65.5938 80.75L65.6406 77C65.6406 76.4062 65.5859 75.8984 65.4766 75.4766H61.8438L61.7969 73.8594H65.3125V67.8125C65.3594 67.6719 65.4531 67.5312 65.5938 67.3906C65.8125 67.1719 65.9922 67.0625 66.1328 67.0625C66.2891 67.0625 66.4219 67.0781 66.5312 67.1094C66.6406 67.1406 66.7578 67.25 66.8828 67.4375C67.1328 68.4688 67.2578 70.0234 67.2578 72.1016C67.2578 72.6172 67.2812 73.125 67.3281 73.625C67.8281 73.5625 68.3281 73.5312 68.8281 73.5312C68.8281 73.5312 69.2344 73.5312 70.0469 73.5312C70.3438 73.5312 70.6172 73.5156 70.8672 73.4844L70.7969 75.1719L67.375 75.0781L67.4922 83.1641C67.2109 83.2891 66.9688 83.3516 66.7656 83.3516C65.9844 83.3516 65.5938 82.4844 65.5938 80.75Z" fill="#404040"/>
<path d="M73.8672 71.9844C74.0703 74.9062 74.2422 78.2891 74.3828 82.1328C74.2891 82.6172 73.9141 82.8594 73.2578 82.8594C73.0859 82.8594 72.9062 82.8281 72.7188 82.7656C72.5469 82.6875 72.4375 82.5859 72.3906 82.4609V71.9844H73.8672ZM71.6875 68.7969C71.6875 68.25 72.0078 67.9766 72.6484 67.9766C73.0703 67.9766 73.4141 68.0703 73.6797 68.2578C73.7266 68.4297 73.75 68.6016 73.75 68.7734C73.75 68.9297 73.6875 69.0859 73.5625 69.2422C73.4375 69.3984 73.25 69.4766 73 69.4766C72.75 69.4766 72.5 69.4219 72.25 69.3125C72 69.1875 71.8125 69.0156 71.6875 68.7969Z" fill="#404040"/>
<path d="M77.3359 82.625C76.6953 82.8906 76.2656 83.0234 76.0469 83.0234C75.8438 83.0234 75.7031 83 75.625 82.9531C75.5469 82.9062 75.4609 82.7969 75.3672 82.625C75.3672 82.1094 75.3828 81.4609 75.4141 80.6797C75.4609 79.8984 75.5 79.0625 75.5312 78.1719C75.5625 77.2812 75.5781 76.3828 75.5781 75.4766C75.5781 74.5703 75.5312 73.7422 75.4375 72.9922C75.4375 72.4922 75.7734 72.2422 76.4453 72.2422C76.6016 72.2422 76.7188 72.5234 76.7969 73.0859C76.8906 73.6484 76.9531 74.0859 76.9844 74.3984C77.0312 74.7109 77.0703 74.9375 77.1016 75.0781C77.5078 74.3438 78.3125 73.7656 79.5156 73.3438C80.1562 73.1406 80.7578 73.0391 81.3203 73.0391C81.8828 73.0391 82.375 73.1094 82.7969 73.25C83.2344 73.375 83.6016 73.6172 83.8984 73.9766C84.2109 74.3203 84.3672 74.7812 84.3672 75.3594C84.7734 74.5938 85.6875 73.9062 87.1094 73.2969C88.4062 72.7188 89.5703 72.4297 90.6016 72.4297C92.0859 72.4297 92.8125 72.9922 92.7812 74.1172L93.2734 82.8359C93.2734 82.9141 93.0469 82.9688 92.5938 83C91.7188 83.0625 91.2812 82.9844 91.2812 82.7656C91.2656 82.4531 91.2578 82.1406 91.2578 81.8281L91.375 78.0547C91.375 76.2891 91.2031 74.8906 90.8594 73.8594C89.8281 73.9375 89.0312 74.1094 88.4688 74.375C87.9219 74.625 87.4375 74.9453 87.0156 75.3359C86.5938 75.7109 86.2188 76.2188 85.8906 76.8594C85.1562 78.2969 84.7891 80.2031 84.7891 82.5781C84.6953 82.9062 84.3906 83.0703 83.875 83.0703C83.5312 83.0703 83.25 83.0156 83.0312 82.9062C82.8125 82.7812 82.7266 82.6719 82.7734 82.5781C83.0703 80.9219 83.2188 79.6328 83.2188 78.7109C83.2188 77.9766 83.1406 77.2812 82.9844 76.625C82.8438 75.9531 82.6641 75.1875 82.4453 74.3281C80.1953 74.3281 78.6797 75.2266 77.8984 77.0234C77.5547 77.8203 77.3594 78.5703 77.3125 79.2734C77.2812 79.9609 77.2656 80.5547 77.2656 81.0547C77.2656 81.5391 77.2891 82.0625 77.3359 82.625Z" fill="#404040"/>
<path d="M93.9531 79.8828C93.9531 79.6328 93.9297 79.2891 93.8828 78.8516C93.8516 78.3984 93.8203 77.9062 93.7891 77.375C93.7578 76.8438 93.7422 76.3047 93.7422 75.7578C93.7422 75.2109 93.7891 74.7109 93.8828 74.2578C94.0859 73.2422 94.5078 72.7344 95.1484 72.7344C95.5859 72.8594 95.875 73.0156 96.0156 73.2031C96.1719 73.3906 96.25 73.625 96.25 73.9062C96.25 74.1719 96.1797 74.5078 96.0391 74.9141C95.5234 76.2734 95.2656 77.5 95.2656 78.5938C95.2656 78.9531 95.2891 79.3359 95.3359 79.7422C95.5859 80.7891 96.4453 81.3125 97.9141 81.3125C98.6797 81.3125 99.4062 81.1797 100.094 80.9141C101.406 80.4297 102.297 79.8594 102.766 79.2031C102.906 78.4844 102.977 77.8594 102.977 77.3281C102.977 76.7812 102.953 76.2969 102.906 75.875C102.875 75.4531 102.828 74.9922 102.766 74.4922C102.719 73.9766 102.688 73.4141 102.672 72.8047C102.875 72.7109 103.07 72.6641 103.258 72.6641C103.461 72.6641 103.664 72.7656 103.867 72.9688C104.086 73.1719 104.266 73.5547 104.406 74.1172C104.562 74.6797 104.664 75.3438 104.711 76.1094C104.758 76.8594 104.781 77.6406 104.781 78.4531C104.797 79.2656 104.805 80.0547 104.805 80.8203C104.805 81.5703 104.836 82.2188 104.898 82.7656C104.711 82.9375 104.531 83.0234 104.359 83.0234C103.734 83.0234 103.273 82.3984 102.977 81.1484C102.773 81.3203 102.43 81.5312 101.945 81.7812C100.914 82.3438 99.6953 82.7188 98.2891 82.9062C98.0234 82.9375 97.7266 82.9531 97.3984 82.9531C97.0703 82.9531 96.6562 82.8906 96.1562 82.7656C95.6719 82.6406 95.2109 82.3516 94.7734 81.8984C94.3359 81.4453 94.0625 80.7734 93.9531 79.8828Z" fill="#404040"/>
<path d="M106.68 73.9062C106.648 73.0625 106.617 72.3125 106.586 71.6562C106.555 70.9844 106.531 70.4922 106.516 70.1797C106.516 69.8516 106.391 69.0625 106.141 67.8125C106.281 67.625 106.414 67.4453 106.539 67.2734C106.68 67.1016 106.875 67.0156 107.125 67.0156C107.672 67.0156 108.094 69.3203 108.391 73.9297C108.547 76.6016 108.625 79.2734 108.625 81.9453C108.625 82.6641 108.125 83.0234 107.125 83.0234L106.938 83C106.938 82.1875 106.914 81.1484 106.867 79.8828C106.82 78.6172 106.781 77.5156 106.75 76.5781C106.734 75.6406 106.711 74.75 106.68 73.9062Z" fill="#404040"/>
<path d="M109.914 79.8828C109.914 79.6328 109.891 79.2891 109.844 78.8516C109.812 78.3984 109.781 77.9062 109.75 77.375C109.719 76.8438 109.703 76.3047 109.703 75.7578C109.703 75.2109 109.75 74.7109 109.844 74.2578C110.047 73.2422 110.469 72.7344 111.109 72.7344C111.547 72.8594 111.836 73.0156 111.977 73.2031C112.133 73.3906 112.211 73.625 112.211 73.9062C112.211 74.1719 112.141 74.5078 112 74.9141C111.484 76.2734 111.227 77.5 111.227 78.5938C111.227 78.9531 111.25 79.3359 111.297 79.7422C111.547 80.7891 112.406 81.3125 113.875 81.3125C114.641 81.3125 115.367 81.1797 116.055 80.9141C117.367 80.4297 118.258 79.8594 118.727 79.2031C118.867 78.4844 118.938 77.8594 118.938 77.3281C118.938 76.7812 118.914 76.2969 118.867 75.875C118.836 75.4531 118.789 74.9922 118.727 74.4922C118.68 73.9766 118.648 73.4141 118.633 72.8047C118.836 72.7109 119.031 72.6641 119.219 72.6641C119.422 72.6641 119.625 72.7656 119.828 72.9688C120.047 73.1719 120.227 73.5547 120.367 74.1172C120.523 74.6797 120.625 75.3438 120.672 76.1094C120.719 76.8594 120.742 77.6406 120.742 78.4531C120.758 79.2656 120.766 80.0547 120.766 80.8203C120.766 81.5703 120.797 82.2188 120.859 82.7656C120.672 82.9375 120.492 83.0234 120.32 83.0234C119.695 83.0234 119.234 82.3984 118.938 81.1484C118.734 81.3203 118.391 81.5312 117.906 81.7812C116.875 82.3438 115.656 82.7188 114.25 82.9062C113.984 82.9375 113.688 82.9531 113.359 82.9531C113.031 82.9531 112.617 82.8906 112.117 82.7656C111.633 82.6406 111.172 82.3516 110.734 81.8984C110.297 81.4453 110.023 80.7734 109.914 79.8828Z" fill="#404040"/>
<path d="M130.234 76.9531C131.953 76.9531 132.812 77.3906 132.812 78.2656C132.812 78.9219 132.336 79.6875 131.383 80.5625C129.961 81.8594 128.047 82.8984 125.641 83.6797C125.531 83.6797 125.406 83.5703 125.266 83.3516C125.141 83.1328 125.039 82.9688 124.961 82.8594C124.898 82.7344 124.852 82.6562 124.82 82.625C126.617 82.0312 128.094 81.3125 129.25 80.4688C130.031 79.9062 130.422 79.4453 130.422 79.0859C130.422 78.7266 129.961 78.5469 129.039 78.5469C128.117 78.5469 126.766 78.7656 124.984 79.2031C124.172 79.1719 123.469 78.8828 122.875 78.3359C122.359 77.8516 122.102 77.3672 122.102 76.8828C122.102 76.3828 122.242 75.9297 122.523 75.5234C122.805 75.1016 123.18 74.7109 123.648 74.3516C124.117 73.9922 124.664 73.6641 125.289 73.3672C126.82 72.6328 128.406 72.2656 130.047 72.2656C130.531 72.2656 131 72.3125 131.453 72.4062C131.828 72.4062 132.047 72.5703 132.109 72.8984C132.172 73.2266 132.203 73.7656 132.203 74.5156C131.281 74.0938 130.242 73.8828 129.086 73.8828C127.648 73.8828 126.461 74.1719 125.523 74.75C124.555 75.3125 124.055 76.0469 124.023 76.9531C124.023 77.3906 124.344 77.6094 124.984 77.6094L126.695 77.4219C128.164 77.1094 129.344 76.9531 130.234 76.9531Z" fill="#404040"/>
<path d="M187.766 69.0781C188.625 68.25 190.18 67.8359 192.43 67.8359C193.836 67.8359 195.016 67.9766 195.969 68.2578C196.922 68.5391 197.633 68.8359 198.102 69.1484C198.586 69.4609 198.828 69.8047 198.828 70.1797C198.828 71.0391 197.828 71.8906 195.828 72.7344C195.531 72.875 194.75 73.1641 193.484 73.6016C192.234 74.0234 191.391 74.3125 190.953 74.4688C190 74.8281 189.367 75.1094 189.055 75.3125C189.055 75.3906 189.086 75.4609 189.148 75.5234C189.211 75.5703 189.359 75.6641 189.594 75.8047C189.828 75.9297 190.18 76.1172 190.648 76.3672C191.117 76.6016 191.766 76.9453 192.594 77.3984C195.062 78.7422 197.602 80.1797 200.211 81.7109C200.336 81.8047 200.5 81.9375 200.703 82.1094C200.906 82.2656 201.008 82.4453 201.008 82.6484C201.008 82.8359 200.945 82.9688 200.82 83.0469C200.695 83.125 200.547 83.1797 200.375 83.2109C200.203 83.2578 200.023 83.2812 199.836 83.2812H199.367C199.055 83.2812 198.398 82.9453 197.398 82.2734C196.414 81.6016 195.555 81.0156 194.82 80.5156C194.102 80.0156 193.367 79.5312 192.617 79.0625C190.852 77.9219 189.453 77.1797 188.422 76.8359V82.2031C188.422 82.5156 188.156 82.6719 187.625 82.6719H187.367C187.039 82.6719 186.797 82.5078 186.641 82.1797C186.422 81.6797 186.312 80.7578 186.312 79.4141L186.383 74.7031C186.383 72.3906 186.281 70.3594 186.078 68.6094C186.453 67.9688 186.914 67.9922 187.461 68.6797C187.586 68.8359 187.688 68.9688 187.766 69.0781ZM195.688 69.3594L194.164 69.3359C190.633 69.3359 188.602 69.7422 188.07 70.5547C187.914 70.7734 187.836 71.0547 187.836 71.3984C187.836 71.7266 187.852 72.0156 187.883 72.2656C187.961 72.9062 188.141 73.3672 188.422 73.6484C188.469 73.6641 188.547 73.6719 188.656 73.6719C188.781 73.6719 189 73.6406 189.312 73.5781C189.641 73.5156 190.07 73.4062 190.602 73.25C191.148 73.0781 191.727 72.875 192.336 72.6406C192.945 72.4062 193.531 72.1641 194.094 71.9141C195.859 71.1172 196.742 70.4688 196.742 69.9688C196.742 69.6875 196.391 69.4844 195.688 69.3594Z" fill="#404040"/>
<path d="M207.523 81.3594C208.898 81.3594 210.969 80.7344 213.734 79.4844C213.906 79.4844 214.047 79.5469 214.156 79.6719C214.266 79.7812 214.32 79.9141 214.32 80.0703C213.695 81.1328 212.5 81.9609 210.734 82.5547C208.969 83.1484 207.32 83.25 205.789 82.8594C204.055 82.4062 203 81.4297 202.625 79.9297C202.594 79.6328 202.578 79.2344 202.578 78.7344C202.578 78.2344 202.703 77.5781 202.953 76.7656C203.219 75.9375 203.664 75.1562 204.289 74.4219C204.914 73.6875 205.648 73.1094 206.492 72.6875C207.336 72.2656 208.234 72.0547 209.188 72.0547C210.094 72.0547 211.109 72.3672 212.234 72.9922C212.766 73.2891 213.188 73.625 213.5 74C213.812 74.375 213.969 74.7578 213.969 75.1484C213.969 75.2578 213.961 75.3672 213.945 75.4766C213.914 76.4297 213.453 77.0312 212.562 77.2812C212.172 77.3906 211.719 77.4453 211.203 77.4453L207.828 77.3047C206.703 77.3047 205.844 77.5469 205.25 78.0312C204.906 78.2969 204.664 78.6953 204.523 79.2266C204.914 80.6484 205.914 81.3594 207.523 81.3594ZM211.695 74.1172C211.352 73.8672 210.992 73.6875 210.617 73.5781C210.242 73.4688 209.93 73.4141 209.68 73.4141C209.43 73.4141 209.023 73.5 208.461 73.6719C207.898 73.8281 207.398 74.0078 206.961 74.2109C205.883 74.7109 205.344 75.2344 205.344 75.7812C206.594 75.8906 207.531 75.9453 208.156 75.9453C209.891 75.9453 211.062 75.7969 211.672 75.5C212.047 75.3438 212.234 75.1484 212.234 74.9141C212.234 74.6328 212.055 74.3672 211.695 74.1172Z" fill="#404040"/>
<path d="M229.18 75.1719C229.258 75.1719 229.297 75.3828 229.297 75.8047C229.297 76.2266 229.312 76.5156 229.344 76.6719L221.305 77.6562L221.727 82.8594L219.828 82.7656C219.828 81.3594 219.672 79.75 219.359 77.9375L216.312 79.1094C216.109 79.1094 215.938 78.9922 215.797 78.7578C215.547 78.3516 215.422 77.9844 215.422 77.6562L218.984 76.3906C218.672 73.7031 218.516 71.5234 218.516 69.8516C218.516 68.1641 218.656 66.8516 218.938 65.9141C219.219 64.9766 219.625 64.3516 220.156 64.0391C220.703 63.7109 221.281 63.5469 221.891 63.5469C222.5 63.5469 223.117 63.6797 223.742 63.9453C224.383 64.2109 224.992 64.5469 225.57 64.9531C226.148 65.3594 226.641 65.8203 227.047 66.3359C227.453 66.8359 227.656 67.3281 227.656 67.8125C227.656 68.1875 227.617 68.4531 227.539 68.6094C226.914 67.7344 226.156 66.9531 225.266 66.2656C224.203 65.4531 223.203 65.0469 222.266 65.0469C221.375 65.0469 220.781 65.6797 220.484 66.9453C220.344 67.6016 220.273 68.5312 220.273 69.7344C220.273 70.9219 220.305 72.0156 220.367 73.0156C220.43 74 220.617 74.9922 220.93 75.9922C221.898 75.9922 222.984 75.9062 224.188 75.7344C226.5 75.375 228.164 75.1875 229.18 75.1719Z" fill="#404040"/>
<path d="M230.398 73.9062C230.367 73.0625 230.336 72.3125 230.305 71.6562C230.273 70.9844 230.25 70.4922 230.234 70.1797C230.234 69.8516 230.109 69.0625 229.859 67.8125C230 67.625 230.133 67.4453 230.258 67.2734C230.398 67.1016 230.594 67.0156 230.844 67.0156C231.391 67.0156 231.812 69.3203 232.109 73.9297C232.266 76.6016 232.344 79.2734 232.344 81.9453C232.344 82.6641 231.844 83.0234 230.844 83.0234L230.656 83C230.656 82.1875 230.633 81.1484 230.586 79.8828C230.539 78.6172 230.5 77.5156 230.469 76.5781C230.453 75.6406 230.43 74.75 230.398 73.9062Z" fill="#404040"/>
<path d="M238.531 81.3594C239.906 81.3594 241.977 80.7344 244.742 79.4844C244.914 79.4844 245.055 79.5469 245.164 79.6719C245.273 79.7812 245.328 79.9141 245.328 80.0703C244.703 81.1328 243.508 81.9609 241.742 82.5547C239.977 83.1484 238.328 83.25 236.797 82.8594C235.062 82.4062 234.008 81.4297 233.633 79.9297C233.602 79.6328 233.586 79.2344 233.586 78.7344C233.586 78.2344 233.711 77.5781 233.961 76.7656C234.227 75.9375 234.672 75.1562 235.297 74.4219C235.922 73.6875 236.656 73.1094 237.5 72.6875C238.344 72.2656 239.242 72.0547 240.195 72.0547C241.102 72.0547 242.117 72.3672 243.242 72.9922C243.773 73.2891 244.195 73.625 244.508 74C244.82 74.375 244.977 74.7578 244.977 75.1484C244.977 75.2578 244.969 75.3672 244.953 75.4766C244.922 76.4297 244.461 77.0312 243.57 77.2812C243.18 77.3906 242.727 77.4453 242.211 77.4453L238.836 77.3047C237.711 77.3047 236.852 77.5469 236.258 78.0312C235.914 78.2969 235.672 78.6953 235.531 79.2266C235.922 80.6484 236.922 81.3594 238.531 81.3594ZM242.703 74.1172C242.359 73.8672 242 73.6875 241.625 73.5781C241.25 73.4688 240.938 73.4141 240.688 73.4141C240.438 73.4141 240.031 73.5 239.469 73.6719C238.906 73.8281 238.406 74.0078 237.969 74.2109C236.891 74.7109 236.352 75.2344 236.352 75.7812C237.602 75.8906 238.539 75.9453 239.164 75.9453C240.898 75.9453 242.07 75.7969 242.68 75.5C243.055 75.3438 243.242 75.1484 243.242 74.9141C243.242 74.6328 243.062 74.3672 242.703 74.1172Z" fill="#404040"/>
<path d="M246.711 82.2969C247.477 81.5312 248.25 80.6562 249.031 79.6719C249.812 78.6875 250.289 78.0312 250.461 77.7031L248.492 75.5469C248.242 75.2812 248 75.0156 247.766 74.75C247.531 74.4844 247.32 74.25 247.133 74.0469C246.945 73.8438 246.797 73.6719 246.688 73.5312L246.523 73.3438L247.883 71.8906C248.586 72.75 249.102 73.4062 249.43 73.8594C249.773 74.2969 250.047 74.6484 250.25 74.9141C250.594 75.3516 251.094 75.8906 251.75 76.5312C251.969 76.2188 252.359 75.6562 252.922 74.8438C253.859 73.4531 254.609 72.4219 255.172 71.75C255.531 71.75 255.82 71.875 256.039 72.125C256.258 72.375 256.367 72.6094 256.367 72.8281C255.961 73.7031 255.375 74.625 254.609 75.5938C254.328 75.9375 254.07 76.2734 253.836 76.6016C253.602 76.9141 253.414 77.2578 253.273 77.6328C254.227 78.3047 255.367 79.4453 256.695 81.0547C256.992 81.4141 257.203 81.6875 257.328 81.875C257.328 81.9844 257.242 82.1484 257.07 82.3672C256.805 82.7422 256.57 82.9766 256.367 83.0703C256.07 82.9297 255.758 82.6797 255.43 82.3203C255.117 81.9453 254.781 81.5391 254.422 81.1016C254.062 80.6641 253.688 80.2266 253.297 79.7891C252.922 79.3516 252.523 78.9922 252.102 78.7109C251.742 79.1172 251.242 79.7031 250.602 80.4688C249.43 81.875 248.648 82.7188 248.258 83C247.961 83.0625 247.539 82.9219 246.992 82.5781C246.852 82.5 246.758 82.4062 246.711 82.2969Z" fill="#404040"/>
</svg>
