<svg width="16" height="16" viewBox="0 0 16 16" fill="none" xmlns="http://www.w3.org/2000/svg">
<path d="M8 0.5C8 0.776142 8.22386 1 8.5 1H14.2929L8.14645 7.14645C7.95118 7.34171 7.95118 7.65829 8.14645 7.85355C8.34171 8.04882 8.65829 8.04882 8.85355 7.85355L15 1.70711V7.5C15 7.77614 15.2239 8 15.5 8C15.7761 8 16 7.77614 16 7.5V0.5C16 0.223858 15.7761 0 15.5 0H8.5C8.22386 0 8 0.223858 8 0.5Z" fill="#8C8C8C"/>
<path d="M9.56066 8.56066L13.8984 4.22294C13.9647 4.47078 14 4.73126 14 5V13C14 14.6569 12.6569 16 11 16H3C1.34315 16 0 14.6569 0 13V5C0 3.34315 1.34315 2 3 2H11C11.2687 2 11.5292 2.03534 11.7771 2.10161L7.43934 6.43934C6.85355 7.02513 6.85355 7.97487 7.43934 8.56066C8.02513 9.14645 8.97487 9.14645 9.56066 8.56066Z" fill="#8C8C8C"/>
</svg>
