<svg width="32" height="26" viewBox="0 0 32 26" fill="none" xmlns="http://www.w3.org/2000/svg">
<path d="M27.0894 2.82193C25.0498 1.88609 22.8626 1.1966 20.5759 0.801705C20.5342 0.794084 20.4926 0.81313 20.4712 0.851224C20.1899 1.35151 19.8783 2.00418 19.6601 2.51717C17.2005 2.14894 14.7536 2.14894 12.3444 2.51717C12.1262 1.99277 11.8033 1.35151 11.5208 0.851224C11.4993 0.814401 11.4577 0.795355 11.4161 0.801705C9.13055 1.19534 6.94341 1.88483 4.90258 2.82193C4.88491 2.82955 4.86977 2.84226 4.85972 2.85876C0.711189 9.05657 -0.425267 15.102 0.13224 21.0726C0.134763 21.1018 0.15116 21.1297 0.173864 21.1475C2.91095 23.1575 5.56228 24.3778 8.16437 25.1866C8.20602 25.1994 8.25014 25.1841 8.27664 25.1498C8.89217 24.3093 9.44086 23.4229 9.9113 22.4909C9.93906 22.4363 9.91256 22.3715 9.85582 22.35C8.98551 22.0198 8.1568 21.6173 7.35964 21.1602C7.29659 21.1234 7.29154 21.0332 7.34954 20.99C7.5173 20.8643 7.68509 20.7335 7.84527 20.6014C7.87425 20.5773 7.91464 20.5722 7.94871 20.5875C13.1857 22.9785 18.8554 22.9785 24.0306 20.5875C24.0647 20.571 24.1051 20.5761 24.1353 20.6002C24.2955 20.7322 24.4633 20.8643 24.6323 20.99C24.6903 21.0332 24.6865 21.1234 24.6235 21.1602C23.8263 21.6262 22.9976 22.0198 22.126 22.3487C22.0693 22.3703 22.044 22.4363 22.0718 22.4909C22.5523 23.4216 23.101 24.308 23.7052 25.1486C23.7304 25.1841 23.7758 25.1994 23.8175 25.1866C26.4322 24.3778 29.0835 23.1575 31.8206 21.1475C31.8446 21.1297 31.8597 21.103 31.8622 21.0738C32.5294 14.1713 30.7447 8.17535 27.131 2.86002C27.1221 2.84226 27.107 2.82955 27.0894 2.82193ZM10.6934 17.4371C9.11666 17.4371 7.81751 15.9896 7.81751 14.2119C7.81751 12.4342 9.09147 10.9867 10.6934 10.9867C12.3078 10.9867 13.5944 12.4469 13.5692 14.2119C13.5692 15.9896 12.2952 17.4371 10.6934 17.4371ZM21.3263 17.4371C19.7497 17.4371 18.4505 15.9896 18.4505 14.2119C18.4505 12.4342 19.7244 10.9867 21.3263 10.9867C22.9408 10.9867 24.2274 12.4469 24.2022 14.2119C24.2022 15.9896 22.9408 17.4371 21.3263 17.4371Z" fill="#881E4E"/>
</svg>
